<ttFont>
    <TTGlyph name="A" xMin="-97" yMin="0" xMax="979" yMax="1550">
      <contour>
        <pt x="701" y="1510" on="1"/>
        <pt x="706" y="1499" on="0"/>
        <pt x="711" y="1483" on="1"/>
        <pt x="735" y="1401" on="0"/>
        <pt x="976" y="102" on="1"/>
        <pt x="979" y="92" on="0"/>
        <pt x="979" y="82" on="1"/>
        <pt x="979" y="61" on="0"/>
        <pt x="968" y="41" on="1"/>
        <pt x="944" y="0" on="0"/>
        <pt x="901" y="0" on="1"/>
        <pt x="895" y="0" on="0"/>
        <pt x="888" y="1" on="1"/>
        <pt x="840" y="9" on="0"/>
        <pt x="826" y="56" on="1"/>
        <pt x="736" y="513" on="1"/>
        <pt x="276" y="513" on="1"/>
        <pt x="60" y="54" on="1"/>
        <pt x="56" y="47" on="0"/>
        <pt x="50" y="40" on="1"/>
        <pt x="19" y="0" on="0"/>
        <pt x="-18" y="0" on="1"/>
        <pt x="-41" y="0" on="0"/>
        <pt x="-61" y="13" on="1"/>
        <pt x="-97" y="38" on="0"/>
        <pt x="-97" y="80" on="1"/>
        <pt x="-97" y="92" on="0"/>
        <pt x="-92" y="104" on="1"/>
        <pt x="-71" y="152" on="0"/>
        <pt x="-23" y="255" on="1"/>
        <pt x="457" y="1305" on="0"/>
        <pt x="551" y="1494" on="1"/>
        <pt x="578" y="1549" on="0"/>
        <pt x="628" y="1550" on="1"/>
        <pt x="676" y="1549" on="0"/>
      </contour>
      <contour>
        <pt x="600" y="1202" on="1"/>
        <pt x="352" y="680" on="1"/>
        <pt x="702" y="680" on="1"/>
      </contour>
    </TTGlyph>
    <TTGlyph name="AE" xMin="-102" yMin="-2" xMax="1925" yMax="1554">
      <contour>
        <pt x="1128" y="1521" on="1"/>
        <pt x="1163" y="1554" on="0"/>
        <pt x="1211" y="1554" on="1"/>
        <pt x="1836" y="1554" on="1"/>
        <pt x="1915" y="1554" on="0"/>
        <pt x="1925" y="1491" on="1"/>
        <pt x="1925" y="1474" on="0"/>
        <pt x="1920" y="1458" on="1"/>
        <pt x="1902" y="1410" on="0"/>
        <pt x="1845" y="1402" on="1"/>
        <pt x="1837" y="1402" on="0"/>
        <pt x="1258" y="1397" on="1"/>
        <pt x="1187" y="836" on="1"/>
        <pt x="1615" y="836" on="1"/>
        <pt x="1622" y="836" on="0"/>
        <pt x="1629" y="835" on="1"/>
        <pt x="1697" y="827" on="0"/>
        <pt x="1697" y="762" on="1"/>
        <pt x="1697" y="746" on="0"/>
        <pt x="1690" y="730" on="1"/>
        <pt x="1670" y="690" on="0"/>
        <pt x="1617" y="682" on="1"/>
        <pt x="1603" y="680" on="0"/>
        <pt x="1167" y="678" on="1"/>
        <pt x="1160" y="622" on="0"/>
        <pt x="1151" y="550" on="1"/>
        <pt x="1105" y="220" on="0"/>
        <pt x="1099" y="155" on="1"/>
        <pt x="1682" y="155" on="1"/>
        <pt x="1767" y="155" on="0"/>
        <pt x="1768" y="82" on="1"/>
        <pt x="1768" y="65" on="0"/>
        <pt x="1760" y="48" on="1"/>
        <pt x="1740" y="8" on="0"/>
        <pt x="1689" y="2" on="1"/>
        <pt x="1671" y="0" on="0"/>
        <pt x="1012" y="-2" on="1"/>
        <pt x="989" y="-2" on="0"/>
        <pt x="970" y="13" on="1"/>
        <pt x="934" y="41" on="0"/>
        <pt x="934" y="92" on="1"/>
        <pt x="944" y="181" on="0"/>
        <pt x="981" y="459" on="1"/>
        <pt x="1005" y="635" on="0"/>
        <pt x="1010" y="680" on="1"/>
        <pt x="1009" y="680" on="1"/>
        <pt x="1008" y="680" on="1"/>
        <pt x="731" y="682" on="0"/>
        <pt x="602" y="682" on="1"/>
        <pt x="34" y="36" on="1"/>
        <pt x="8" y="3" on="0"/>
        <pt x="-30" y="2" on="1"/>
        <pt x="-50" y="2" on="0"/>
        <pt x="-67" y="12" on="1"/>
        <pt x="-102" y="34" on="0"/>
        <pt x="-102" y="76" on="1"/>
        <pt x="-102" y="99" on="0"/>
        <pt x="-90" y="117" on="1"/>
        <pt x="26" y="257" on="0"/>
        <pt x="456" y="743" on="1"/>
        <pt x="1002" y="1359" on="0"/>
      </contour>
      <contour>
        <pt x="1032" y="838" on="1"/>
        <pt x="1032" y="838" on="0"/>
        <pt x="1085" y="1232" on="1"/>
        <pt x="740" y="840" on="1"/>
        <pt x="775" y="840" on="0"/>
        <pt x="858" y="839" on="1"/>
        <pt x="969" y="838" on="0"/>
      </contour>
    </TTGlyph>
    <TTGlyph name="Aacute" xMin="-97" yMin="0" xMax="979" yMax="1960">
      <component glyphName="acute" x="74" y="722" flags="0x1004"/>
      <component glyphName="A" x="0" y="0" flags="0x1004"/>
    </TTGlyph>
    <TTGlyph name="Acircumflex" xMin="-97" yMin="0" xMax="979" yMax="1954">
      <component glyphName="circumflex" x="-40" y="699" flags="0x1004"/>
      <component glyphName="A" x="0" y="0" flags="0x1004"/>
    </TTGlyph>
    <TTGlyph name="Adieresis" xMin="-97" yMin="0" xMax="979" yMax="1884">
      <component glyphName="dieresis" x="241" y="714" flags="0x1004"/>
      <component glyphName="A" x="0" y="0" flags="0x1004"/>
    </TTGlyph>
    <TTGlyph name="Agrave" xMin="-97" yMin="0" xMax="979" yMax="1954">
      <component glyphName="grave" x="-4" y="716" flags="0x1004"/>
      <component glyphName="A" x="0" y="0" flags="0x1004"/>
    </TTGlyph>
    <TTGlyph name="Aring" xMin="-97" yMin="0" xMax="979" yMax="1952">
      <component glyphName="ring" x="56" y="626" flags="0x1004"/>
      <component glyphName="A" x="0" y="0" flags="0x1004"/>
    </TTGlyph>
    <TTGlyph name="Atilde" xMin="-97" yMin="0" xMax="979" yMax="1952">
      <component glyphName="tilde" x="12" y="680" flags="0x1004"/>
      <component glyphName="A" x="0" y="0" flags="0x1004"/>
    </TTGlyph>
    <TTGlyph name="B" xMin="65" yMin="-7" xMax="1007" yMax="1564">
      <contour>
        <pt x="485" y="1564" on="1"/>
        <pt x="910" y="1562" on="0"/>
        <pt x="918" y="1246" on="1"/>
        <pt x="916" y="978" on="0"/>
        <pt x="738" y="838" on="1"/>
        <pt x="1006" y="757" on="0"/>
        <pt x="1007" y="483" on="1"/>
        <pt x="1000" y="372" on="0"/>
        <pt x="960" y="285" on="1"/>
        <pt x="825" y="-7" on="0"/>
        <pt x="328" y="-7" on="1"/>
        <pt x="268" y="-7" on="0"/>
        <pt x="148" y="0" on="1"/>
        <pt x="124" y="0" on="0"/>
        <pt x="104" y="13" on="1"/>
        <pt x="65" y="41" on="0"/>
        <pt x="65" y="97" on="1"/>
        <pt x="247" y="1474" on="1"/>
        <pt x="248" y="1491" on="0"/>
        <pt x="255" y="1507" on="1"/>
        <pt x="276" y="1552" on="0"/>
        <pt x="327" y="1552" on="1"/>
        <pt x="410" y="1564" on="0"/>
      </contour>
      <contour>
        <pt x="313" y="721" on="1"/>
        <pt x="313" y="721" on="0"/>
        <pt x="238" y="155" on="1"/>
        <pt x="295" y="151" on="0"/>
        <pt x="327" y="151" on="1"/>
        <pt x="484" y="151" on="0"/>
        <pt x="602" y="188" on="1"/>
        <pt x="847" y="266" on="0"/>
        <pt x="847" y="483" on="1"/>
        <pt x="846" y="631" on="0"/>
        <pt x="651" y="686" on="1"/>
        <pt x="546" y="714" on="0"/>
      </contour>
      <contour>
        <pt x="398" y="1411" on="1"/>
        <pt x="332" y="886" on="1"/>
        <pt x="365" y="886" on="0"/>
        <pt x="393" y="888" on="1"/>
        <pt x="759" y="908" on="0"/>
        <pt x="759" y="1243" on="1"/>
        <pt x="758" y="1325" on="0"/>
        <pt x="692" y="1369" on="1"/>
        <pt x="620" y="1414" on="0"/>
        <pt x="446" y="1414" on="1"/>
        <pt x="423" y="1414" on="0"/>
      </contour>
    </TTGlyph>
    <TTGlyph name="C" xMin="49" yMin="0" xMax="1016" yMax="1562">
      <contour>
        <pt x="860" y="1195" on="1"/>
        <pt x="838" y="1249" on="0"/>
        <pt x="806" y="1293" on="1"/>
        <pt x="728" y="1396" on="0"/>
        <pt x="634" y="1396" on="1"/>
        <pt x="573" y="1396" on="0"/>
        <pt x="511" y="1351" on="1"/>
        <pt x="393" y="1267" on="0"/>
        <pt x="308" y="1059" on="1"/>
        <pt x="219" y="845" on="0"/>
        <pt x="219" y="639" on="1"/>
        <pt x="219" y="441" on="0"/>
        <pt x="283" y="309" on="1"/>
        <pt x="354" y="163" on="0"/>
        <pt x="477" y="163" on="1"/>
        <pt x="534" y="163" on="0"/>
        <pt x="604" y="215" on="1"/>
        <pt x="714" y="298" on="0"/>
        <pt x="793" y="456" on="1"/>
        <pt x="795" y="462" on="0"/>
        <pt x="799" y="468" on="1"/>
        <pt x="822" y="507" on="0"/>
        <pt x="866" y="507" on="1"/>
        <pt x="887" y="507" on="0"/>
        <pt x="906" y="497" on="1"/>
        <pt x="946" y="474" on="0"/>
        <pt x="946" y="427" on="1"/>
        <pt x="946" y="410" on="0"/>
        <pt x="936" y="388" on="1"/>
        <pt x="872" y="252" on="0"/>
        <pt x="782" y="157" on="1"/>
        <pt x="632" y="0" on="0"/>
        <pt x="460" y="0" on="1"/>
        <pt x="438" y="0" on="0"/>
        <pt x="416" y="3" on="1"/>
        <pt x="262" y="25" on="0"/>
        <pt x="161" y="186" on="1"/>
        <pt x="49" y="365" on="0"/>
        <pt x="49" y="634" on="1"/>
        <pt x="49" y="794" on="0"/>
        <pt x="95" y="958" on="1"/>
        <pt x="167" y="1216" on="0"/>
        <pt x="317" y="1386" on="1"/>
        <pt x="474" y="1562" on="0"/>
        <pt x="649" y="1562" on="1"/>
        <pt x="724" y="1562" on="0"/>
        <pt x="792" y="1529" on="1"/>
        <pt x="936" y="1457" on="0"/>
        <pt x="1008" y="1258" on="1"/>
        <pt x="1016" y="1239" on="0"/>
        <pt x="1016" y="1221" on="1"/>
        <pt x="1016" y="1200" on="0"/>
        <pt x="1005" y="1181" on="1"/>
        <pt x="981" y="1141" on="0"/>
        <pt x="936" y="1141" on="1"/>
        <pt x="890" y="1144" on="0"/>
      </contour>
    </TTGlyph>
    <TTGlyph name="Ccaron" xMin="49" yMin="0" xMax="1016" yMax="1952">
      <component glyphName="caron" x="22" y="697" flags="0x1004"/>
      <component glyphName="C" x="0" y="0" flags="0x1004"/>
    </TTGlyph>
    <TTGlyph name="Ccedilla" xMin="49" yMin="-328" xMax="1016" yMax="1562">
      <contour>
        <pt x="860" y="1195" on="1"/>
        <pt x="838" y="1249" on="0"/>
        <pt x="806" y="1293" on="1"/>
        <pt x="728" y="1396" on="0"/>
        <pt x="634" y="1396" on="1"/>
        <pt x="573" y="1396" on="0"/>
        <pt x="511" y="1351" on="1"/>
        <pt x="393" y="1267" on="0"/>
        <pt x="308" y="1059" on="1"/>
        <pt x="219" y="845" on="0"/>
        <pt x="219" y="639" on="1"/>
        <pt x="219" y="441" on="0"/>
        <pt x="283" y="309" on="1"/>
        <pt x="354" y="163" on="0"/>
        <pt x="477" y="163" on="1"/>
        <pt x="534" y="163" on="0"/>
        <pt x="604" y="215" on="1"/>
        <pt x="714" y="298" on="0"/>
        <pt x="793" y="456" on="1"/>
        <pt x="795" y="462" on="0"/>
        <pt x="799" y="468" on="1"/>
        <pt x="822" y="507" on="0"/>
        <pt x="866" y="507" on="1"/>
        <pt x="887" y="507" on="0"/>
        <pt x="906" y="497" on="1"/>
        <pt x="946" y="474" on="0"/>
        <pt x="946" y="427" on="1"/>
        <pt x="946" y="410" on="0"/>
        <pt x="936" y="388" on="1"/>
        <pt x="872" y="252" on="0"/>
        <pt x="782" y="157" on="1"/>
        <pt x="672" y="42" on="0"/>
        <pt x="550" y="11" on="1"/>
        <pt x="539" y="-7" on="0"/>
        <pt x="524" y="-29" on="1"/>
        <pt x="530" y="-30" on="0"/>
        <pt x="538" y="-32" on="1"/>
        <pt x="657" y="-61" on="0"/>
        <pt x="657" y="-173" on="1"/>
        <pt x="657" y="-210" on="0"/>
        <pt x="645" y="-241" on="1"/>
        <pt x="609" y="-328" on="0"/>
        <pt x="490" y="-328" on="1"/>
        <pt x="456" y="-328" on="0"/>
        <pt x="419" y="-306" on="1"/>
        <pt x="358" y="-270" on="0"/>
        <pt x="358" y="-219" on="1"/>
        <pt x="358" y="-214" on="0"/>
        <pt x="359" y="-209" on="1"/>
        <pt x="366" y="-184" on="0"/>
        <pt x="395" y="-184" on="1"/>
        <pt x="413" y="-185" on="0"/>
        <pt x="438" y="-209" on="1"/>
        <pt x="463" y="-235" on="0"/>
        <pt x="485" y="-235" on="1"/>
        <pt x="502" y="-235" on="0"/>
        <pt x="517" y="-227" on="1"/>
        <pt x="553" y="-208" on="0"/>
        <pt x="553" y="-167" on="1"/>
        <pt x="553" y="-151" on="0"/>
        <pt x="546" y="-136" on="1"/>
        <pt x="527" y="-100" on="0"/>
        <pt x="485" y="-100" on="1"/>
        <pt x="473" y="-100" on="0"/>
        <pt x="457" y="-113" on="1"/>
        <pt x="432" y="-133" on="0"/>
        <pt x="417" y="-133" on="1"/>
        <pt x="413" y="-133" on="0"/>
        <pt x="407" y="-131" on="1"/>
        <pt x="383" y="-122" on="0"/>
        <pt x="383" y="-99" on="1"/>
        <pt x="383" y="-81" on="0"/>
        <pt x="394" y="-65" on="1"/>
        <pt x="436" y="1" on="1"/>
        <pt x="427" y="2" on="0"/>
        <pt x="416" y="3" on="1"/>
        <pt x="262" y="25" on="0"/>
        <pt x="161" y="186" on="1"/>
        <pt x="49" y="365" on="0"/>
        <pt x="49" y="634" on="1"/>
        <pt x="49" y="794" on="0"/>
        <pt x="95" y="958" on="1"/>
        <pt x="167" y="1216" on="0"/>
        <pt x="317" y="1386" on="1"/>
        <pt x="474" y="1562" on="0"/>
        <pt x="649" y="1562" on="1"/>
        <pt x="724" y="1562" on="0"/>
        <pt x="792" y="1529" on="1"/>
        <pt x="936" y="1457" on="0"/>
        <pt x="1008" y="1258" on="1"/>
        <pt x="1016" y="1239" on="0"/>
        <pt x="1016" y="1221" on="1"/>
        <pt x="1016" y="1200" on="0"/>
        <pt x="1005" y="1181" on="1"/>
        <pt x="981" y="1141" on="0"/>
        <pt x="936" y="1141" on="1"/>
        <pt x="890" y="1144" on="0"/>
      </contour>
    </TTGlyph>
    <TTGlyph name="D" xMin="51" yMin="0" xMax="1008" yMax="1557">
      <contour>
        <pt x="313" y="1552" on="1"/>
        <pt x="350" y="1557" on="0"/>
        <pt x="416" y="1557" on="1"/>
        <pt x="588" y="1557" on="0"/>
        <pt x="718" y="1500" on="1"/>
        <pt x="1008" y="1374" on="0"/>
        <pt x="1008" y="996" on="1"/>
        <pt x="1008" y="916" on="0"/>
        <pt x="1001" y="840" on="1"/>
        <pt x="956" y="356" on="0"/>
        <pt x="634" y="142" on="1"/>
        <pt x="420" y="0" on="0"/>
        <pt x="132" y="0" on="1"/>
        <pt x="109" y="0" on="0"/>
        <pt x="91" y="12" on="1"/>
        <pt x="51" y="38" on="0"/>
        <pt x="51" y="97" on="1"/>
        <pt x="51" y="117" on="0"/>
        <pt x="233" y="1474" on="1"/>
        <pt x="234" y="1490" on="0"/>
        <pt x="240" y="1504" on="1"/>
        <pt x="261" y="1550" on="0"/>
      </contour>
      <contour>
        <pt x="851" y="989" on="1"/>
        <pt x="851" y="1142" on="0"/>
        <pt x="789" y="1243" on="1"/>
        <pt x="692" y="1401" on="0"/>
        <pt x="469" y="1401" on="1"/>
        <pt x="429" y="1401" on="0"/>
        <pt x="381" y="1394" on="1"/>
        <pt x="226" y="172" on="1"/>
        <pt x="241" y="173" on="0"/>
        <pt x="258" y="174" on="1"/>
        <pt x="443" y="192" on="0"/>
        <pt x="586" y="307" on="1"/>
        <pt x="851" y="520" on="0"/>
      </contour>
    </TTGlyph>
    <TTGlyph name="E" xMin="57" yMin="0" xMax="1051" yMax="1550">
      <contour>
        <pt x="318" y="1550" on="1"/>
        <pt x="318" y="1550" on="0"/>
        <pt x="959" y="1550" on="1"/>
        <pt x="979" y="1550" on="0"/>
        <pt x="996" y="1545" on="1"/>
        <pt x="1051" y="1527" on="0"/>
        <pt x="1051" y="1469" on="1"/>
        <pt x="1051" y="1453" on="0"/>
        <pt x="1044" y="1439" on="1"/>
        <pt x="1024" y="1396" on="0"/>
        <pt x="964" y="1387" on="1"/>
        <pt x="388" y="1387" on="1"/>
        <pt x="318" y="840" on="1"/>
        <pt x="733" y="840" on="1"/>
        <pt x="757" y="840" on="0"/>
        <pt x="778" y="831" on="1"/>
        <pt x="827" y="809" on="0"/>
        <pt x="827" y="756" on="1"/>
        <pt x="827" y="742" on="0"/>
        <pt x="822" y="729" on="1"/>
        <pt x="804" y="685" on="0"/>
        <pt x="740" y="675" on="1"/>
        <pt x="298" y="675" on="1"/>
        <pt x="232" y="165" on="1"/>
        <pt x="801" y="165" on="1"/>
        <pt x="824" y="165" on="0"/>
        <pt x="844" y="158" on="1"/>
        <pt x="896" y="137" on="0"/>
        <pt x="896" y="82" on="1"/>
        <pt x="896" y="70" on="0"/>
        <pt x="892" y="57" on="1"/>
        <pt x="876" y="10" on="0"/>
        <pt x="810" y="0" on="1"/>
        <pt x="143" y="0" on="1"/>
        <pt x="118" y="0" on="0"/>
        <pt x="97" y="13" on="1"/>
        <pt x="57" y="40" on="0"/>
        <pt x="57" y="97" on="1"/>
        <pt x="57" y="111" on="0"/>
        <pt x="238" y="1474" on="1"/>
        <pt x="240" y="1489" on="0"/>
        <pt x="246" y="1502" on="1"/>
        <pt x="267" y="1550" on="0"/>
      </contour>
    </TTGlyph>
    <TTGlyph name="Eacute" xMin="57" yMin="0" xMax="1051" yMax="1954">
      <component glyphName="acute" x="65" y="716" flags="0x1004"/>
      <component glyphName="E" x="0" y="0" flags="0x1004"/>
    </TTGlyph>
    <TTGlyph name="Ecircumflex" xMin="57" yMin="0" xMax="1051" yMax="1954">
      <component glyphName="circumflex" x="-56" y="699" flags="0x1004"/>
      <component glyphName="E" x="0" y="0" flags="0x1004"/>
    </TTGlyph>
    <TTGlyph name="Edieresis" xMin="57" yMin="0" xMax="1051" yMax="1875">
      <component glyphName="dieresis" x="237" y="705" flags="0x1004"/>
      <component glyphName="E" x="0" y="0" flags="0x1004"/>
    </TTGlyph>
    <TTGlyph name="Egrave" xMin="57" yMin="0" xMax="1051" yMax="1955">
      <component glyphName="grave" x="86" y="717" flags="0x1004"/>
      <component glyphName="E" x="0" y="0" flags="0x1004"/>
    </TTGlyph>
    <TTGlyph name="Eth" xMin="-16" yMin="0" xMax="1060" yMax="1550">
      <contour>
        <pt x="370" y="1545" on="1"/>
        <pt x="401" y="1550" on="0"/>
        <pt x="469" y="1550" on="1"/>
        <pt x="641" y="1550" on="0"/>
        <pt x="771" y="1493" on="1"/>
        <pt x="1060" y="1365" on="0"/>
        <pt x="1060" y="988" on="1"/>
        <pt x="1060" y="915" on="0"/>
        <pt x="1054" y="847" on="1"/>
        <pt x="1013" y="358" on="0"/>
        <pt x="691" y="142" on="1"/>
        <pt x="479" y="0" on="0"/>
        <pt x="190" y="0" on="1"/>
        <pt x="161" y="0" on="0"/>
        <pt x="139" y="16" on="1"/>
        <pt x="98" y="46" on="0"/>
        <pt x="98" y="107" on="1"/>
        <pt x="98" y="116" on="0"/>
        <pt x="163" y="605" on="1"/>
        <pt x="86" y="605" on="1"/>
        <pt x="72" y="605" on="0"/>
        <pt x="56" y="609" on="1"/>
        <pt x="-16" y="627" on="0"/>
        <pt x="-16" y="697" on="1"/>
        <pt x="-16" y="708" on="0"/>
        <pt x="-13" y="720" on="1"/>
        <pt x="0" y="779" on="0"/>
        <pt x="78" y="790" on="1"/>
        <pt x="104" y="794" on="0"/>
        <pt x="188" y="794" on="1"/>
        <pt x="219" y="1037" on="0"/>
        <pt x="277" y="1459" on="1"/>
        <pt x="279" y="1479" on="0"/>
        <pt x="289" y="1498" on="1"/>
        <pt x="315" y="1544" on="0"/>
      </contour>
      <contour>
        <pt x="374" y="796" on="1"/>
        <pt x="537" y="796" on="1"/>
        <pt x="550" y="796" on="0"/>
        <pt x="563" y="794" on="1"/>
        <pt x="641" y="780" on="0"/>
        <pt x="641" y="702" on="1"/>
        <pt x="641" y="683" on="0"/>
        <pt x="632" y="665" on="1"/>
        <pt x="609" y="619" on="0"/>
        <pt x="545" y="610" on="1"/>
        <pt x="539" y="610" on="0"/>
        <pt x="482" y="609" on="1"/>
        <pt x="398" y="608" on="0"/>
        <pt x="350" y="607" on="1"/>
        <pt x="306" y="266" on="0"/>
        <pt x="295" y="192" on="1"/>
        <pt x="308" y="193" on="0"/>
        <pt x="323" y="194" on="1"/>
        <pt x="494" y="212" on="0"/>
        <pt x="629" y="321" on="1"/>
        <pt x="884" y="528" on="0"/>
        <pt x="884" y="981" on="1"/>
        <pt x="884" y="1109" on="0"/>
        <pt x="840" y="1198" on="1"/>
        <pt x="753" y="1372" on="0"/>
        <pt x="510" y="1372" on="1"/>
        <pt x="483" y="1372" on="0"/>
        <pt x="445" y="1368" on="1"/>
      </contour>
    </TTGlyph>
    <TTGlyph name="Euro" xMin="51" yMin="10" xMax="1273" yMax="1239">
      <contour>
        <pt x="1251" y="1074" on="1"/>
        <pt x="1272" y="1054" on="0"/>
        <pt x="1273" y="1025" on="1"/>
        <pt x="1273" y="1009" on="0"/>
        <pt x="1264" y="993" on="1"/>
        <pt x="1244" y="957" on="0"/>
        <pt x="1205" y="957" on="1"/>
        <pt x="1182" y="957" on="0"/>
        <pt x="1160" y="977" on="1"/>
        <pt x="1145" y="991" on="0"/>
        <pt x="1128" y="1004" on="1"/>
        <pt x="998" y="1105" on="0"/>
        <pt x="833" y="1105" on="1"/>
        <pt x="683" y="1105" on="0"/>
        <pt x="554" y="1011" on="1"/>
        <pt x="431" y="922" on="0"/>
        <pt x="381" y="790" on="1"/>
        <pt x="1107" y="790" on="1"/>
        <pt x="1123" y="790" on="0"/>
        <pt x="1139" y="782" on="1"/>
        <pt x="1175" y="763" on="0"/>
        <pt x="1175" y="722" on="1"/>
        <pt x="1175" y="706" on="0"/>
        <pt x="1167" y="690" on="1"/>
        <pt x="1147" y="654" on="0"/>
        <pt x="1107" y="654" on="1"/>
        <pt x="354" y="654" on="1"/>
        <pt x="352" y="643" on="0"/>
        <pt x="352" y="619" on="1"/>
        <pt x="352" y="591" on="0"/>
        <pt x="357" y="559" on="1"/>
        <pt x="1030" y="559" on="1"/>
        <pt x="1045" y="559" on="0"/>
        <pt x="1059" y="552" on="1"/>
        <pt x="1096" y="535" on="0"/>
        <pt x="1096" y="491" on="1"/>
        <pt x="1096" y="475" on="0"/>
        <pt x="1089" y="461" on="1"/>
        <pt x="1071" y="423" on="0"/>
        <pt x="1030" y="423" on="1"/>
        <pt x="396" y="423" on="1"/>
        <pt x="448" y="314" on="0"/>
        <pt x="546" y="241" on="1"/>
        <pt x="677" y="144" on="0"/>
        <pt x="833" y="144" on="1"/>
        <pt x="983" y="144" on="0"/>
        <pt x="1105" y="229" on="1"/>
        <pt x="1121" y="240" on="0"/>
        <pt x="1144" y="241" on="1"/>
        <pt x="1159" y="241" on="0"/>
        <pt x="1174" y="234" on="1"/>
        <pt x="1212" y="215" on="0"/>
        <pt x="1212" y="175" on="1"/>
        <pt x="1211" y="139" on="0"/>
        <pt x="1183" y="119" on="1"/>
        <pt x="1025" y="11" on="0"/>
        <pt x="830" y="10" on="1"/>
        <pt x="638" y="10" on="0"/>
        <pt x="484" y="117" on="1"/>
        <pt x="320" y="230" on="0"/>
        <pt x="250" y="423" on="1"/>
        <pt x="119" y="423" on="1"/>
        <pt x="103" y="423" on="0"/>
        <pt x="87" y="431" on="1"/>
        <pt x="51" y="451" on="0"/>
        <pt x="51" y="491" on="1"/>
        <pt x="51" y="508" on="0"/>
        <pt x="59" y="523" on="1"/>
        <pt x="78" y="559" on="0"/>
        <pt x="119" y="559" on="1"/>
        <pt x="221" y="559" on="1"/>
        <pt x="218" y="578" on="0"/>
        <pt x="218" y="654" on="1"/>
        <pt x="119" y="654" on="1"/>
        <pt x="103" y="654" on="0"/>
        <pt x="87" y="662" on="1"/>
        <pt x="51" y="682" on="0"/>
        <pt x="51" y="722" on="1"/>
        <pt x="51" y="739" on="0"/>
        <pt x="59" y="754" on="1"/>
        <pt x="78" y="790" on="0"/>
        <pt x="119" y="790" on="1"/>
        <pt x="240" y="790" on="1"/>
        <pt x="241" y="798" on="0"/>
        <pt x="255" y="838" on="1"/>
        <pt x="303" y="973" on="0"/>
        <pt x="406" y="1072" on="1"/>
        <pt x="579" y="1239" on="0"/>
        <pt x="838" y="1239" on="1"/>
        <pt x="860" y="1239" on="0"/>
        <pt x="883" y="1237" on="1"/>
        <pt x="1095" y="1221" on="0"/>
      </contour>
    </TTGlyph>
    <TTGlyph name="F" xMin="54" yMin="0" xMax="1048" yMax="1550">
      <contour>
        <pt x="316" y="1550" on="1"/>
        <pt x="316" y="1550" on="0"/>
        <pt x="955" y="1550" on="1"/>
        <pt x="975" y="1550" on="0"/>
        <pt x="993" y="1544" on="1"/>
        <pt x="1048" y="1526" on="0"/>
        <pt x="1048" y="1469" on="1"/>
        <pt x="1048" y="1453" on="0"/>
        <pt x="1041" y="1439" on="1"/>
        <pt x="1021" y="1396" on="0"/>
        <pt x="961" y="1387" on="1"/>
        <pt x="387" y="1387" on="1"/>
        <pt x="317" y="839" on="1"/>
        <pt x="733" y="839" on="1"/>
        <pt x="757" y="839" on="0"/>
        <pt x="777" y="830" on="1"/>
        <pt x="825" y="808" on="0"/>
        <pt x="825" y="756" on="1"/>
        <pt x="825" y="742" on="0"/>
        <pt x="819" y="728" on="1"/>
        <pt x="801" y="685" on="0"/>
        <pt x="739" y="675" on="1"/>
        <pt x="297" y="675" on="1"/>
        <pt x="218" y="82" on="1"/>
        <pt x="218" y="81" on="0"/>
        <pt x="217" y="78" on="1"/>
        <pt x="206" y="0" on="0"/>
        <pt x="137" y="0" on="1"/>
        <pt x="113" y="0" on="0"/>
        <pt x="93" y="12" on="1"/>
        <pt x="54" y="36" on="0"/>
        <pt x="54" y="85" on="1"/>
        <pt x="54" y="163" on="0"/>
        <pt x="192" y="1150" on="1"/>
        <pt x="230" y="1421" on="0"/>
        <pt x="237" y="1474" on="1"/>
        <pt x="238" y="1480" on="0"/>
        <pt x="239" y="1486" on="1"/>
        <pt x="253" y="1550" on="0"/>
      </contour>
    </TTGlyph>
    <TTGlyph name="G" xMin="59" yMin="0" xMax="1046" yMax="1562">
      <contour>
        <pt x="594" y="784" on="1"/>
        <pt x="594" y="784" on="0"/>
        <pt x="966" y="784" on="1"/>
        <pt x="987" y="784" on="0"/>
        <pt x="1006" y="774" on="1"/>
        <pt x="1046" y="751" on="0"/>
        <pt x="1046" y="704" on="1"/>
        <pt x="1046" y="690" on="0"/>
        <pt x="1043" y="680" on="1"/>
        <pt x="1032" y="633" on="0"/>
        <pt x="1018" y="585" on="1"/>
        <pt x="940" y="330" on="0"/>
        <pt x="785" y="164" on="1"/>
        <pt x="631" y="0" on="0"/>
        <pt x="468" y="0" on="1"/>
        <pt x="446" y="0" on="0"/>
        <pt x="423" y="3" on="1"/>
        <pt x="271" y="26" on="0"/>
        <pt x="170" y="186" on="1"/>
        <pt x="59" y="365" on="0"/>
        <pt x="59" y="634" on="1"/>
        <pt x="59" y="792" on="0"/>
        <pt x="103" y="953" on="1"/>
        <pt x="174" y="1213" on="0"/>
        <pt x="324" y="1384" on="1"/>
        <pt x="481" y="1562" on="0"/>
        <pt x="659" y="1562" on="1"/>
        <pt x="734" y="1562" on="0"/>
        <pt x="800" y="1530" on="1"/>
        <pt x="944" y="1459" on="0"/>
        <pt x="1017" y="1258" on="1"/>
        <pt x="1026" y="1240" on="0"/>
        <pt x="1026" y="1221" on="1"/>
        <pt x="1026" y="1200" on="0"/>
        <pt x="1015" y="1181" on="1"/>
        <pt x="991" y="1141" on="0"/>
        <pt x="946" y="1141" on="1"/>
        <pt x="934" y="1141" on="0"/>
        <pt x="921" y="1145" on="1"/>
        <pt x="882" y="1158" on="0"/>
        <pt x="870" y="1195" on="1"/>
        <pt x="866" y="1202" on="1"/>
        <pt x="848" y="1251" on="0"/>
        <pt x="821" y="1290" on="1"/>
        <pt x="748" y="1396" on="0"/>
        <pt x="643" y="1396" on="1"/>
        <pt x="582" y="1396" on="0"/>
        <pt x="520" y="1351" on="1"/>
        <pt x="403" y="1267" on="0"/>
        <pt x="317" y="1059" on="1"/>
        <pt x="229" y="845" on="0"/>
        <pt x="229" y="639" on="1"/>
        <pt x="229" y="441" on="0"/>
        <pt x="293" y="309" on="1"/>
        <pt x="364" y="163" on="0"/>
        <pt x="487" y="163" on="1"/>
        <pt x="570" y="164" on="0"/>
        <pt x="667" y="272" on="1"/>
        <pt x="786" y="406" on="0"/>
        <pt x="858" y="619" on="1"/>
        <pt x="601" y="619" on="0"/>
        <pt x="591" y="622" on="1"/>
        <pt x="504" y="636" on="0"/>
        <pt x="502" y="712" on="1"/>
        <pt x="504" y="727" on="0"/>
        <pt x="510" y="739" on="1"/>
        <pt x="532" y="784" on="0"/>
      </contour>
    </TTGlyph>
    <TTGlyph name="H" xMin="60" yMin="0" xMax="1285" yMax="1552">
      <contour>
        <pt x="848" y="82" on="1"/>
        <pt x="848" y="81" on="0"/>
        <pt x="847" y="78" on="1"/>
        <pt x="836" y="0" on="0"/>
        <pt x="767" y="0" on="1"/>
        <pt x="743" y="0" on="0"/>
        <pt x="725" y="12" on="1"/>
        <pt x="685" y="38" on="0"/>
        <pt x="685" y="97" on="1"/>
        <pt x="753" y="622" on="1"/>
        <pt x="294" y="622" on="1"/>
        <pt x="255" y="303" on="0"/>
        <pt x="223" y="82" on="1"/>
        <pt x="209" y="1" on="0"/>
        <pt x="141" y="0" on="1"/>
        <pt x="119" y="0" on="0"/>
        <pt x="102" y="11" on="1"/>
        <pt x="60" y="38" on="0"/>
        <pt x="60" y="98" on="1"/>
        <pt x="66" y="150" on="0"/>
        <pt x="176" y="968" on="1"/>
        <pt x="244" y="1471" on="0"/>
        <pt x="244" y="1474" on="1"/>
        <pt x="244" y="1489" on="0"/>
        <pt x="256" y="1509" on="1"/>
        <pt x="283" y="1552" on="0"/>
        <pt x="323" y="1552" on="1"/>
        <pt x="342" y="1552" on="0"/>
        <pt x="359" y="1542" on="1"/>
        <pt x="398" y="1519" on="0"/>
        <pt x="401" y="1474" on="1"/>
        <pt x="315" y="785" on="1"/>
        <pt x="476" y="787" on="0"/>
        <pt x="775" y="787" on="1"/>
        <pt x="785" y="868" on="0"/>
        <pt x="811" y="1064" on="1"/>
        <pt x="846" y="1323" on="0"/>
        <pt x="865" y="1474" on="1"/>
        <pt x="867" y="1489" on="0"/>
        <pt x="873" y="1504" on="1"/>
        <pt x="895" y="1552" on="0"/>
        <pt x="947" y="1552" on="1"/>
        <pt x="966" y="1552" on="0"/>
        <pt x="984" y="1542" on="1"/>
        <pt x="1024" y="1519" on="0"/>
        <pt x="1027" y="1474" on="1"/>
        <pt x="940" y="787" on="1"/>
        <pt x="1192" y="787" on="1"/>
        <pt x="1215" y="787" on="0"/>
        <pt x="1235" y="779" on="1"/>
        <pt x="1285" y="757" on="0"/>
        <pt x="1285" y="704" on="1"/>
        <pt x="1285" y="688" on="0"/>
        <pt x="1277" y="672" on="1"/>
        <pt x="1257" y="631" on="0"/>
        <pt x="1199" y="622" on="1"/>
        <pt x="920" y="622" on="1"/>
        <pt x="858" y="140" on="0"/>
      </contour>
    </TTGlyph>
    <TTGlyph name="I" xMin="73" yMin="-2" xMax="415" yMax="1550">
      <contour>
        <pt x="235" y="80" on="1"/>
        <pt x="220" y="-1" on="0"/>
        <pt x="155" y="-2" on="1"/>
        <pt x="131" y="-2" on="0"/>
        <pt x="112" y="11" on="1"/>
        <pt x="73" y="37" on="0"/>
        <pt x="73" y="95" on="1"/>
        <pt x="73" y="95" on="0"/>
        <pt x="255" y="1472" on="1"/>
        <pt x="257" y="1487" on="0"/>
        <pt x="262" y="1501" on="1"/>
        <pt x="283" y="1550" on="0"/>
        <pt x="335" y="1550" on="1"/>
        <pt x="355" y="1550" on="0"/>
        <pt x="373" y="1540" on="1"/>
        <pt x="413" y="1517" on="0"/>
        <pt x="415" y="1472" on="1"/>
        <pt x="244" y="129" on="0"/>
      </contour>
    </TTGlyph>
    <TTGlyph name="Iacute" xMin="73" yMin="-2" xMax="532" yMax="1954">
      <component glyphName="acute" x="-177" y="716" flags="0x1004"/>
      <component glyphName="I" x="0" y="0" flags="0x1004"/>
    </TTGlyph>
    <TTGlyph name="Icircumflex" xMin="73" yMin="-2" xMax="596" yMax="1954">
      <component glyphName="circumflex" x="-332" y="699" flags="0x1004"/>
      <component glyphName="I" x="0" y="0" flags="0x1004"/>
    </TTGlyph>
    <TTGlyph name="Idieresis" xMin="73" yMin="-2" xMax="560" yMax="1875">
      <component glyphName="dieresis" x="-49" y="705" flags="0x1004"/>
      <component glyphName="I" x="0" y="0" flags="0x1004"/>
    </TTGlyph>
    <TTGlyph name="Igrave" xMin="73" yMin="-2" xMax="527" yMax="1954">
      <component glyphName="grave" x="-182" y="716" flags="0x1004"/>
      <component glyphName="I" x="0" y="0" flags="0x1004"/>
    </TTGlyph>
    <TTGlyph name="J" xMin="-60" yMin="0" xMax="1096" yMax="1510">
      <contour>
        <pt x="1016" y="1508" on="1"/>
        <pt x="1036" y="1508" on="0"/>
        <pt x="1054" y="1497" on="1"/>
        <pt x="1093" y="1474" on="0"/>
        <pt x="1096" y="1430" on="1"/>
        <pt x="1081" y="1336" on="0"/>
        <pt x="1064" y="1106" on="1"/>
        <pt x="1055" y="975" on="0"/>
        <pt x="1049" y="908" on="1"/>
        <pt x="1014" y="534" on="0"/>
        <pt x="924" y="338" on="1"/>
        <pt x="770" y="2" on="0"/>
        <pt x="401" y="0" on="1"/>
        <pt x="309" y="0" on="0"/>
        <pt x="186" y="57" on="1"/>
        <pt x="14" y="137" on="0"/>
        <pt x="-52" y="265" on="1"/>
        <pt x="-59" y="279" on="0"/>
        <pt x="-60" y="300" on="1"/>
        <pt x="-60" y="320" on="0"/>
        <pt x="-51" y="339" on="1"/>
        <pt x="-28" y="384" on="0"/>
        <pt x="20" y="384" on="1"/>
        <pt x="55" y="383" on="0"/>
        <pt x="80" y="351" on="1"/>
        <pt x="230" y="156" on="0"/>
        <pt x="424" y="155" on="1"/>
        <pt x="498" y="155" on="0"/>
        <pt x="560" y="180" on="1"/>
        <pt x="774" y="264" on="0"/>
        <pt x="853" y="657" on="1"/>
        <pt x="886" y="821" on="0"/>
        <pt x="910" y="1161" on="1"/>
        <pt x="919" y="1288" on="0"/>
        <pt x="924" y="1343" on="1"/>
        <pt x="372" y="1343" on="1"/>
        <pt x="359" y="1345" on="0"/>
        <pt x="346" y="1349" on="1"/>
        <pt x="285" y="1371" on="0"/>
        <pt x="285" y="1425" on="1"/>
        <pt x="285" y="1447" on="0"/>
        <pt x="296" y="1466" on="1"/>
        <pt x="321" y="1508" on="0"/>
        <pt x="379" y="1508" on="1"/>
        <pt x="402" y="1510" on="0"/>
        <pt x="652" y="1510" on="1"/>
        <pt x="886" y="1510" on="0"/>
      </contour>
    </TTGlyph>
    <TTGlyph name="K" xMin="94" yMin="0" xMax="1056" yMax="1552">
      <contour>
        <pt x="257" y="82" on="1"/>
        <pt x="243" y="1" on="0"/>
        <pt x="175" y="0" on="1"/>
        <pt x="152" y="0" on="0"/>
        <pt x="133" y="13" on="1"/>
        <pt x="94" y="39" on="0"/>
        <pt x="94" y="97" on="1"/>
        <pt x="275" y="1474" on="1"/>
        <pt x="277" y="1490" on="0"/>
        <pt x="284" y="1506" on="1"/>
        <pt x="306" y="1552" on="0"/>
        <pt x="355" y="1552" on="1"/>
        <pt x="374" y="1552" on="0"/>
        <pt x="392" y="1542" on="1"/>
        <pt x="432" y="1520" on="0"/>
        <pt x="435" y="1474" on="1"/>
        <pt x="369" y="937" on="1"/>
        <pt x="862" y="1489" on="0"/>
        <pt x="887" y="1510" on="1"/>
        <pt x="922" y="1545" on="0"/>
        <pt x="955" y="1545" on="1"/>
        <pt x="977" y="1545" on="0"/>
        <pt x="996" y="1533" on="1"/>
        <pt x="1034" y="1510" on="0"/>
        <pt x="1034" y="1467" on="1"/>
        <pt x="1034" y="1437" on="0"/>
        <pt x="1012" y="1404" on="1"/>
        <pt x="985" y="1369" on="0"/>
        <pt x="394" y="719" on="1"/>
        <pt x="459" y="661" on="0"/>
        <pt x="540" y="587" on="1"/>
        <pt x="960" y="208" on="0"/>
        <pt x="1018" y="150" on="1"/>
        <pt x="1055" y="112" on="0"/>
        <pt x="1056" y="80" on="1"/>
        <pt x="1056" y="57" on="0"/>
        <pt x="1042" y="37" on="1"/>
        <pt x="1018" y="0" on="0"/>
        <pt x="978" y="0" on="1"/>
        <pt x="943" y="0" on="0"/>
        <pt x="913" y="22" on="1"/>
        <pt x="879" y="46" on="0"/>
        <pt x="321" y="561" on="1"/>
        <pt x="274" y="187" on="0"/>
      </contour>
    </TTGlyph>
    <TTGlyph name="L" xMin="53" yMin="0" xMax="894" yMax="1552">
      <contour>
        <pt x="807" y="0" on="1"/>
        <pt x="807" y="0" on="0"/>
        <pt x="135" y="0" on="1"/>
        <pt x="112" y="0" on="0"/>
        <pt x="92" y="13" on="1"/>
        <pt x="63" y="34" on="0"/>
        <pt x="54" y="97" on="1"/>
        <pt x="54" y="97" on="0"/>
        <pt x="54" y="98" on="1"/>
        <pt x="54" y="139" on="0"/>
        <pt x="236" y="1474" on="1"/>
        <pt x="238" y="1489" on="0"/>
        <pt x="244" y="1503" on="1"/>
        <pt x="265" y="1552" on="0"/>
        <pt x="316" y="1552" on="1"/>
        <pt x="336" y="1552" on="0"/>
        <pt x="353" y="1543" on="1"/>
        <pt x="395" y="1521" on="0"/>
        <pt x="395" y="1472" on="1"/>
        <pt x="386" y="1381" on="0"/>
        <pt x="349" y="1095" on="1"/>
        <pt x="234" y="214" on="0"/>
        <pt x="229" y="165" on="1"/>
        <pt x="800" y="165" on="1"/>
        <pt x="823" y="165" on="0"/>
        <pt x="843" y="157" on="1"/>
        <pt x="894" y="136" on="0"/>
        <pt x="894" y="82" on="1"/>
        <pt x="894" y="69" on="0"/>
        <pt x="890" y="56" on="1"/>
        <pt x="873" y="10" on="0"/>
      </contour>
    </TTGlyph>
    <TTGlyph name="M" xMin="66" yMin="0" xMax="1338" yMax="1547">
      <contour>
        <pt x="1159" y="82" on="1"/>
        <pt x="1159" y="81" on="0"/>
        <pt x="1158" y="78" on="1"/>
        <pt x="1147" y="0" on="0"/>
        <pt x="1078" y="0" on="1"/>
        <pt x="1054" y="0" on="0"/>
        <pt x="1036" y="12" on="1"/>
        <pt x="996" y="38" on="0"/>
        <pt x="996" y="97" on="1"/>
        <pt x="996" y="114" on="0"/>
        <pt x="1090" y="918" on="1"/>
        <pt x="852" y="417" on="0"/>
        <pt x="716" y="127" on="1"/>
        <pt x="687" y="65" on="0"/>
        <pt x="683" y="58" on="1"/>
        <pt x="653" y="1" on="0"/>
        <pt x="603" y="0" on="1"/>
        <pt x="593" y="0" on="0"/>
        <pt x="584" y="2" on="1"/>
        <pt x="542" y="10" on="0"/>
        <pt x="520" y="71" on="1"/>
        <pt x="347" y="920" on="1"/>
        <pt x="289" y="462" on="0"/>
        <pt x="229" y="82" on="1"/>
        <pt x="229" y="81" on="0"/>
        <pt x="228" y="78" on="1"/>
        <pt x="217" y="0" on="0"/>
        <pt x="148" y="0" on="1"/>
        <pt x="124" y="0" on="0"/>
        <pt x="106" y="12" on="1"/>
        <pt x="66" y="38" on="0"/>
        <pt x="66" y="97" on="1"/>
        <pt x="66" y="107" on="0"/>
        <pt x="208" y="1176" on="1"/>
        <pt x="245" y="1452" on="0"/>
        <pt x="248" y="1474" on="1"/>
        <pt x="251" y="1492" on="0"/>
        <pt x="260" y="1507" on="1"/>
        <pt x="285" y="1547" on="0"/>
        <pt x="333" y="1547" on="1"/>
        <pt x="344" y="1547" on="0"/>
        <pt x="356" y="1544" on="1"/>
        <pt x="399" y="1532" on="0"/>
        <pt x="405" y="1499" on="1"/>
        <pt x="425" y="1387" on="0"/>
        <pt x="534" y="847" on="1"/>
        <pt x="612" y="456" on="0"/>
        <pt x="634" y="342" on="1"/>
        <pt x="1175" y="1489" on="1"/>
        <pt x="1179" y="1499" on="0"/>
        <pt x="1186" y="1510" on="1"/>
        <pt x="1215" y="1547" on="0"/>
        <pt x="1258" y="1547" on="1"/>
        <pt x="1277" y="1547" on="0"/>
        <pt x="1294" y="1537" on="1"/>
        <pt x="1334" y="1515" on="0"/>
        <pt x="1338" y="1469" on="1"/>
        <pt x="1334" y="1440" on="0"/>
        <pt x="1330" y="1402" on="1"/>
        <pt x="1183" y="229" on="0"/>
      </contour>
    </TTGlyph>
    <TTGlyph name="N" xMin="42" yMin="0" xMax="1202" yMax="1549">
      <contour>
        <pt x="1023" y="78" on="1"/>
        <pt x="1012" y="1" on="0"/>
        <pt x="942" y="0" on="1"/>
        <pt x="890" y="1" on="0"/>
        <pt x="855" y="59" on="1"/>
        <pt x="348" y="1215" on="1"/>
        <pt x="339" y="1133" on="0"/>
        <pt x="326" y="1031" on="1"/>
        <pt x="226" y="199" on="0"/>
        <pt x="206" y="82" on="1"/>
        <pt x="192" y="1" on="0"/>
        <pt x="124" y="0" on="1"/>
        <pt x="101" y="0" on="0"/>
        <pt x="81" y="13" on="1"/>
        <pt x="42" y="39" on="0"/>
        <pt x="42" y="97" on="1"/>
        <pt x="223" y="1470" on="0"/>
        <pt x="224" y="1474" on="1"/>
        <pt x="227" y="1491" on="0"/>
        <pt x="235" y="1506" on="1"/>
        <pt x="260" y="1547" on="0"/>
        <pt x="309" y="1547" on="1"/>
        <pt x="374" y="1547" on="0"/>
        <pt x="393" y="1508" on="1"/>
        <pt x="897" y="377" on="1"/>
        <pt x="1044" y="1470" on="1"/>
        <pt x="1045" y="1488" on="0"/>
        <pt x="1053" y="1505" on="1"/>
        <pt x="1074" y="1549" on="0"/>
        <pt x="1122" y="1549" on="1"/>
        <pt x="1143" y="1549" on="0"/>
        <pt x="1163" y="1538" on="1"/>
        <pt x="1202" y="1514" on="0"/>
        <pt x="1202" y="1469" on="1"/>
        <pt x="1198" y="1435" on="0"/>
        <pt x="1193" y="1396" on="1"/>
        <pt x="1046" y="211" on="0"/>
      </contour>
    </TTGlyph>
    <TTGlyph name="Ntilde" xMin="42" yMin="0" xMax="1202" yMax="1952">
      <component glyphName="tilde" x="107" y="680" flags="0x1004"/>
      <component glyphName="N" x="0" y="0" flags="0x1004"/>
    </TTGlyph>
    <TTGlyph name="O" xMin="33" yMin="0" xMax="1337" yMax="1562">
      <contour>
        <pt x="33" y="634" on="1"/>
        <pt x="33" y="797" on="0"/>
        <pt x="80" y="963" on="1"/>
        <pt x="153" y="1220" on="0"/>
        <pt x="304" y="1388" on="1"/>
        <pt x="460" y="1562" on="0"/>
        <pt x="633" y="1562" on="1"/>
        <pt x="795" y="1561" on="0"/>
        <pt x="908" y="1414" on="1"/>
        <pt x="1028" y="1257" on="0"/>
        <pt x="1044" y="998" on="1"/>
        <pt x="1077" y="1010" on="0"/>
        <pt x="1141" y="1040" on="1"/>
        <pt x="1222" y="1079" on="0"/>
        <pt x="1264" y="1079" on="1"/>
        <pt x="1283" y="1079" on="0"/>
        <pt x="1300" y="1069" on="1"/>
        <pt x="1337" y="1047" on="0"/>
        <pt x="1337" y="1005" on="1"/>
        <pt x="1336" y="967" on="0"/>
        <pt x="1302" y="932" on="1"/>
        <pt x="1228" y="859" on="0"/>
        <pt x="1041" y="824" on="1"/>
        <pt x="1032" y="714" on="0"/>
        <pt x="1003" y="607" on="1"/>
        <pt x="933" y="342" on="0"/>
        <pt x="779" y="172" on="1"/>
        <pt x="623" y="0" on="0"/>
        <pt x="444" y="0" on="1"/>
        <pt x="422" y="0" on="0"/>
        <pt x="400" y="3" on="1"/>
        <pt x="246" y="25" on="0"/>
        <pt x="145" y="186" on="1"/>
        <pt x="33" y="365" on="0"/>
      </contour>
      <contour>
        <pt x="203" y="661" on="1"/>
        <pt x="203" y="479" on="0"/>
        <pt x="255" y="344" on="1"/>
        <pt x="325" y="163" on="0"/>
        <pt x="461" y="163" on="1"/>
        <pt x="495" y="163" on="0"/>
        <pt x="532" y="180" on="1"/>
        <pt x="641" y="230" on="0"/>
        <pt x="737" y="401" on="1"/>
        <pt x="846" y="592" on="0"/>
        <pt x="873" y="809" on="1"/>
        <pt x="724" y="811" on="0"/>
        <pt x="602" y="892" on="1"/>
        <pt x="440" y="1000" on="0"/>
        <pt x="371" y="1212" on="1"/>
        <pt x="207" y="967" on="0"/>
      </contour>
      <contour>
        <pt x="664" y="1374" on="1"/>
        <pt x="638" y="1374" on="0"/>
        <pt x="617" y="1363" on="1"/>
        <pt x="562" y="1332" on="0"/>
        <pt x="562" y="1241" on="1"/>
        <pt x="562" y="1225" on="0"/>
        <pt x="565" y="1207" on="1"/>
        <pt x="583" y="1099" on="0"/>
        <pt x="703" y="1026" on="1"/>
        <pt x="795" y="971" on="0"/>
        <pt x="878" y="969" on="1"/>
        <pt x="872" y="1054" on="0"/>
        <pt x="854" y="1128" on="1"/>
        <pt x="799" y="1365" on="0"/>
      </contour>
    </TTGlyph>
    <TTGlyph name="Oacute" xMin="33" yMin="0" xMax="1337" yMax="1952">
      <component glyphName="acute" x="178" y="714" flags="0x1004"/>
      <component glyphName="O" x="0" y="0" flags="0x1004"/>
    </TTGlyph>
    <TTGlyph name="Ocircumflex" xMin="33" yMin="0" xMax="1337" yMax="1952">
      <component glyphName="circumflex" x="64" y="697" flags="0x1004"/>
      <component glyphName="O" x="0" y="0" flags="0x1004"/>
    </TTGlyph>
    <TTGlyph name="Odieresis" xMin="33" yMin="0" xMax="1337" yMax="1886">
      <component glyphName="dieresis" x="338" y="716" flags="0x1004"/>
      <component glyphName="O" x="0" y="0" flags="0x1004"/>
    </TTGlyph>
    <TTGlyph name="Ograve" xMin="33" yMin="0" xMax="1337" yMax="1954">
      <component glyphName="grave" x="222" y="716" flags="0x1004"/>
      <component glyphName="O" x="0" y="0" flags="0x1004"/>
    </TTGlyph>
    <TTGlyph name="Oslash" xMin="71" yMin="-85" xMax="1084" yMax="1649">
      <contour>
        <pt x="71" y="634" on="1"/>
        <pt x="71" y="797" on="0"/>
        <pt x="118" y="963" on="1"/>
        <pt x="191" y="1220" on="0"/>
        <pt x="342" y="1388" on="1"/>
        <pt x="498" y="1562" on="0"/>
        <pt x="671" y="1562" on="1"/>
        <pt x="786" y="1562" on="0"/>
        <pt x="878" y="1486" on="1"/>
        <pt x="941" y="1603" on="1"/>
        <pt x="965" y="1647" on="0"/>
        <pt x="1008" y="1649" on="1"/>
        <pt x="1026" y="1649" on="0"/>
        <pt x="1042" y="1641" on="1"/>
        <pt x="1082" y="1620" on="0"/>
        <pt x="1082" y="1576" on="1"/>
        <pt x="1082" y="1556" on="0"/>
        <pt x="1071" y="1532" on="1"/>
        <pt x="980" y="1365" on="1"/>
        <pt x="1084" y="1191" on="0"/>
        <pt x="1084" y="932" on="1"/>
        <pt x="1084" y="770" on="0"/>
        <pt x="1042" y="609" on="1"/>
        <pt x="972" y="343" on="0"/>
        <pt x="818" y="173" on="1"/>
        <pt x="662" y="0" on="0"/>
        <pt x="482" y="0" on="1"/>
        <pt x="371" y="0" on="0"/>
        <pt x="285" y="70" on="1"/>
        <pt x="233" y="-26" on="0"/>
        <pt x="229" y="-36" on="1"/>
        <pt x="200" y="-84" on="0"/>
        <pt x="161" y="-85" on="1"/>
        <pt x="145" y="-85" on="0"/>
        <pt x="128" y="-78" on="1"/>
        <pt x="86" y="-58" on="0"/>
        <pt x="86" y="-15" on="1"/>
        <pt x="86" y="8" on="0"/>
        <pt x="100" y="32" on="1"/>
        <pt x="102" y="38" on="1"/>
        <pt x="105" y="43" on="0"/>
        <pt x="115" y="62" on="0"/>
        <pt x="129" y="89" on="0"/>
        <pt x="147" y="124" on="0"/>
        <pt x="169" y="164" on="0"/>
        <pt x="181" y="187" on="1"/>
        <pt x="180" y="189" on="0"/>
        <pt x="178" y="192" on="1"/>
        <pt x="71" y="370" on="0"/>
      </contour>
      <contour>
        <pt x="248" y="779" on="1"/>
        <pt x="239" y="708" on="0"/>
        <pt x="239" y="651" on="1"/>
        <pt x="239" y="498" on="0"/>
        <pt x="282" y="374" on="1"/>
        <pt x="795" y="1331" on="1"/>
        <pt x="733" y="1395" on="0"/>
        <pt x="656" y="1396" on="1"/>
        <pt x="626" y="1396" on="0"/>
        <pt x="594" y="1383" on="1"/>
        <pt x="488" y="1341" on="0"/>
        <pt x="392" y="1187" on="1"/>
        <pt x="277" y="1003" on="0"/>
      </contour>
      <contour>
        <pt x="367" y="223" on="1"/>
        <pt x="422" y="164" on="0"/>
        <pt x="499" y="163" on="1"/>
        <pt x="557" y="163" on="0"/>
        <pt x="620" y="210" on="1"/>
        <pt x="733" y="295" on="0"/>
        <pt x="820" y="490" on="1"/>
        <pt x="918" y="709" on="0"/>
        <pt x="918" y="918" on="1"/>
        <pt x="918" y="1059" on="0"/>
        <pt x="880" y="1178" on="1"/>
      </contour>
    </TTGlyph>
    <TTGlyph name="Otilde" xMin="33" yMin="0" xMax="1337" yMax="1954">
      <component glyphName="tilde" x="102" y="682" flags="0x1004"/>
      <component glyphName="O" x="0" y="0" flags="0x1004"/>
    </TTGlyph>
    <TTGlyph name="P" xMin="56" yMin="0" xMax="935" yMax="1571">
      <contour>
        <pt x="935" y="1255" on="1"/>
        <pt x="934" y="1017" on="0"/>
        <pt x="752" y="851" on="1"/>
        <pt x="580" y="695" on="0"/>
        <pt x="292" y="634" on="1"/>
        <pt x="219" y="82" on="1"/>
        <pt x="218" y="76" on="0"/>
        <pt x="217" y="70" on="1"/>
        <pt x="202" y="0" on="0"/>
        <pt x="138" y="0" on="1"/>
        <pt x="114" y="0" on="0"/>
        <pt x="96" y="12" on="1"/>
        <pt x="56" y="38" on="0"/>
        <pt x="56" y="97" on="1"/>
        <pt x="56" y="104" on="0"/>
        <pt x="238" y="1474" on="1"/>
        <pt x="240" y="1491" on="0"/>
        <pt x="248" y="1507" on="1"/>
        <pt x="273" y="1554" on="0"/>
        <pt x="326" y="1554" on="1"/>
        <pt x="418" y="1571" on="0"/>
        <pt x="523" y="1571" on="1"/>
        <pt x="632" y="1571" on="0"/>
        <pt x="718" y="1544" on="1"/>
        <pt x="935" y="1475" on="0"/>
      </contour>
      <contour>
        <pt x="785" y="1246" on="1"/>
        <pt x="785" y="1251" on="0"/>
        <pt x="785" y="1257" on="1"/>
        <pt x="776" y="1421" on="0"/>
        <pt x="527" y="1421" on="1"/>
        <pt x="459" y="1421" on="0"/>
        <pt x="389" y="1411" on="1"/>
        <pt x="383" y="1354" on="0"/>
        <pt x="314" y="814" on="1"/>
        <pt x="454" y="835" on="0"/>
        <pt x="578" y="911" on="1"/>
        <pt x="785" y="1038" on="0"/>
      </contour>
    </TTGlyph>
    <TTGlyph name="Q" xMin="44" yMin="-219" xMax="1122" yMax="1564">
      <contour>
        <pt x="1042" y="20" on="1"/>
        <pt x="1058" y="20" on="0"/>
        <pt x="1072" y="15" on="1"/>
        <pt x="1122" y="-3" on="0"/>
        <pt x="1122" y="-63" on="1"/>
        <pt x="1121" y="-133" on="0"/>
        <pt x="1026" y="-181" on="1"/>
        <pt x="949" y="-219" on="0"/>
        <pt x="877" y="-219" on="1"/>
        <pt x="792" y="-219" on="0"/>
        <pt x="720" y="-168" on="1"/>
        <pt x="623" y="-99" on="0"/>
        <pt x="590" y="27" on="1"/>
        <pt x="526" y="2" on="0"/>
        <pt x="456" y="2" on="1"/>
        <pt x="435" y="2" on="0"/>
        <pt x="415" y="5" on="1"/>
        <pt x="258" y="25" on="0"/>
        <pt x="156" y="187" on="1"/>
        <pt x="44" y="365" on="0"/>
        <pt x="44" y="636" on="1"/>
        <pt x="44" y="798" on="0"/>
        <pt x="91" y="964" on="1"/>
        <pt x="164" y="1221" on="0"/>
        <pt x="315" y="1390" on="1"/>
        <pt x="471" y="1564" on="0"/>
        <pt x="644" y="1564" on="1"/>
        <pt x="664" y="1564" on="0"/>
        <pt x="685" y="1561" on="1"/>
        <pt x="843" y="1541" on="0"/>
        <pt x="945" y="1379" on="1"/>
        <pt x="1057" y="1202" on="0"/>
        <pt x="1057" y="933" on="1"/>
        <pt x="1057" y="731" on="0"/>
        <pt x="993" y="537" on="1"/>
        <pt x="909" y="281" on="0"/>
        <pt x="750" y="133" on="1"/>
        <pt x="753" y="101" on="0"/>
        <pt x="758" y="76" on="1"/>
        <pt x="781" y="-48" on="0"/>
        <pt x="872" y="-48" on="1"/>
        <pt x="905" y="-47" on="0"/>
        <pt x="961" y="-13" on="1"/>
        <pt x="1011" y="20" on="0"/>
      </contour>
      <contour>
        <pt x="211" y="679" on="1"/>
        <pt x="213" y="521" on="0"/>
        <pt x="245" y="408" on="1"/>
        <pt x="259" y="420" on="0"/>
        <pt x="277" y="431" on="1"/>
        <pt x="359" y="481" on="0"/>
        <pt x="452" y="481" on="1"/>
        <pt x="486" y="481" on="0"/>
        <pt x="520" y="474" on="1"/>
        <pt x="644" y="446" on="0"/>
        <pt x="705" y="333" on="1"/>
        <pt x="752" y="401" on="0"/>
        <pt x="791" y="487" on="1"/>
        <pt x="891" y="708" on="0"/>
        <pt x="891" y="920" on="1"/>
        <pt x="891" y="1121" on="0"/>
        <pt x="823" y="1255" on="1"/>
        <pt x="750" y="1397" on="0"/>
        <pt x="629" y="1397" on="1"/>
        <pt x="573" y="1397" on="0"/>
        <pt x="511" y="1352" on="1"/>
        <pt x="399" y="1270" on="0"/>
        <pt x="312" y="1088" on="1"/>
        <pt x="211" y="877" on="0"/>
      </contour>
      <contour>
        <pt x="473" y="165" on="1"/>
        <pt x="519" y="165" on="0"/>
        <pt x="571" y="197" on="1"/>
        <pt x="552" y="302" on="0"/>
        <pt x="456" y="304" on="1"/>
        <pt x="449" y="304" on="0"/>
        <pt x="440" y="303" on="1"/>
        <pt x="379" y="294" on="0"/>
        <pt x="320" y="248" on="1"/>
        <pt x="383" y="166" on="0"/>
      </contour>
    </TTGlyph>
    <TTGlyph name="Q.alt" xMin="221" yMin="-350" xMax="1234" yMax="1562">
      <contour>
        <pt x="221" y="634" on="1"/>
        <pt x="221" y="797" on="0"/>
        <pt x="268" y="963" on="1"/>
        <pt x="341" y="1220" on="0"/>
        <pt x="492" y="1388" on="1"/>
        <pt x="648" y="1562" on="0"/>
        <pt x="821" y="1562" on="1"/>
        <pt x="841" y="1562" on="0"/>
        <pt x="862" y="1559" on="1"/>
        <pt x="1019" y="1539" on="0"/>
        <pt x="1121" y="1378" on="1"/>
        <pt x="1234" y="1201" on="0"/>
        <pt x="1234" y="932" on="1"/>
        <pt x="1234" y="789" on="0"/>
        <pt x="1201" y="646" on="1"/>
        <pt x="1138" y="374" on="0"/>
        <pt x="986" y="192" on="1"/>
        <pt x="1127" y="-191" on="0"/>
        <pt x="1139" y="-230" on="1"/>
        <pt x="1147" y="-256" on="0"/>
        <pt x="1147" y="-272" on="1"/>
        <pt x="1147" y="-294" on="0"/>
        <pt x="1134" y="-314" on="1"/>
        <pt x="1110" y="-350" on="0"/>
        <pt x="1068" y="-350" on="1"/>
        <pt x="1058" y="-350" on="0"/>
        <pt x="1049" y="-348" on="1"/>
        <pt x="1006" y="-336" on="0"/>
        <pt x="989" y="-292" on="1"/>
        <pt x="855" y="73" on="1"/>
        <pt x="742" y="1" on="0"/>
        <pt x="632" y="0" on="1"/>
        <pt x="610" y="0" on="0"/>
        <pt x="588" y="3" on="1"/>
        <pt x="434" y="25" on="0"/>
        <pt x="333" y="186" on="1"/>
        <pt x="221" y="365" on="0"/>
      </contour>
      <contour>
        <pt x="398" y="779" on="1"/>
        <pt x="389" y="708" on="0"/>
        <pt x="389" y="651" on="1"/>
        <pt x="389" y="462" on="0"/>
        <pt x="451" y="324" on="1"/>
        <pt x="524" y="165" on="0"/>
        <pt x="649" y="165" on="1"/>
        <pt x="715" y="166" on="0"/>
        <pt x="796" y="236" on="1"/>
        <pt x="728" y="423" on="1"/>
        <pt x="722" y="436" on="0"/>
        <pt x="722" y="456" on="1"/>
        <pt x="722" y="479" on="0"/>
        <pt x="734" y="500" on="1"/>
        <pt x="758" y="541" on="0"/>
        <pt x="801" y="541" on="1"/>
        <pt x="808" y="541" on="0"/>
        <pt x="816" y="539" on="1"/>
        <pt x="852" y="531" on="0"/>
        <pt x="870" y="498" on="1"/>
        <pt x="916" y="381" on="1"/>
        <pt x="936" y="415" on="0"/>
        <pt x="954" y="452" on="1"/>
        <pt x="1068" y="686" on="0"/>
        <pt x="1068" y="918" on="1"/>
        <pt x="1068" y="1119" on="0"/>
        <pt x="1000" y="1253" on="1"/>
        <pt x="927" y="1396" on="0"/>
        <pt x="806" y="1396" on="1"/>
        <pt x="776" y="1396" on="0"/>
        <pt x="744" y="1383" on="1"/>
        <pt x="638" y="1341" on="0"/>
        <pt x="542" y="1187" on="1"/>
        <pt x="427" y="1003" on="0"/>
      </contour>
    </TTGlyph>
    <TTGlyph name="R" xMin="87" yMin="0" xMax="1045" yMax="1559">
      <contour>
        <pt x="250" y="82" on="1"/>
        <pt x="236" y="1" on="0"/>
        <pt x="168" y="0" on="1"/>
        <pt x="145" y="0" on="0"/>
        <pt x="127" y="12" on="1"/>
        <pt x="87" y="38" on="0"/>
        <pt x="87" y="97" on="1"/>
        <pt x="132" y="473" on="0"/>
        <pt x="268" y="1474" on="1"/>
        <pt x="271" y="1494" on="0"/>
        <pt x="289" y="1511" on="1"/>
        <pt x="323" y="1542" on="0"/>
        <pt x="372" y="1542" on="1"/>
        <pt x="461" y="1559" on="0"/>
        <pt x="568" y="1559" on="1"/>
        <pt x="644" y="1559" on="0"/>
        <pt x="708" y="1548" on="1"/>
        <pt x="989" y="1497" on="0"/>
        <pt x="989" y="1238" on="1"/>
        <pt x="989" y="1137" on="0"/>
        <pt x="956" y="1049" on="1"/>
        <pt x="855" y="778" on="0"/>
        <pt x="459" y="654" on="1"/>
        <pt x="1011" y="150" on="1"/>
        <pt x="1044" y="115" on="0"/>
        <pt x="1045" y="78" on="1"/>
        <pt x="1045" y="58" on="0"/>
        <pt x="1034" y="38" on="1"/>
        <pt x="1010" y="0" on="0"/>
        <pt x="969" y="0" on="1"/>
        <pt x="937" y="0" on="0"/>
        <pt x="904" y="22" on="1"/>
        <pt x="881" y="38" on="0"/>
        <pt x="313" y="561" on="1"/>
        <pt x="263" y="163" on="0"/>
      </contour>
      <contour>
        <pt x="420" y="1396" on="1"/>
        <pt x="420" y="1396" on="0"/>
        <pt x="343" y="797" on="1"/>
        <pt x="485" y="818" on="0"/>
        <pt x="611" y="890" on="1"/>
        <pt x="830" y="1018" on="0"/>
        <pt x="830" y="1234" on="1"/>
        <pt x="829" y="1407" on="0"/>
        <pt x="568" y="1409" on="1"/>
        <pt x="548" y="1409" on="0"/>
      </contour>
    </TTGlyph>
    <TTGlyph name="S" xMin="-18" yMin="-14" xMax="920" yMax="1552">
      <contour>
        <pt x="-13" y="277" on="1"/>
        <pt x="-18" y="292" on="0"/>
        <pt x="-18" y="313" on="1"/>
        <pt x="-18" y="331" on="0"/>
        <pt x="-11" y="347" on="1"/>
        <pt x="7" y="386" on="0"/>
        <pt x="48" y="386" on="1"/>
        <pt x="86" y="385" on="0"/>
        <pt x="121" y="342" on="1"/>
        <pt x="132" y="328" on="0"/>
        <pt x="142" y="316" on="1"/>
        <pt x="282" y="144" on="0"/>
        <pt x="410" y="144" on="1"/>
        <pt x="536" y="144" on="0"/>
        <pt x="626" y="235" on="1"/>
        <pt x="714" y="325" on="0"/>
        <pt x="714" y="449" on="1"/>
        <pt x="713" y="556" on="0"/>
        <pt x="658" y="631" on="1"/>
        <pt x="614" y="692" on="0"/>
        <pt x="502" y="757" on="1"/>
        <pt x="384" y="826" on="0"/>
        <pt x="361" y="842" on="1"/>
        <pt x="309" y="878" on="0"/>
        <pt x="273" y="916" on="1"/>
        <pt x="182" y="1012" on="0"/>
        <pt x="182" y="1153" on="1"/>
        <pt x="182" y="1171" on="0"/>
        <pt x="184" y="1191" on="1"/>
        <pt x="198" y="1343" on="0"/>
        <pt x="309" y="1447" on="1"/>
        <pt x="423" y="1552" on="0"/>
        <pt x="577" y="1552" on="1"/>
        <pt x="643" y="1552" on="0"/>
        <pt x="706" y="1531" on="1"/>
        <pt x="837" y="1486" on="0"/>
        <pt x="908" y="1375" on="1"/>
        <pt x="920" y="1345" on="0"/>
        <pt x="920" y="1331" on="1"/>
        <pt x="920" y="1313" on="0"/>
        <pt x="910" y="1295" on="1"/>
        <pt x="888" y="1258" on="0"/>
        <pt x="847" y="1258" on="1"/>
        <pt x="811" y="1258" on="0"/>
        <pt x="796" y="1277" on="1"/>
        <pt x="694" y="1400" on="0"/>
        <pt x="577" y="1401" on="1"/>
        <pt x="485" y="1401" on="0"/>
        <pt x="414" y="1334" on="1"/>
        <pt x="335" y="1259" on="0"/>
        <pt x="335" y="1151" on="1"/>
        <pt x="335" y="1084" on="0"/>
        <pt x="376" y="1031" on="1"/>
        <pt x="413" y="983" on="0"/>
        <pt x="521" y="918" on="1"/>
        <pt x="639" y="848" on="0"/>
        <pt x="697" y="801" on="1"/>
        <pt x="883" y="651" on="0"/>
        <pt x="883" y="449" on="1"/>
        <pt x="883" y="404" on="0"/>
        <pt x="874" y="359" on="1"/>
        <pt x="841" y="200" on="0"/>
        <pt x="709" y="94" on="1"/>
        <pt x="575" y="-14" on="0"/>
        <pt x="410" y="-14" on="1"/>
        <pt x="303" y="-14" on="0"/>
        <pt x="203" y="42" on="1"/>
        <pt x="65" y="121" on="0"/>
      </contour>
    </TTGlyph>
    <TTGlyph name="T" xMin="49" yMin="0" xMax="1277" yMax="1549">
      <contour>
        <pt x="1277" y="1467" on="1"/>
        <pt x="1277" y="1446" on="0"/>
        <pt x="1265" y="1428" on="1"/>
        <pt x="1240" y="1391" on="0"/>
        <pt x="1190" y="1391" on="1"/>
        <pt x="733" y="1391" on="1"/>
        <pt x="573" y="129" on="0"/>
        <pt x="564" y="82" on="1"/>
        <pt x="563" y="76" on="0"/>
        <pt x="562" y="70" on="1"/>
        <pt x="546" y="0" on="0"/>
        <pt x="481" y="0" on="1"/>
        <pt x="457" y="0" on="0"/>
        <pt x="439" y="13" on="1"/>
        <pt x="401" y="39" on="0"/>
        <pt x="401" y="97" on="1"/>
        <pt x="401" y="109" on="0"/>
        <pt x="522" y="1009" on="1"/>
        <pt x="563" y="1312" on="0"/>
        <pt x="573" y="1391" on="1"/>
        <pt x="146" y="1391" on="1"/>
        <pt x="123" y="1391" on="0"/>
        <pt x="102" y="1398" on="1"/>
        <pt x="49" y="1416" on="0"/>
        <pt x="49" y="1464" on="1"/>
        <pt x="49" y="1488" on="0"/>
        <pt x="61" y="1509" on="1"/>
        <pt x="85" y="1549" on="0"/>
        <pt x="136" y="1549" on="1"/>
        <pt x="1192" y="1549" on="1"/>
        <pt x="1206" y="1549" on="0"/>
        <pt x="1222" y="1543" on="1"/>
        <pt x="1277" y="1522" on="0"/>
      </contour>
    </TTGlyph>
    <TTGlyph name="Thorn" xMin="167" yMin="2" xMax="1036" yMax="1547">
      <contour>
        <pt x="351" y="92" on="1"/>
        <pt x="351" y="90" on="0"/>
        <pt x="350" y="87" on="1"/>
        <pt x="335" y="2" on="0"/>
        <pt x="259" y="2" on="1"/>
        <pt x="231" y="2" on="0"/>
        <pt x="209" y="17" on="1"/>
        <pt x="167" y="47" on="0"/>
        <pt x="167" y="109" on="1"/>
        <pt x="167" y="121" on="0"/>
        <pt x="345" y="1460" on="1"/>
        <pt x="347" y="1482" on="0"/>
        <pt x="358" y="1502" on="1"/>
        <pt x="384" y="1547" on="0"/>
        <pt x="436" y="1547" on="1"/>
        <pt x="461" y="1547" on="0"/>
        <pt x="484" y="1533" on="1"/>
        <pt x="526" y="1506" on="0"/>
        <pt x="526" y="1457" on="1"/>
        <pt x="495" y="1214" on="1"/>
        <pt x="604" y="1221" on="0"/>
        <pt x="611" y="1221" on="1"/>
        <pt x="699" y="1221" on="0"/>
        <pt x="771" y="1205" on="1"/>
        <pt x="1036" y="1148" on="0"/>
        <pt x="1036" y="892" on="1"/>
        <pt x="1036" y="670" on="0"/>
        <pt x="884" y="516" on="1"/>
        <pt x="712" y="342" on="0"/>
        <pt x="376" y="277" on="1"/>
        <pt x="368" y="221" on="0"/>
        <pt x="358" y="140" on="1"/>
        <pt x="352" y="99" on="0"/>
      </contour>
      <contour>
        <pt x="402" y="476" on="1"/>
        <pt x="403" y="476" on="0"/>
        <pt x="405" y="476" on="1"/>
        <pt x="535" y="494" on="0"/>
        <pt x="652" y="564" on="1"/>
        <pt x="855" y="684" on="0"/>
        <pt x="855" y="889" on="1"/>
        <pt x="854" y="1047" on="0"/>
        <pt x="611" y="1049" on="1"/>
        <pt x="555" y="1049" on="0"/>
        <pt x="473" y="1039" on="1"/>
      </contour>
    </TTGlyph>
    <TTGlyph name="U" xMin="105" yMin="0" xMax="1190" yMax="1544">
      <contour>
        <pt x="1013" y="82" on="1"/>
        <pt x="1013" y="81" on="0"/>
        <pt x="1013" y="79" on="1"/>
        <pt x="1001" y="0" on="0"/>
        <pt x="931" y="0" on="1"/>
        <pt x="908" y="0" on="0"/>
        <pt x="890" y="12" on="1"/>
        <pt x="850" y="38" on="0"/>
        <pt x="850" y="97" on="1"/>
        <pt x="850" y="109" on="0"/>
        <pt x="858" y="184" on="1"/>
        <pt x="818" y="122" on="0"/>
        <pt x="756" y="77" on="1"/>
        <pt x="647" y="0" on="0"/>
        <pt x="517" y="0" on="1"/>
        <pt x="495" y="0" on="0"/>
        <pt x="472" y="3" on="1"/>
        <pt x="318" y="25" on="0"/>
        <pt x="217" y="186" on="1"/>
        <pt x="105" y="365" on="0"/>
        <pt x="105" y="634" on="1"/>
        <pt x="105" y="893" on="0"/>
        <pt x="201" y="1429" on="1"/>
        <pt x="206" y="1458" on="0"/>
        <pt x="207" y="1465" on="1"/>
        <pt x="210" y="1479" on="0"/>
        <pt x="215" y="1493" on="1"/>
        <pt x="237" y="1544" on="0"/>
        <pt x="285" y="1544" on="1"/>
        <pt x="304" y="1544" on="0"/>
        <pt x="322" y="1534" on="1"/>
        <pt x="362" y="1512" on="0"/>
        <pt x="365" y="1465" on="1"/>
        <pt x="361" y="1442" on="0"/>
        <pt x="356" y="1410" on="1"/>
        <pt x="275" y="902" on="0"/>
        <pt x="275" y="692" on="1"/>
        <pt x="275" y="468" on="0"/>
        <pt x="335" y="327" on="1"/>
        <pt x="404" y="163" on="0"/>
        <pt x="534" y="163" on="1"/>
        <pt x="546" y="163" on="0"/>
        <pt x="559" y="165" on="1"/>
        <pt x="657" y="184" on="0"/>
        <pt x="761" y="326" on="1"/>
        <pt x="879" y="487" on="0"/>
        <pt x="928" y="699" on="1"/>
        <pt x="1030" y="1465" on="1"/>
        <pt x="1031" y="1484" on="0"/>
        <pt x="1040" y="1501" on="1"/>
        <pt x="1062" y="1544" on="0"/>
        <pt x="1110" y="1544" on="1"/>
        <pt x="1129" y="1544" on="0"/>
        <pt x="1146" y="1534" on="1"/>
        <pt x="1186" y="1512" on="0"/>
        <pt x="1190" y="1465" on="1"/>
        <pt x="1178" y="1374" on="0"/>
        <pt x="1163" y="1255" on="1"/>
        <pt x="1016" y="96" on="0"/>
      </contour>
    </TTGlyph>
    <TTGlyph name="Uacute" xMin="105" yMin="0" xMax="1190" yMax="1954">
      <component glyphName="acute" x="175" y="716" flags="0x1004"/>
      <component glyphName="U" x="0" y="0" flags="0x1004"/>
    </TTGlyph>
    <TTGlyph name="Ucircumflex" xMin="105" yMin="0" xMax="1190" yMax="1952">
      <component glyphName="circumflex" x="32" y="697" flags="0x1004"/>
      <component glyphName="U" x="0" y="0" flags="0x1004"/>
    </TTGlyph>
    <TTGlyph name="Udieresis" xMin="105" yMin="0" xMax="1190" yMax="1954">
      <component glyphName="dieresis" x="313" y="784" flags="0x1004"/>
      <component glyphName="U" x="0" y="0" flags="0x1004"/>
    </TTGlyph>
    <TTGlyph name="Ugrave" xMin="105" yMin="0" xMax="1190" yMax="1954">
      <component glyphName="grave" x="178" y="716" flags="0x1004"/>
      <component glyphName="U" x="0" y="0" flags="0x1004"/>
    </TTGlyph>
    <TTGlyph name="V" xMin="-56" yMin="-3" xMax="1707" yMax="1566">
      <contour>
        <pt x="403" y="1547" on="1"/>
        <pt x="423" y="1547" on="0"/>
        <pt x="442" y="1536" on="1"/>
        <pt x="481" y="1512" on="0"/>
        <pt x="483" y="1469" on="1"/>
        <pt x="442" y="1146" on="0"/>
        <pt x="419" y="959" on="1"/>
        <pt x="361" y="497" on="0"/>
        <pt x="361" y="435" on="1"/>
        <pt x="361" y="183" on="0"/>
        <pt x="491" y="182" on="1"/>
        <pt x="731" y="183" on="0"/>
        <pt x="919" y="409" on="1"/>
        <pt x="1077" y="600" on="0"/>
        <pt x="1163" y="899" on="1"/>
        <pt x="981" y="907" on="0"/>
        <pt x="871" y="995" on="1"/>
        <pt x="743" y="1098" on="0"/>
        <pt x="743" y="1280" on="1"/>
        <pt x="744" y="1405" on="0"/>
        <pt x="843" y="1492" on="1"/>
        <pt x="930" y="1566" on="0"/>
        <pt x="1037" y="1566" on="1"/>
        <pt x="1176" y="1566" on="0"/>
        <pt x="1269" y="1476" on="1"/>
        <pt x="1374" y="1373" on="0"/>
        <pt x="1374" y="1202" on="1"/>
        <pt x="1374" y="1163" on="0"/>
        <pt x="1367" y="1076" on="1"/>
        <pt x="1389" y="1081" on="0"/>
        <pt x="1411" y="1089" on="1"/>
        <pt x="1465" y="1107" on="0"/>
        <pt x="1545" y="1157" on="1"/>
        <pt x="1602" y="1193" on="0"/>
        <pt x="1639" y="1193" on="1"/>
        <pt x="1654" y="1193" on="0"/>
        <pt x="1670" y="1184" on="1"/>
        <pt x="1707" y="1163" on="0"/>
        <pt x="1707" y="1119" on="1"/>
        <pt x="1706" y="1057" on="0"/>
        <pt x="1608" y="999" on="1"/>
        <pt x="1492" y="931" on="0"/>
        <pt x="1330" y="909" on="1"/>
        <pt x="1330" y="908" on="0"/>
        <pt x="1329" y="907" on="1"/>
        <pt x="1237" y="559" on="0"/>
        <pt x="1052" y="321" on="1"/>
        <pt x="802" y="-3" on="0"/>
        <pt x="459" y="-3" on="1"/>
        <pt x="411" y="-3" on="0"/>
        <pt x="371" y="12" on="1"/>
        <pt x="199" y="78" on="0"/>
        <pt x="199" y="416" on="1"/>
        <pt x="199" y="599" on="0"/>
        <pt x="244" y="891" on="1"/>
        <pt x="290" y="1188" on="0"/>
        <pt x="299" y="1299" on="1"/>
        <pt x="200" y="1236" on="0"/>
        <pt x="142" y="1201" on="1"/>
        <pt x="44" y="1141" on="0"/>
        <pt x="26" y="1141" on="1"/>
        <pt x="3" y="1141" on="0"/>
        <pt x="-18" y="1154" on="1"/>
        <pt x="-56" y="1179" on="0"/>
        <pt x="-56" y="1222" on="1"/>
        <pt x="-55" y="1266" on="0"/>
        <pt x="-8" y="1297" on="1"/>
        <pt x="-5" y="1299" on="0"/>
        <pt x="0" y="1302" on="1"/>
        <pt x="346" y="1533" on="0"/>
      </contour>
      <contour>
        <pt x="905" y="1255" on="1"/>
        <pt x="905" y="1206" on="0"/>
        <pt x="927" y="1167" on="1"/>
        <pt x="989" y="1057" on="0"/>
        <pt x="1200" y="1057" on="1"/>
        <pt x="1216" y="1142" on="0"/>
        <pt x="1216" y="1207" on="1"/>
        <pt x="1216" y="1252" on="0"/>
        <pt x="1203" y="1292" on="1"/>
        <pt x="1167" y="1397" on="0"/>
        <pt x="1064" y="1397" on="1"/>
        <pt x="1014" y="1397" on="0"/>
        <pt x="973" y="1373" on="1"/>
        <pt x="905" y="1332" on="0"/>
      </contour>
    </TTGlyph>
    <TTGlyph name="V.alt" xMin="184" yMin="0" xMax="1260" yMax="1549">
      <contour>
        <pt x="615" y="65" on="1"/>
        <pt x="586" y="1" on="0"/>
        <pt x="529" y="0" on="1"/>
        <pt x="522" y="0" on="0"/>
        <pt x="515" y="1" on="1"/>
        <pt x="468" y="10" on="0"/>
        <pt x="450" y="63" on="1"/>
        <pt x="439" y="94" on="0"/>
        <pt x="185" y="1435" on="1"/>
        <pt x="184" y="1442" on="0"/>
        <pt x="184" y="1455" on="1"/>
        <pt x="184" y="1478" on="0"/>
        <pt x="196" y="1499" on="1"/>
        <pt x="220" y="1538" on="0"/>
        <pt x="263" y="1538" on="1"/>
        <pt x="273" y="1538" on="0"/>
        <pt x="284" y="1535" on="1"/>
        <pt x="323" y="1522" on="0"/>
        <pt x="338" y="1482" on="1"/>
        <pt x="561" y="345" on="1"/>
        <pt x="1103" y="1496" on="1"/>
        <pt x="1104" y="1498" on="0"/>
        <pt x="1105" y="1501" on="1"/>
        <pt x="1131" y="1549" on="0"/>
        <pt x="1181" y="1549" on="1"/>
        <pt x="1203" y="1549" on="0"/>
        <pt x="1223" y="1537" on="1"/>
        <pt x="1260" y="1513" on="0"/>
        <pt x="1260" y="1470" on="1"/>
        <pt x="1260" y="1457" on="0"/>
        <pt x="1256" y="1447" on="1"/>
        <pt x="1238" y="1407" on="0"/>
        <pt x="1211" y="1349" on="1"/>
        <pt x="673" y="180" on="0"/>
      </contour>
    </TTGlyph>
    <TTGlyph name="Vibur.alt" xMin="-63" yMin="-9" xMax="4771" yMax="1566">
      <contour>
        <pt x="4296" y="576" on="1"/>
        <pt x="4259" y="561" on="0"/>
        <pt x="4213" y="555" on="1"/>
        <pt x="4181" y="410" on="0"/>
        <pt x="4129" y="294" on="1"/>
        <pt x="3992" y="-8" on="0"/>
        <pt x="3766" y="-8" on="1"/>
        <pt x="3642" y="-7" on="0"/>
        <pt x="3589" y="105" on="1"/>
        <pt x="3501" y="-3" on="0"/>
        <pt x="3348" y="-4" on="1"/>
        <pt x="3312" y="-4" on="0"/>
        <pt x="3280" y="5" on="1"/>
        <pt x="3105" y="58" on="0"/>
        <pt x="3105" y="390" on="1"/>
        <pt x="3105" y="448" on="0"/>
        <pt x="3110" y="513" on="1"/>
        <pt x="3013" y="451" on="0"/>
        <pt x="2882" y="446" on="1"/>
        <pt x="2838" y="288" on="0"/>
        <pt x="2746" y="171" on="1"/>
        <pt x="2610" y="0" on="0"/>
        <pt x="2433" y="0" on="1"/>
        <pt x="2207" y="1" on="0"/>
        <pt x="2093" y="257" on="1"/>
        <pt x="2064" y="224" on="0"/>
        <pt x="2037" y="194" on="1"/>
        <pt x="1848" y="-4" on="0"/>
        <pt x="1682" y="-4" on="1"/>
        <pt x="1597" y="-4" on="0"/>
        <pt x="1541" y="55" on="1"/>
        <pt x="1457" y="145" on="0"/>
        <pt x="1457" y="341" on="1"/>
        <pt x="1457" y="408" on="0"/>
        <pt x="1484" y="603" on="1"/>
        <pt x="1496" y="694" on="0"/>
        <pt x="1501" y="737" on="1"/>
        <pt x="1502" y="746" on="0"/>
        <pt x="1503" y="755" on="1"/>
        <pt x="1519" y="855" on="0"/>
        <pt x="1585" y="855" on="1"/>
        <pt x="1596" y="855" on="0"/>
        <pt x="1607" y="853" on="1"/>
        <pt x="1653" y="842" on="0"/>
        <pt x="1653" y="766" on="1"/>
        <pt x="1653" y="737" on="0"/>
        <pt x="1643" y="641" on="1"/>
        <pt x="1612" y="357" on="0"/>
        <pt x="1612" y="288" on="1"/>
        <pt x="1612" y="242" on="0"/>
        <pt x="1631" y="202" on="1"/>
        <pt x="1659" y="142" on="0"/>
        <pt x="1706" y="142" on="1"/>
        <pt x="1727" y="142" on="0"/>
        <pt x="1752" y="150" on="1"/>
        <pt x="1872" y="188" on="0"/>
        <pt x="2046" y="393" on="1"/>
        <pt x="1998" y="577" on="0"/>
        <pt x="1998" y="815" on="1"/>
        <pt x="1998" y="830" on="0"/>
        <pt x="1999" y="853" on="1"/>
        <pt x="2012" y="1066" on="0"/>
        <pt x="2075" y="1244" on="1"/>
        <pt x="2177" y="1530" on="0"/>
        <pt x="2367" y="1530" on="1"/>
        <pt x="2559" y="1529" on="0"/>
        <pt x="2561" y="1317" on="1"/>
        <pt x="2561" y="1161" on="0"/>
        <pt x="2490" y="953" on="1"/>
        <pt x="2389" y="660" on="0"/>
        <pt x="2199" y="393" on="1"/>
        <pt x="2221" y="324" on="0"/>
        <pt x="2247" y="274" on="1"/>
        <pt x="2313" y="148" on="0"/>
        <pt x="2421" y="148" on="1"/>
        <pt x="2492" y="148" on="0"/>
        <pt x="2556" y="189" on="1"/>
        <pt x="2672" y="264" on="0"/>
        <pt x="2741" y="449" on="1"/>
        <pt x="2692" y="456" on="0"/>
        <pt x="2651" y="478" on="1"/>
        <pt x="2545" y="536" on="0"/>
        <pt x="2545" y="666" on="1"/>
        <pt x="2545" y="732" on="0"/>
        <pt x="2593" y="781" on="1"/>
        <pt x="2647" y="836" on="0"/>
        <pt x="2720" y="836" on="1"/>
        <pt x="2792" y="836" on="0"/>
        <pt x="2844" y="796" on="1"/>
        <pt x="2914" y="741" on="0"/>
        <pt x="2914" y="644" on="1"/>
        <pt x="2910" y="583" on="0"/>
        <pt x="2910" y="582" on="1"/>
        <pt x="2921" y="579" on="0"/>
        <pt x="2933" y="579" on="1"/>
        <pt x="2966" y="580" on="0"/>
        <pt x="3004" y="606" on="1"/>
        <pt x="3064" y="647" on="0"/>
        <pt x="3156" y="775" on="1"/>
        <pt x="3179" y="808" on="0"/>
        <pt x="3185" y="814" on="1"/>
        <pt x="3208" y="837" on="0"/>
        <pt x="3232" y="839" on="1"/>
        <pt x="3239" y="839" on="1"/>
        <pt x="3303" y="838" on="0"/>
        <pt x="3305" y="761" on="1"/>
        <pt x="3305" y="744" on="0"/>
        <pt x="3296" y="684" on="1"/>
        <pt x="3261" y="463" on="0"/>
        <pt x="3261" y="366" on="1"/>
        <pt x="3261" y="158" on="0"/>
        <pt x="3367" y="156" on="1"/>
        <pt x="3403" y="156" on="0"/>
        <pt x="3434" y="182" on="1"/>
        <pt x="3552" y="284" on="0"/>
        <pt x="3576" y="732" on="1"/>
        <pt x="3577" y="742" on="0"/>
        <pt x="3577" y="754" on="1"/>
        <pt x="3577" y="756" on="0"/>
        <pt x="3578" y="759" on="1"/>
        <pt x="3586" y="832" on="0"/>
        <pt x="3656" y="834" on="1"/>
        <pt x="3660" y="834" on="0"/>
        <pt x="3663" y="833" on="1"/>
        <pt x="3717" y="827" on="0"/>
        <pt x="3717" y="749" on="1"/>
        <pt x="3717" y="726" on="0"/>
        <pt x="3713" y="667" on="1"/>
        <pt x="3693" y="404" on="0"/>
        <pt x="3693" y="319" on="1"/>
        <pt x="3693" y="272" on="0"/>
        <pt x="3700" y="236" on="1"/>
        <pt x="3721" y="140" on="0"/>
        <pt x="3790" y="140" on="1"/>
        <pt x="3876" y="145" on="0"/>
        <pt x="3944" y="234" on="1"/>
        <pt x="4018" y="330" on="0"/>
        <pt x="4083" y="564" on="1"/>
        <pt x="4057" y="571" on="0"/>
        <pt x="4034" y="582" on="1"/>
        <pt x="3921" y="638" on="0"/>
        <pt x="3921" y="766" on="1"/>
        <pt x="3921" y="809" on="0"/>
        <pt x="3942" y="846" on="1"/>
        <pt x="3986" y="923" on="0"/>
        <pt x="4082" y="923" on="1"/>
        <pt x="4131" y="923" on="0"/>
        <pt x="4175" y="897" on="1"/>
        <pt x="4247" y="852" on="0"/>
        <pt x="4247" y="773" on="1"/>
        <pt x="4247" y="730" on="0"/>
        <pt x="4237" y="690" on="1"/>
        <pt x="4262" y="703" on="0"/>
        <pt x="4309" y="734" on="1"/>
        <pt x="4366" y="773" on="0"/>
        <pt x="4392" y="773" on="1"/>
        <pt x="4422" y="773" on="0"/>
        <pt x="4446" y="759" on="1"/>
        <pt x="4477" y="741" on="0"/>
        <pt x="4477" y="719" on="1"/>
        <pt x="4477" y="713" on="0"/>
        <pt x="4474" y="701" on="1"/>
        <pt x="4471" y="692" on="0"/>
        <pt x="4471" y="688" on="1"/>
        <pt x="4419" y="512" on="0"/>
        <pt x="4419" y="386" on="1"/>
        <pt x="4419" y="280" on="0"/>
        <pt x="4442" y="217" on="1"/>
        <pt x="4470" y="141" on="0"/>
        <pt x="4522" y="141" on="1"/>
        <pt x="4553" y="143" on="0"/>
        <pt x="4622" y="185" on="1"/>
        <pt x="4684" y="226" on="0"/>
        <pt x="4715" y="226" on="1"/>
        <pt x="4730" y="226" on="0"/>
        <pt x="4745" y="216" on="1"/>
        <pt x="4771" y="196" on="0"/>
        <pt x="4771" y="170" on="1"/>
        <pt x="4767" y="115" on="0"/>
        <pt x="4692" y="56" on="1"/>
        <pt x="4602" y="-9" on="0"/>
        <pt x="4502" y="-9" on="1"/>
        <pt x="4494" y="-9" on="0"/>
        <pt x="4485" y="-8" on="1"/>
        <pt x="4369" y="1" on="0"/>
        <pt x="4314" y="120" on="1"/>
        <pt x="4276" y="202" on="0"/>
        <pt x="4276" y="350" on="1"/>
        <pt x="4276" y="398" on="0"/>
        <pt x="4280" y="451" on="1"/>
        <pt x="4288" y="553" on="0"/>
      </contour>
      <contour>
        <pt x="396" y="1547" on="1"/>
        <pt x="416" y="1547" on="0"/>
        <pt x="435" y="1536" on="1"/>
        <pt x="474" y="1512" on="0"/>
        <pt x="476" y="1469" on="1"/>
        <pt x="364" y="586" on="1"/>
        <pt x="354" y="506" on="0"/>
        <pt x="354" y="435" on="1"/>
        <pt x="354" y="183" on="0"/>
        <pt x="484" y="182" on="1"/>
        <pt x="724" y="183" on="0"/>
        <pt x="912" y="409" on="1"/>
        <pt x="1070" y="600" on="0"/>
        <pt x="1156" y="899" on="1"/>
        <pt x="974" y="907" on="0"/>
        <pt x="864" y="995" on="1"/>
        <pt x="736" y="1098" on="0"/>
        <pt x="736" y="1280" on="1"/>
        <pt x="737" y="1405" on="0"/>
        <pt x="836" y="1492" on="1"/>
        <pt x="923" y="1566" on="0"/>
        <pt x="1030" y="1566" on="1"/>
        <pt x="1169" y="1566" on="0"/>
        <pt x="1262" y="1476" on="1"/>
        <pt x="1367" y="1373" on="0"/>
        <pt x="1367" y="1202" on="1"/>
        <pt x="1367" y="1163" on="0"/>
        <pt x="1360" y="1076" on="1"/>
        <pt x="1377" y="1080" on="0"/>
        <pt x="1395" y="1086" on="1"/>
        <pt x="1454" y="1105" on="0"/>
        <pt x="1537" y="1158" on="1"/>
        <pt x="1594" y="1194" on="0"/>
        <pt x="1627" y="1194" on="1"/>
        <pt x="1646" y="1194" on="0"/>
        <pt x="1662" y="1185" on="1"/>
        <pt x="1700" y="1165" on="0"/>
        <pt x="1700" y="1121" on="1"/>
        <pt x="1699" y="1059" on="0"/>
        <pt x="1603" y="1000" on="1"/>
        <pt x="1488" y="931" on="0"/>
        <pt x="1323" y="909" on="1"/>
        <pt x="1323" y="908" on="0"/>
        <pt x="1322" y="907" on="1"/>
        <pt x="1230" y="559" on="0"/>
        <pt x="1045" y="321" on="1"/>
        <pt x="795" y="-3" on="0"/>
        <pt x="452" y="-3" on="1"/>
        <pt x="404" y="-3" on="0"/>
        <pt x="364" y="12" on="1"/>
        <pt x="192" y="78" on="0"/>
        <pt x="192" y="416" on="1"/>
        <pt x="192" y="507" on="0"/>
        <pt x="206" y="620" on="1"/>
        <pt x="241" y="929" on="0"/>
        <pt x="292" y="1299" on="1"/>
        <pt x="66" y="1156" on="1"/>
        <pt x="44" y="1142" on="0"/>
        <pt x="19" y="1141" on="1"/>
        <pt x="-4" y="1141" on="0"/>
        <pt x="-25" y="1154" on="1"/>
        <pt x="-63" y="1179" on="0"/>
        <pt x="-63" y="1222" on="1"/>
        <pt x="-62" y="1266" on="0"/>
        <pt x="-15" y="1297" on="1"/>
        <pt x="342" y="1528" on="0"/>
        <pt x="362" y="1540" on="1"/>
        <pt x="376" y="1547" on="0"/>
      </contour>
      <contour>
        <pt x="2139" y="789" on="1"/>
        <pt x="2139" y="692" on="0"/>
        <pt x="2161" y="556" on="1"/>
        <pt x="2261" y="720" on="0"/>
        <pt x="2332" y="912" on="1"/>
        <pt x="2425" y="1161" on="0"/>
        <pt x="2425" y="1316" on="1"/>
        <pt x="2425" y="1324" on="0"/>
        <pt x="2421" y="1335" on="1"/>
        <pt x="2405" y="1379" on="0"/>
        <pt x="2369" y="1379" on="1"/>
        <pt x="2288" y="1378" on="0"/>
        <pt x="2233" y="1271" on="1"/>
        <pt x="2183" y="1171" on="0"/>
        <pt x="2153" y="945" on="1"/>
        <pt x="2142" y="864" on="0"/>
      </contour>
      <contour>
        <pt x="898" y="1255" on="1"/>
        <pt x="898" y="1206" on="0"/>
        <pt x="920" y="1167" on="1"/>
        <pt x="982" y="1057" on="0"/>
        <pt x="1193" y="1057" on="1"/>
        <pt x="1209" y="1142" on="0"/>
        <pt x="1209" y="1207" on="1"/>
        <pt x="1209" y="1252" on="0"/>
        <pt x="1196" y="1292" on="1"/>
        <pt x="1160" y="1397" on="0"/>
        <pt x="1057" y="1397" on="1"/>
        <pt x="1007" y="1397" on="0"/>
        <pt x="966" y="1373" on="1"/>
        <pt x="898" y="1332" on="0"/>
      </contour>
      <contour>
        <pt x="2734" y="697" on="1"/>
        <pt x="2724" y="697" on="0"/>
        <pt x="2713" y="693" on="1"/>
        <pt x="2681" y="681" on="0"/>
        <pt x="2681" y="649" on="1"/>
        <pt x="2682" y="592" on="0"/>
        <pt x="2777" y="583" on="1"/>
        <pt x="2777" y="590" on="0"/>
        <pt x="2778" y="604" on="1"/>
        <pt x="2780" y="625" on="0"/>
        <pt x="2780" y="634" on="1"/>
        <pt x="2780" y="639" on="0"/>
        <pt x="2779" y="645" on="1"/>
        <pt x="2774" y="697" on="0"/>
      </contour>
      <contour>
        <pt x="4041" y="761" on="1"/>
        <pt x="4042" y="705" on="0"/>
        <pt x="4111" y="681" on="1"/>
        <pt x="4121" y="734" on="0"/>
        <pt x="4121" y="761" on="1"/>
        <pt x="4121" y="767" on="0"/>
        <pt x="4119" y="774" on="1"/>
        <pt x="4112" y="801" on="0"/>
        <pt x="4082" y="801" on="1"/>
        <pt x="4077" y="801" on="0"/>
        <pt x="4070" y="799" on="1"/>
        <pt x="4041" y="791" on="0"/>
      </contour>
    </TTGlyph>
    <TTGlyph name="Virkus" xMin="196" yMin="2" xMax="1087" yMax="1533">
      <contour>
        <pt x="655" y="1533" on="1"/>
        <pt x="683" y="1533" on="0"/>
        <pt x="712" y="1530" on="1"/>
        <pt x="875" y="1509" on="0"/>
        <pt x="983" y="1387" on="1"/>
        <pt x="1087" y="1269" on="0"/>
        <pt x="1087" y="1115" on="1"/>
        <pt x="1087" y="972" on="0"/>
        <pt x="961" y="806" on="1"/>
        <pt x="957" y="799" on="0"/>
        <pt x="949" y="790" on="1"/>
        <pt x="948" y="788" on="0"/>
        <pt x="875" y="707" on="1"/>
        <pt x="940" y="686" on="0"/>
        <pt x="986" y="591" on="1"/>
        <pt x="1028" y="502" on="0"/>
        <pt x="1028" y="418" on="1"/>
        <pt x="1028" y="386" on="0"/>
        <pt x="1023" y="354" on="1"/>
        <pt x="998" y="206" on="0"/>
        <pt x="880" y="105" on="1"/>
        <pt x="760" y="2" on="0"/>
        <pt x="609" y="2" on="1"/>
        <pt x="595" y="2" on="0"/>
        <pt x="579" y="3" on="1"/>
        <pt x="440" y="14" on="0"/>
        <pt x="334" y="107" on="1"/>
        <pt x="196" y="227" on="0"/>
        <pt x="196" y="420" on="1"/>
        <pt x="196" y="441" on="0"/>
        <pt x="199" y="464" on="1"/>
        <pt x="224" y="646" on="0"/>
        <pt x="409" y="826" on="1"/>
        <pt x="344" y="847" on="0"/>
        <pt x="299" y="941" on="1"/>
        <pt x="256" y="1031" on="0"/>
        <pt x="256" y="1117" on="1"/>
        <pt x="256" y="1151" on="0"/>
        <pt x="262" y="1186" on="1"/>
        <pt x="288" y="1326" on="0"/>
        <pt x="398" y="1427" on="1"/>
        <pt x="513" y="1533" on="0"/>
      </contour>
      <contour>
        <pt x="604" y="178" on="1"/>
        <pt x="694" y="178" on="0"/>
        <pt x="764" y="240" on="1"/>
        <pt x="844" y="310" on="0"/>
        <pt x="844" y="411" on="1"/>
        <pt x="842" y="514" on="0"/>
        <pt x="771" y="598" on="1"/>
        <pt x="737" y="554" on="1"/>
        <pt x="714" y="524" on="0"/>
        <pt x="709" y="465" on="1"/>
        <pt x="704" y="399" on="0"/>
        <pt x="702" y="391" on="1"/>
        <pt x="690" y="342" on="0"/>
        <pt x="630" y="342" on="1"/>
        <pt x="621" y="342" on="0"/>
        <pt x="613" y="344" on="1"/>
        <pt x="557" y="358" on="0"/>
        <pt x="557" y="447" on="1"/>
        <pt x="558" y="567" on="0"/>
        <pt x="613" y="654" on="1"/>
        <pt x="645" y="702" on="0"/>
        <pt x="749" y="804" on="1"/>
        <pt x="757" y="812" on="0"/>
        <pt x="765" y="820" on="1"/>
        <pt x="917" y="975" on="0"/>
        <pt x="917" y="1113" on="1"/>
        <pt x="917" y="1203" on="0"/>
        <pt x="854" y="1275" on="1"/>
        <pt x="782" y="1357" on="0"/>
        <pt x="679" y="1357" on="1"/>
        <pt x="589" y="1357" on="0"/>
        <pt x="519" y="1295" on="1"/>
        <pt x="439" y="1225" on="0"/>
        <pt x="439" y="1124" on="1"/>
        <pt x="439" y="1030" on="0"/>
        <pt x="511" y="937" on="1"/>
        <pt x="531" y="960" on="0"/>
        <pt x="546" y="981" on="1"/>
        <pt x="567" y="1012" on="0"/>
        <pt x="572" y="1070" on="1"/>
        <pt x="577" y="1136" on="0"/>
        <pt x="580" y="1145" on="1"/>
        <pt x="592" y="1193" on="0"/>
        <pt x="654" y="1193" on="1"/>
        <pt x="671" y="1193" on="0"/>
        <pt x="687" y="1185" on="1"/>
        <pt x="727" y="1166" on="0"/>
        <pt x="727" y="1120" on="1"/>
        <pt x="727" y="1088" on="1"/>
        <pt x="726" y="968" on="0"/>
        <pt x="670" y="881" on="1"/>
        <pt x="638" y="833" on="0"/>
        <pt x="535" y="731" on="1"/>
        <pt x="523" y="719" on="0"/>
        <pt x="512" y="708" on="1"/>
        <pt x="366" y="557" on="0"/>
        <pt x="366" y="422" on="1"/>
        <pt x="366" y="331" on="0"/>
        <pt x="430" y="258" on="1"/>
        <pt x="502" y="178" on="0"/>
      </contour>
    </TTGlyph>
    <TTGlyph name="W" xMin="-29" yMin="-2" xMax="2210" yMax="1578">
      <contour>
        <pt x="1408" y="1266" on="1"/>
        <pt x="1408" y="1217" on="0"/>
        <pt x="1431" y="1178" on="1"/>
        <pt x="1494" y="1069" on="0"/>
        <pt x="1703" y="1069" on="1"/>
        <pt x="1719" y="1154" on="0"/>
        <pt x="1719" y="1219" on="1"/>
        <pt x="1719" y="1264" on="0"/>
        <pt x="1706" y="1304" on="1"/>
        <pt x="1670" y="1409" on="0"/>
        <pt x="1567" y="1409" on="1"/>
        <pt x="1517" y="1409" on="0"/>
        <pt x="1476" y="1385" on="1"/>
        <pt x="1408" y="1344" on="0"/>
      </contour>
      <contour>
        <pt x="430" y="1555" on="1"/>
        <pt x="450" y="1555" on="0"/>
        <pt x="468" y="1545" on="1"/>
        <pt x="508" y="1522" on="0"/>
        <pt x="510" y="1477" on="1"/>
        <pt x="468" y="1149" on="0"/>
        <pt x="445" y="962" on="1"/>
        <pt x="388" y="505" on="0"/>
        <pt x="388" y="444" on="1"/>
        <pt x="388" y="191" on="0"/>
        <pt x="518" y="190" on="1"/>
        <pt x="626" y="190" on="0"/>
        <pt x="731" y="238" on="1"/>
        <pt x="694" y="386" on="0"/>
        <pt x="694" y="524" on="1"/>
        <pt x="694" y="648" on="0"/>
        <pt x="709" y="744" on="1"/>
        <pt x="762" y="1074" on="0"/>
        <pt x="988" y="1074" on="1"/>
        <pt x="1080" y="1074" on="0"/>
        <pt x="1144" y="1019" on="1"/>
        <pt x="1229" y="945" on="0"/>
        <pt x="1229" y="811" on="1"/>
        <pt x="1229" y="776" on="0"/>
        <pt x="1226" y="740" on="1"/>
        <pt x="1205" y="513" on="0"/>
        <pt x="1064" y="312" on="1"/>
        <pt x="997" y="216" on="0"/>
        <pt x="947" y="184" on="1"/>
        <pt x="955" y="158" on="0"/>
        <pt x="1003" y="158" on="1"/>
        <pt x="1220" y="159" on="0"/>
        <pt x="1407" y="395" on="1"/>
        <pt x="1565" y="596" on="0"/>
        <pt x="1666" y="911" on="1"/>
        <pt x="1484" y="919" on="0"/>
        <pt x="1374" y="1007" on="1"/>
        <pt x="1246" y="1110" on="0"/>
        <pt x="1246" y="1292" on="1"/>
        <pt x="1247" y="1417" on="0"/>
        <pt x="1346" y="1504" on="1"/>
        <pt x="1433" y="1578" on="0"/>
        <pt x="1540" y="1578" on="1"/>
        <pt x="1679" y="1578" on="0"/>
        <pt x="1772" y="1488" on="1"/>
        <pt x="1877" y="1385" on="0"/>
        <pt x="1877" y="1214" on="1"/>
        <pt x="1877" y="1175" on="0"/>
        <pt x="1870" y="1088" on="1"/>
        <pt x="1892" y="1093" on="0"/>
        <pt x="1914" y="1101" on="1"/>
        <pt x="1968" y="1119" on="0"/>
        <pt x="2048" y="1169" on="1"/>
        <pt x="2105" y="1205" on="0"/>
        <pt x="2142" y="1205" on="1"/>
        <pt x="2158" y="1205" on="0"/>
        <pt x="2172" y="1197" on="1"/>
        <pt x="2210" y="1175" on="0"/>
        <pt x="2210" y="1130" on="1"/>
        <pt x="2209" y="1069" on="0"/>
        <pt x="2111" y="1011" on="1"/>
        <pt x="1995" y="943" on="0"/>
        <pt x="1833" y="921" on="1"/>
        <pt x="1742" y="578" on="0"/>
        <pt x="1568" y="340" on="1"/>
        <pt x="1318" y="-2" on="0"/>
        <pt x="971" y="-2" on="1"/>
        <pt x="963" y="-2" on="0"/>
        <pt x="953" y="-1" on="1"/>
        <pt x="859" y="6" on="0"/>
        <pt x="794" y="80" on="1"/>
        <pt x="651" y="5" on="0"/>
        <pt x="486" y="5" on="1"/>
        <pt x="396" y="5" on="0"/>
        <pt x="335" y="59" on="1"/>
        <pt x="220" y="161" on="0"/>
        <pt x="220" y="429" on="1"/>
        <pt x="220" y="611" on="0"/>
        <pt x="269" y="904" on="1"/>
        <pt x="316" y="1190" on="0"/>
        <pt x="326" y="1307" on="1"/>
        <pt x="227" y="1244" on="0"/>
        <pt x="169" y="1209" on="1"/>
        <pt x="71" y="1149" on="0"/>
        <pt x="53" y="1149" on="1"/>
        <pt x="31" y="1149" on="0"/>
        <pt x="10" y="1161" on="1"/>
        <pt x="-29" y="1186" on="0"/>
        <pt x="-29" y="1231" on="1"/>
        <pt x="-28" y="1273" on="0"/>
        <pt x="19" y="1306" on="1"/>
        <pt x="24" y="1310" on="0"/>
        <pt x="42" y="1322" on="1"/>
        <pt x="381" y="1555" on="0"/>
      </contour>
      <contour>
        <pt x="872" y="342" on="1"/>
        <pt x="904" y="367" on="0"/>
        <pt x="939" y="414" on="1"/>
        <pt x="1056" y="573" on="0"/>
        <pt x="1056" y="784" on="1"/>
        <pt x="1056" y="793" on="0"/>
        <pt x="1055" y="802" on="1"/>
        <pt x="1050" y="884" on="0"/>
        <pt x="979" y="884" on="1"/>
        <pt x="926" y="883" on="0"/>
        <pt x="891" y="786" on="1"/>
        <pt x="853" y="673" on="0"/>
        <pt x="853" y="510" on="1"/>
        <pt x="853" y="449" on="0"/>
      </contour>
    </TTGlyph>
    <TTGlyph name="W.alt" xMin="141" yMin="-2" xMax="1804" yMax="1547">
      <contour>
        <pt x="1158" y="61" on="1"/>
        <pt x="1156" y="59" on="0"/>
        <pt x="1154" y="55" on="1"/>
        <pt x="1138" y="28" on="0"/>
        <pt x="1137" y="27" on="1"/>
        <pt x="1109" y="-1" on="0"/>
        <pt x="1073" y="-2" on="1"/>
        <pt x="1066" y="-2" on="0"/>
        <pt x="1059" y="-1" on="1"/>
        <pt x="1012" y="8" on="0"/>
        <pt x="994" y="61" on="1"/>
        <pt x="994" y="62" on="1"/>
        <pt x="981" y="102" on="0"/>
        <pt x="869" y="697" on="1"/>
        <pt x="603" y="123" on="0"/>
        <pt x="571" y="61" on="1"/>
        <pt x="569" y="59" on="0"/>
        <pt x="567" y="55" on="1"/>
        <pt x="552" y="28" on="0"/>
        <pt x="551" y="27" on="1"/>
        <pt x="524" y="-1" on="0"/>
        <pt x="486" y="-2" on="1"/>
        <pt x="474" y="-2" on="0"/>
        <pt x="462" y="2" on="1"/>
        <pt x="420" y="16" on="0"/>
        <pt x="408" y="61" on="1"/>
        <pt x="407" y="64" on="0"/>
        <pt x="405" y="68" on="1"/>
        <pt x="396" y="95" on="0"/>
        <pt x="174" y="1269" on="1"/>
        <pt x="143" y="1433" on="1"/>
        <pt x="141" y="1440" on="0"/>
        <pt x="141" y="1453" on="1"/>
        <pt x="141" y="1476" on="0"/>
        <pt x="153" y="1497" on="1"/>
        <pt x="177" y="1537" on="0"/>
        <pt x="221" y="1537" on="1"/>
        <pt x="232" y="1537" on="0"/>
        <pt x="243" y="1533" on="1"/>
        <pt x="282" y="1520" on="0"/>
        <pt x="296" y="1481" on="1"/>
        <pt x="297" y="1470" on="1"/>
        <pt x="300" y="1456" on="0"/>
        <pt x="304" y="1436" on="1"/>
        <pt x="403" y="965" on="0"/>
        <pt x="518" y="343" on="1"/>
        <pt x="816" y="974" on="1"/>
        <pt x="729" y="1433" on="1"/>
        <pt x="728" y="1440" on="0"/>
        <pt x="728" y="1453" on="1"/>
        <pt x="728" y="1476" on="0"/>
        <pt x="740" y="1497" on="1"/>
        <pt x="764" y="1537" on="0"/>
        <pt x="807" y="1537" on="1"/>
        <pt x="818" y="1537" on="0"/>
        <pt x="829" y="1533" on="1"/>
        <pt x="868" y="1520" on="0"/>
        <pt x="882" y="1481" on="1"/>
        <pt x="884" y="1470" on="1"/>
        <pt x="898" y="1394" on="0"/>
        <pt x="932" y="1220" on="1"/>
        <pt x="1061" y="1494" on="1"/>
        <pt x="1061" y="1495" on="0"/>
        <pt x="1062" y="1497" on="1"/>
        <pt x="1087" y="1547" on="0"/>
        <pt x="1139" y="1547" on="1"/>
        <pt x="1161" y="1547" on="0"/>
        <pt x="1181" y="1535" on="1"/>
        <pt x="1217" y="1511" on="0"/>
        <pt x="1217" y="1469" on="1"/>
        <pt x="1217" y="1460" on="0"/>
        <pt x="1214" y="1445" on="1"/>
        <pt x="986" y="950" on="1"/>
        <pt x="1105" y="343" on="1"/>
        <pt x="1647" y="1494" on="1"/>
        <pt x="1647" y="1495" on="0"/>
        <pt x="1648" y="1497" on="1"/>
        <pt x="1673" y="1547" on="0"/>
        <pt x="1725" y="1547" on="1"/>
        <pt x="1747" y="1547" on="0"/>
        <pt x="1767" y="1535" on="1"/>
        <pt x="1804" y="1511" on="0"/>
        <pt x="1804" y="1469" on="1"/>
        <pt x="1804" y="1455" on="0"/>
        <pt x="1800" y="1445" on="1"/>
        <pt x="1789" y="1420" on="0"/>
        <pt x="1774" y="1388" on="1"/>
        <pt x="1208" y="154" on="0"/>
      </contour>
    </TTGlyph>
    <TTGlyph name="X" xMin="-10" yMin="0" xMax="1163" yMax="1550">
      <contour>
        <pt x="640" y="721" on="1"/>
        <pt x="719" y="502" on="0"/>
        <pt x="762" y="383" on="1"/>
        <pt x="866" y="94" on="0"/>
        <pt x="866" y="78" on="1"/>
        <pt x="866" y="56" on="0"/>
        <pt x="853" y="37" on="1"/>
        <pt x="829" y="0" on="0"/>
        <pt x="786" y="0" on="1"/>
        <pt x="738" y="1" on="0"/>
        <pt x="713" y="54" on="1"/>
        <pt x="704" y="75" on="0"/>
        <pt x="698" y="87" on="1"/>
        <pt x="644" y="212" on="0"/>
        <pt x="521" y="559" on="1"/>
        <pt x="142" y="41" on="1"/>
        <pt x="110" y="1" on="0"/>
        <pt x="70" y="0" on="1"/>
        <pt x="48" y="0" on="0"/>
        <pt x="28" y="11" on="1"/>
        <pt x="-10" y="34" on="0"/>
        <pt x="-10" y="78" on="1"/>
        <pt x="-10" y="88" on="0"/>
        <pt x="-9" y="95" on="1"/>
        <pt x="-6" y="113" on="0"/>
        <pt x="31" y="160" on="1"/>
        <pt x="222" y="407" on="0"/>
        <pt x="453" y="748" on="1"/>
        <pt x="429" y="815" on="0"/>
        <pt x="407" y="875" on="1"/>
        <pt x="199" y="1450" on="0"/>
        <pt x="199" y="1469" on="1"/>
        <pt x="199" y="1491" on="0"/>
        <pt x="209" y="1510" on="1"/>
        <pt x="231" y="1550" on="0"/>
        <pt x="274" y="1550" on="1"/>
        <pt x="326" y="1549" on="0"/>
        <pt x="349" y="1508" on="1"/>
        <pt x="572" y="908" on="1"/>
        <pt x="1015" y="1511" on="1"/>
        <pt x="1044" y="1548" on="0"/>
        <pt x="1087" y="1549" on="1"/>
        <pt x="1107" y="1549" on="0"/>
        <pt x="1124" y="1540" on="1"/>
        <pt x="1163" y="1518" on="0"/>
        <pt x="1163" y="1468" on="1"/>
        <pt x="1163" y="1451" on="0"/>
        <pt x="1155" y="1431" on="1"/>
      </contour>
    </TTGlyph>
    <TTGlyph name="Y" xMin="-50" yMin="-527" xMax="1183" yMax="1545">
      <contour>
        <pt x="1103" y="1545" on="1"/>
        <pt x="1122" y="1545" on="0"/>
        <pt x="1140" y="1536" on="1"/>
        <pt x="1180" y="1514" on="0"/>
        <pt x="1183" y="1467" on="1"/>
        <pt x="1018" y="164" on="0"/>
        <pt x="1001" y="59" on="1"/>
        <pt x="963" y="-163" on="0"/>
        <pt x="857" y="-308" on="1"/>
        <pt x="696" y="-527" on="0"/>
        <pt x="411" y="-527" on="1"/>
        <pt x="319" y="-527" on="0"/>
        <pt x="196" y="-470" on="1"/>
        <pt x="24" y="-390" on="0"/>
        <pt x="-41" y="-262" on="1"/>
        <pt x="-50" y="-244" on="0"/>
        <pt x="-50" y="-223" on="1"/>
        <pt x="-50" y="-202" on="0"/>
        <pt x="-39" y="-183" on="1"/>
        <pt x="-15" y="-143" on="0"/>
        <pt x="30" y="-143" on="1"/>
        <pt x="66" y="-144" on="0"/>
        <pt x="91" y="-176" on="1"/>
        <pt x="240" y="-371" on="0"/>
        <pt x="435" y="-372" on="1"/>
        <pt x="590" y="-371" on="0"/>
        <pt x="702" y="-237" on="1"/>
        <pt x="829" y="-83" on="0"/>
        <pt x="850" y="184" on="1"/>
        <pt x="811" y="124" on="0"/>
        <pt x="751" y="80" on="1"/>
        <pt x="642" y="2" on="0"/>
        <pt x="510" y="2" on="1"/>
        <pt x="488" y="2" on="0"/>
        <pt x="465" y="5" on="1"/>
        <pt x="311" y="27" on="0"/>
        <pt x="210" y="188" on="1"/>
        <pt x="98" y="367" on="0"/>
        <pt x="98" y="636" on="1"/>
        <pt x="98" y="758" on="0"/>
        <pt x="109" y="888" on="1"/>
        <pt x="128" y="1092" on="0"/>
        <pt x="200" y="1467" on="1"/>
        <pt x="202" y="1479" on="0"/>
        <pt x="207" y="1490" on="1"/>
        <pt x="228" y="1545" on="0"/>
        <pt x="279" y="1545" on="1"/>
        <pt x="299" y="1545" on="0"/>
        <pt x="318" y="1534" on="1"/>
        <pt x="358" y="1511" on="0"/>
        <pt x="358" y="1470" on="1"/>
        <pt x="358" y="1408" on="0"/>
        <pt x="321" y="1163" on="1"/>
        <pt x="268" y="803" on="0"/>
        <pt x="268" y="694" on="1"/>
        <pt x="268" y="470" on="0"/>
        <pt x="328" y="329" on="1"/>
        <pt x="397" y="165" on="0"/>
        <pt x="527" y="165" on="1"/>
        <pt x="540" y="165" on="0"/>
        <pt x="554" y="168" on="1"/>
        <pt x="652" y="188" on="0"/>
        <pt x="755" y="329" on="1"/>
        <pt x="873" y="491" on="0"/>
        <pt x="921" y="700" on="1"/>
        <pt x="1023" y="1467" on="1"/>
        <pt x="1025" y="1485" on="0"/>
        <pt x="1033" y="1501" on="1"/>
        <pt x="1055" y="1545" on="0"/>
      </contour>
    </TTGlyph>
    <TTGlyph name="Y.alt" xMin="121" yMin="0" xMax="1054" yMax="1550">
      <contour>
        <pt x="255" y="121" on="1"/>
        <pt x="255" y="121" on="0"/>
        <pt x="564" y="787" on="1"/>
        <pt x="138" y="1418" on="1"/>
        <pt x="122" y="1442" on="0"/>
        <pt x="121" y="1469" on="1"/>
        <pt x="121" y="1488" on="0"/>
        <pt x="130" y="1506" on="1"/>
        <pt x="151" y="1549" on="0"/>
        <pt x="199" y="1549" on="1"/>
        <pt x="236" y="1549" on="0"/>
        <pt x="260" y="1523" on="1"/>
        <pt x="646" y="960" on="1"/>
        <pt x="898" y="1498" on="1"/>
        <pt x="900" y="1501" on="0"/>
        <pt x="902" y="1505" on="1"/>
        <pt x="927" y="1550" on="0"/>
        <pt x="976" y="1550" on="1"/>
        <pt x="997" y="1550" on="0"/>
        <pt x="1016" y="1539" on="1"/>
        <pt x="1054" y="1516" on="0"/>
        <pt x="1054" y="1470" on="1"/>
        <pt x="1054" y="1463" on="0"/>
        <pt x="1051" y="1448" on="1"/>
        <pt x="471" y="195" on="1"/>
        <pt x="405" y="58" on="1"/>
        <pt x="375" y="1" on="0"/>
        <pt x="328" y="0" on="1"/>
        <pt x="305" y="0" on="0"/>
        <pt x="283" y="15" on="1"/>
        <pt x="246" y="42" on="0"/>
        <pt x="246" y="83" on="1"/>
        <pt x="246" y="103" on="0"/>
      </contour>
    </TTGlyph>
    <TTGlyph name="Yacute" xMin="-50" yMin="-527" xMax="1183" yMax="1947">
      <component glyphName="acute" x="185" y="709" flags="0x1004"/>
      <component glyphName="Y" x="0" y="0" flags="0x1004"/>
    </TTGlyph>
    <TTGlyph name="Ydieresis" xMin="-50" yMin="-527" xMax="1183" yMax="1816">
      <component glyphName="dieresis" x="290" y="646" flags="0x1004"/>
      <component glyphName="Y" x="0" y="0" flags="0x1004"/>
    </TTGlyph>
    <TTGlyph name="Z" xMin="-11" yMin="0" xMax="1028" yMax="1552">
      <contour>
        <pt x="30" y="10" on="1"/>
        <pt x="-10" y="31" on="0"/>
        <pt x="-11" y="80" on="1"/>
        <pt x="-11" y="103" on="0"/>
        <pt x="1" y="133" on="1"/>
        <pt x="800" y="1385" on="1"/>
        <pt x="317" y="1385" on="0"/>
        <pt x="307" y="1387" on="1"/>
        <pt x="290" y="1390" on="0"/>
        <pt x="274" y="1396" on="1"/>
        <pt x="217" y="1420" on="0"/>
        <pt x="217" y="1469" on="1"/>
        <pt x="217" y="1493" on="0"/>
        <pt x="229" y="1512" on="1"/>
        <pt x="255" y="1552" on="0"/>
        <pt x="310" y="1552" on="1"/>
        <pt x="950" y="1552" on="1"/>
        <pt x="969" y="1552" on="0"/>
        <pt x="986" y="1543" on="1"/>
        <pt x="1028" y="1522" on="0"/>
        <pt x="1028" y="1474" on="1"/>
        <pt x="1028" y="1455" on="0"/>
        <pt x="1021" y="1440" on="1"/>
        <pt x="217" y="165" on="1"/>
        <pt x="893" y="165" on="1"/>
        <pt x="916" y="165" on="0"/>
        <pt x="936" y="157" on="1"/>
        <pt x="987" y="136" on="0"/>
        <pt x="987" y="82" on="1"/>
        <pt x="987" y="69" on="0"/>
        <pt x="983" y="56" on="1"/>
        <pt x="966" y="10" on="0"/>
        <pt x="900" y="0" on="1"/>
        <pt x="69" y="0" on="1"/>
        <pt x="49" y="0" on="0"/>
      </contour>
    </TTGlyph>
    <TTGlyph name="a" xMin="34" yMin="-5" xMax="937" yMax="853">
      <contour>
        <pt x="34" y="314" on="1"/>
        <pt x="34" y="348" on="0"/>
        <pt x="38" y="386" on="1"/>
        <pt x="59" y="558" on="0"/>
        <pt x="146" y="691" on="1"/>
        <pt x="252" y="853" on="0"/>
        <pt x="401" y="853" on="1"/>
        <pt x="465" y="853" on="0"/>
        <pt x="513" y="828" on="1"/>
        <pt x="533" y="852" on="0"/>
        <pt x="568" y="853" on="1"/>
        <pt x="588" y="853" on="0"/>
        <pt x="593" y="850" on="1"/>
        <pt x="636" y="836" on="0"/>
        <pt x="636" y="765" on="1"/>
        <pt x="636" y="736" on="0"/>
        <pt x="626" y="640" on="1"/>
        <pt x="595" y="356" on="0"/>
        <pt x="595" y="287" on="1"/>
        <pt x="595" y="241" on="0"/>
        <pt x="614" y="201" on="1"/>
        <pt x="642" y="141" on="0"/>
        <pt x="688" y="141" on="1"/>
        <pt x="697" y="141" on="0"/>
        <pt x="707" y="143" on="1"/>
        <pt x="737" y="149" on="0"/>
        <pt x="793" y="189" on="1"/>
        <pt x="848" y="229" on="0"/>
        <pt x="881" y="229" on="1"/>
        <pt x="894" y="229" on="0"/>
        <pt x="908" y="220" on="1"/>
        <pt x="937" y="200" on="0"/>
        <pt x="937" y="167" on="1"/>
        <pt x="934" y="115" on="0"/>
        <pt x="858" y="59" on="1"/>
        <pt x="767" y="-5" on="0"/>
        <pt x="665" y="-5" on="1"/>
        <pt x="539" y="-4" on="0"/>
        <pt x="479" y="122" on="1"/>
        <pt x="465" y="105" on="0"/>
        <pt x="447" y="88" on="1"/>
        <pt x="348" y="-5" on="0"/>
        <pt x="246" y="-5" on="1"/>
        <pt x="182" y="-5" on="0"/>
        <pt x="135" y="28" on="1"/>
        <pt x="34" y="102" on="0"/>
      </contour>
      <contour>
        <pt x="474" y="643" on="1"/>
        <pt x="474" y="643" on="0"/>
        <pt x="481" y="711" on="1"/>
        <pt x="459" y="722" on="0"/>
        <pt x="435" y="722" on="1"/>
        <pt x="417" y="722" on="0"/>
        <pt x="398" y="717" on="1"/>
        <pt x="305" y="691" on="0"/>
        <pt x="241" y="545" on="1"/>
        <pt x="184" y="414" on="0"/>
        <pt x="184" y="282" on="1"/>
        <pt x="184" y="277" on="0"/>
        <pt x="184" y="272" on="1"/>
        <pt x="187" y="150" on="0"/>
        <pt x="246" y="150" on="1"/>
        <pt x="277" y="151" on="0"/>
        <pt x="322" y="184" on="1"/>
        <pt x="368" y="217" on="0"/>
        <pt x="389" y="246" on="1"/>
        <pt x="402" y="265" on="0"/>
        <pt x="424" y="357" on="1"/>
        <pt x="464" y="528" on="0"/>
      </contour>
    </TTGlyph>
    <TTGlyph name="aacute" xMin="34" yMin="-5" xMax="937" yMax="1238">
      <component glyphName="acute" x="-145" y="0" flags="0x1004"/>
      <component glyphName="a" x="0" y="0" flags="0x1004"/>
    </TTGlyph>
    <TTGlyph name="acircumflex" xMin="34" yMin="-5" xMax="937" yMax="1255">
      <component glyphName="circumflex" x="-279" y="0" flags="0x1004"/>
      <component glyphName="a" x="0" y="0" flags="0x1004"/>
    </TTGlyph>
    <TTGlyph name="acute" xMin="427" yMin="957" xMax="709" yMax="1238">
      <contour>
        <pt x="680" y="1105" on="1"/>
        <pt x="648" y="1076" on="0"/>
        <pt x="556" y="984" on="1"/>
        <pt x="528" y="958" on="0"/>
        <pt x="498" y="957" on="1"/>
        <pt x="481" y="957" on="0"/>
        <pt x="465" y="966" on="1"/>
        <pt x="427" y="987" on="0"/>
        <pt x="427" y="1030" on="1"/>
        <pt x="427" y="1064" on="0"/>
        <pt x="454" y="1090" on="1"/>
        <pt x="576" y="1209" on="1"/>
        <pt x="606" y="1237" on="0"/>
        <pt x="636" y="1238" on="1"/>
        <pt x="654" y="1238" on="0"/>
        <pt x="671" y="1228" on="1"/>
        <pt x="709" y="1206" on="0"/>
        <pt x="709" y="1168" on="1"/>
        <pt x="708" y="1134" on="0"/>
      </contour>
    </TTGlyph>
    <TTGlyph name="adieresis" xMin="34" yMin="-5" xMax="937" yMax="1170">
      <component glyphName="dieresis" x="0" y="0" flags="0x1004"/>
      <component glyphName="a" x="0" y="0" flags="0x1004"/>
    </TTGlyph>
    <TTGlyph name="ae" xMin="60" yMin="2" xMax="1111" yMax="864">
      <contour>
        <pt x="434" y="860" on="1"/>
        <pt x="499" y="860" on="0"/>
        <pt x="543" y="843" on="1"/>
        <pt x="564" y="863" on="0"/>
        <pt x="594" y="864" on="1"/>
        <pt x="604" y="864" on="0"/>
        <pt x="614" y="862" on="1"/>
        <pt x="656" y="852" on="0"/>
        <pt x="662" y="789" on="1"/>
        <pt x="743" y="856" on="0"/>
        <pt x="837" y="857" on="1"/>
        <pt x="901" y="857" on="0"/>
        <pt x="949" y="833" on="1"/>
        <pt x="1046" y="784" on="0"/>
        <pt x="1046" y="661" on="1"/>
        <pt x="1045" y="565" on="0"/>
        <pt x="908" y="426" on="1"/>
        <pt x="831" y="349" on="0"/>
        <pt x="638" y="197" on="1"/>
        <pt x="666" y="152" on="0"/>
        <pt x="750" y="151" on="1"/>
        <pt x="787" y="151" on="0"/>
        <pt x="822" y="159" on="1"/>
        <pt x="885" y="173" on="0"/>
        <pt x="972" y="230" on="1"/>
        <pt x="1029" y="267" on="0"/>
        <pt x="1051" y="267" on="1"/>
        <pt x="1064" y="267" on="0"/>
        <pt x="1078" y="259" on="1"/>
        <pt x="1111" y="240" on="0"/>
        <pt x="1111" y="204" on="1"/>
        <pt x="1111" y="192" on="0"/>
        <pt x="1107" y="179" on="1"/>
        <pt x="1081" y="104" on="0"/>
        <pt x="926" y="46" on="1"/>
        <pt x="807" y="2" on="0"/>
        <pt x="723" y="2" on="1"/>
        <pt x="573" y="3" on="0"/>
        <pt x="512" y="107" on="1"/>
        <pt x="500" y="99" on="0"/>
        <pt x="477" y="82" on="1"/>
        <pt x="456" y="67" on="0"/>
        <pt x="446" y="60" on="1"/>
        <pt x="362" y="2" on="0"/>
        <pt x="289" y="2" on="1"/>
        <pt x="195" y="2" on="0"/>
        <pt x="135" y="71" on="1"/>
        <pt x="60" y="159" on="0"/>
        <pt x="60" y="320" on="1"/>
        <pt x="60" y="357" on="0"/>
        <pt x="65" y="398" on="1"/>
        <pt x="88" y="568" on="0"/>
        <pt x="177" y="700" on="1"/>
        <pt x="286" y="860" on="0"/>
      </contour>
      <contour>
        <pt x="471" y="257" on="1"/>
        <pt x="466" y="298" on="0"/>
        <pt x="466" y="337" on="1"/>
        <pt x="466" y="413" on="0"/>
        <pt x="489" y="581" on="1"/>
        <pt x="501" y="671" on="0"/>
        <pt x="505" y="711" on="1"/>
        <pt x="484" y="728" on="0"/>
        <pt x="453" y="729" on="1"/>
        <pt x="437" y="729" on="0"/>
        <pt x="421" y="725" on="1"/>
        <pt x="326" y="702" on="0"/>
        <pt x="262" y="553" on="1"/>
        <pt x="206" y="422" on="0"/>
        <pt x="206" y="287" on="1"/>
        <pt x="206" y="242" on="0"/>
        <pt x="224" y="206" on="1"/>
        <pt x="250" y="155" on="0"/>
        <pt x="291" y="155" on="1"/>
        <pt x="323" y="155" on="0"/>
      </contour>
      <contour>
        <pt x="803" y="707" on="1"/>
        <pt x="761" y="684" on="0"/>
        <pt x="724" y="634" on="1"/>
        <pt x="650" y="531" on="0"/>
        <pt x="626" y="374" on="1"/>
        <pt x="647" y="392" on="0"/>
        <pt x="669" y="410" on="1"/>
        <pt x="896" y="603" on="0"/>
        <pt x="896" y="673" on="1"/>
        <pt x="896" y="681" on="0"/>
        <pt x="894" y="690" on="1"/>
        <pt x="884" y="721" on="0"/>
        <pt x="850" y="721" on="1"/>
        <pt x="829" y="721" on="0"/>
      </contour>
    </TTGlyph>
    <TTGlyph name="agrave" xMin="34" yMin="-5" xMax="937" yMax="1238">
      <component glyphName="grave" x="-145" y="0" flags="0x1004"/>
      <component glyphName="a" x="0" y="0" flags="0x1004"/>
    </TTGlyph>
    <TTGlyph name="ampersand" xMin="235" yMin="2" xMax="1233" yMax="1549">
      <contour>
        <pt x="1143" y="262" on="1"/>
        <pt x="1177" y="210" on="0"/>
        <pt x="1195" y="180" on="1"/>
        <pt x="1233" y="119" on="0"/>
        <pt x="1233" y="92" on="1"/>
        <pt x="1233" y="73" on="0"/>
        <pt x="1224" y="56" on="1"/>
        <pt x="1203" y="15" on="0"/>
        <pt x="1153" y="15" on="1"/>
        <pt x="1135" y="15" on="0"/>
        <pt x="1117" y="25" on="1"/>
        <pt x="1086" y="43" on="0"/>
        <pt x="1044" y="110" on="1"/>
        <pt x="1036" y="123" on="0"/>
        <pt x="1032" y="129" on="1"/>
        <pt x="1002" y="99" on="0"/>
        <pt x="961" y="74" on="1"/>
        <pt x="842" y="2" on="0"/>
        <pt x="696" y="2" on="1"/>
        <pt x="666" y="2" on="0"/>
        <pt x="636" y="6" on="1"/>
        <pt x="467" y="27" on="0"/>
        <pt x="353" y="151" on="1"/>
        <pt x="235" y="281" on="0"/>
        <pt x="235" y="461" on="1"/>
        <pt x="235" y="558" on="0"/>
        <pt x="274" y="650" on="1"/>
        <pt x="344" y="814" on="0"/>
        <pt x="515" y="913" on="1"/>
        <pt x="423" y="1051" on="0"/>
        <pt x="422" y="1205" on="1"/>
        <pt x="422" y="1211" on="0"/>
        <pt x="423" y="1218" on="1"/>
        <pt x="435" y="1355" on="0"/>
        <pt x="539" y="1451" on="1"/>
        <pt x="644" y="1549" on="0"/>
        <pt x="784" y="1549" on="1"/>
        <pt x="918" y="1549" on="0"/>
        <pt x="1012" y="1455" on="1"/>
        <pt x="1110" y="1356" on="0"/>
        <pt x="1110" y="1205" on="1"/>
        <pt x="1102" y="1074" on="0"/>
        <pt x="1005" y="972" on="1"/>
        <pt x="923" y="889" on="0"/>
        <pt x="769" y="824" on="1"/>
        <pt x="1037" y="422" on="1"/>
        <pt x="1052" y="483" on="0"/>
        <pt x="1053" y="486" on="1"/>
        <pt x="1060" y="523" on="0"/>
        <pt x="1092" y="544" on="1"/>
        <pt x="1112" y="556" on="0"/>
        <pt x="1134" y="556" on="1"/>
        <pt x="1151" y="556" on="0"/>
        <pt x="1167" y="547" on="1"/>
        <pt x="1207" y="523" on="0"/>
        <pt x="1207" y="469" on="1"/>
        <pt x="1207" y="382" on="0"/>
      </contour>
      <contour>
        <pt x="776" y="1394" on="1"/>
        <pt x="706" y="1394" on="0"/>
        <pt x="651" y="1350" on="1"/>
        <pt x="577" y="1290" on="0"/>
        <pt x="577" y="1193" on="1"/>
        <pt x="577" y="1162" on="0"/>
        <pt x="587" y="1129" on="1"/>
        <pt x="605" y="1072" on="0"/>
        <pt x="682" y="955" on="1"/>
        <pt x="693" y="959" on="0"/>
        <pt x="705" y="963" on="1"/>
        <pt x="839" y="1015" on="0"/>
        <pt x="900" y="1080" on="1"/>
        <pt x="949" y="1132" on="0"/>
        <pt x="956" y="1214" on="1"/>
        <pt x="956" y="1278" on="0"/>
        <pt x="916" y="1328" on="1"/>
        <pt x="862" y="1394" on="0"/>
      </contour>
      <contour>
        <pt x="388" y="459" on="1"/>
        <pt x="391" y="338" on="0"/>
        <pt x="481" y="242" on="1"/>
        <pt x="575" y="150" on="0"/>
        <pt x="704" y="150" on="1"/>
        <pt x="729" y="150" on="0"/>
        <pt x="756" y="154" on="1"/>
        <pt x="878" y="173" on="0"/>
        <pt x="947" y="255" on="1"/>
        <pt x="599" y="782" on="1"/>
        <pt x="527" y="753" on="0"/>
        <pt x="471" y="685" on="1"/>
        <pt x="388" y="582" on="0"/>
      </contour>
    </TTGlyph>
    <TTGlyph name="ar" xMin="138" yMin="2" xMax="1754" yMax="954">
      <contour>
        <pt x="138" y="321" on="1"/>
        <pt x="138" y="355" on="0"/>
        <pt x="142" y="393" on="1"/>
        <pt x="163" y="564" on="0"/>
        <pt x="250" y="697" on="1"/>
        <pt x="356" y="860" on="0"/>
        <pt x="505" y="860" on="1"/>
        <pt x="570" y="860" on="0"/>
        <pt x="618" y="836" on="1"/>
        <pt x="637" y="859" on="0"/>
        <pt x="671" y="860" on="1"/>
        <pt x="687" y="860" on="0"/>
        <pt x="701" y="856" on="1"/>
        <pt x="739" y="842" on="0"/>
        <pt x="739" y="772" on="1"/>
        <pt x="739" y="743" on="0"/>
        <pt x="729" y="648" on="1"/>
        <pt x="699" y="362" on="0"/>
        <pt x="699" y="294" on="1"/>
        <pt x="699" y="248" on="0"/>
        <pt x="717" y="208" on="1"/>
        <pt x="745" y="148" on="0"/>
        <pt x="792" y="148" on="1"/>
        <pt x="811" y="148" on="0"/>
        <pt x="830" y="155" on="1"/>
        <pt x="971" y="204" on="0"/>
        <pt x="1069" y="587" on="1"/>
        <pt x="1029" y="597" on="0"/>
        <pt x="995" y="620" on="1"/>
        <pt x="904" y="681" on="0"/>
        <pt x="904" y="797" on="1"/>
        <pt x="904" y="840" on="0"/>
        <pt x="926" y="878" on="1"/>
        <pt x="970" y="954" on="0"/>
        <pt x="1066" y="954" on="1"/>
        <pt x="1115" y="954" on="0"/>
        <pt x="1159" y="928" on="1"/>
        <pt x="1231" y="883" on="0"/>
        <pt x="1231" y="804" on="1"/>
        <pt x="1231" y="772" on="0"/>
        <pt x="1226" y="722" on="1"/>
        <pt x="1250" y="735" on="0"/>
        <pt x="1296" y="766" on="1"/>
        <pt x="1350" y="804" on="0"/>
        <pt x="1377" y="804" on="1"/>
        <pt x="1408" y="804" on="0"/>
        <pt x="1433" y="788" on="1"/>
        <pt x="1462" y="770" on="0"/>
        <pt x="1462" y="751" on="1"/>
        <pt x="1462" y="745" on="0"/>
        <pt x="1455" y="719" on="1"/>
        <pt x="1403" y="546" on="0"/>
        <pt x="1403" y="414" on="1"/>
        <pt x="1403" y="316" on="0"/>
        <pt x="1423" y="254" on="1"/>
        <pt x="1451" y="172" on="0"/>
        <pt x="1506" y="172" on="1"/>
        <pt x="1537" y="174" on="0"/>
        <pt x="1607" y="216" on="1"/>
        <pt x="1668" y="257" on="0"/>
        <pt x="1698" y="257" on="1"/>
        <pt x="1713" y="257" on="0"/>
        <pt x="1728" y="246" on="1"/>
        <pt x="1754" y="227" on="0"/>
        <pt x="1754" y="201" on="1"/>
        <pt x="1751" y="145" on="0"/>
        <pt x="1676" y="87" on="1"/>
        <pt x="1587" y="22" on="0"/>
        <pt x="1486" y="22" on="1"/>
        <pt x="1474" y="22" on="0"/>
        <pt x="1461" y="23" on="1"/>
        <pt x="1350" y="37" on="0"/>
        <pt x="1298" y="151" on="1"/>
        <pt x="1260" y="218" on="0"/>
        <pt x="1260" y="383" on="1"/>
        <pt x="1260" y="415" on="0"/>
        <pt x="1262" y="451" on="1"/>
        <pt x="1268" y="560" on="0"/>
        <pt x="1280" y="607" on="1"/>
        <pt x="1249" y="592" on="0"/>
        <pt x="1205" y="583" on="1"/>
        <pt x="1199" y="552" on="0"/>
        <pt x="1192" y="522" on="1"/>
        <pt x="1069" y="2" on="0"/>
        <pt x="768" y="2" on="1"/>
        <pt x="642" y="3" on="0"/>
        <pt x="584" y="129" on="1"/>
        <pt x="571" y="114" on="0"/>
        <pt x="554" y="98" on="1"/>
        <pt x="453" y="2" on="0"/>
        <pt x="350" y="2" on="1"/>
        <pt x="286" y="2" on="0"/>
        <pt x="239" y="35" on="1"/>
        <pt x="138" y="109" on="0"/>
      </contour>
      <contour>
        <pt x="573" y="617" on="1"/>
        <pt x="574" y="623" on="0"/>
        <pt x="585" y="717" on="1"/>
        <pt x="560" y="729" on="0"/>
        <pt x="539" y="729" on="1"/>
        <pt x="520" y="729" on="0"/>
        <pt x="501" y="724" on="1"/>
        <pt x="409" y="696" on="0"/>
        <pt x="345" y="550" on="1"/>
        <pt x="287" y="419" on="0"/>
        <pt x="287" y="289" on="1"/>
        <pt x="287" y="270" on="0"/>
        <pt x="289" y="253" on="1"/>
        <pt x="298" y="156" on="0"/>
        <pt x="350" y="156" on="1"/>
        <pt x="378" y="156" on="0"/>
        <pt x="418" y="184" on="1"/>
        <pt x="465" y="217" on="0"/>
        <pt x="493" y="253" on="1"/>
        <pt x="501" y="265" on="0"/>
        <pt x="515" y="316" on="1"/>
        <pt x="554" y="462" on="0"/>
      </contour>
      <contour>
        <pt x="1025" y="790" on="1"/>
        <pt x="1026" y="734" on="0"/>
        <pt x="1095" y="710" on="1"/>
        <pt x="1105" y="772" on="0"/>
        <pt x="1105" y="790" on="1"/>
        <pt x="1105" y="796" on="0"/>
        <pt x="1103" y="803" on="1"/>
        <pt x="1096" y="831" on="0"/>
        <pt x="1067" y="831" on="1"/>
        <pt x="1061" y="831" on="0"/>
        <pt x="1054" y="829" on="1"/>
        <pt x="1025" y="820" on="0"/>
      </contour>
    </TTGlyph>
    <TTGlyph name="aring" xMin="34" yMin="-5" xMax="937" yMax="1326">
      <component glyphName="ring" x="-177" y="0" flags="0x1004"/>
      <component glyphName="a" x="0" y="0" flags="0x1004"/>
    </TTGlyph>
    <TTGlyph name="as" xMin="76" yMin="2" xMax="1498" yMax="860">
      <contour>
        <pt x="933" y="474" on="1"/>
        <pt x="933" y="474" on="0"/>
        <pt x="1013" y="792" on="1"/>
        <pt x="1034" y="844" on="0"/>
        <pt x="1087" y="845" on="1"/>
        <pt x="1107" y="844" on="0"/>
        <pt x="1127" y="841" on="1"/>
        <pt x="1295" y="814" on="0"/>
        <pt x="1400" y="670" on="1"/>
        <pt x="1498" y="535" on="0"/>
        <pt x="1498" y="362" on="1"/>
        <pt x="1496" y="255" on="0"/>
        <pt x="1448" y="144" on="1"/>
        <pt x="1393" y="23" on="0"/>
        <pt x="1319" y="23" on="1"/>
        <pt x="1299" y="23" on="0"/>
        <pt x="1281" y="40" on="1"/>
        <pt x="1255" y="65" on="0"/>
        <pt x="1255" y="95" on="1"/>
        <pt x="1255" y="108" on="0"/>
        <pt x="1260" y="122" on="1"/>
        <pt x="1260" y="122" on="0"/>
        <pt x="1272" y="144" on="1"/>
        <pt x="1344" y="259" on="0"/>
        <pt x="1345" y="377" on="1"/>
        <pt x="1345" y="391" on="0"/>
        <pt x="1344" y="405" on="1"/>
        <pt x="1334" y="534" on="0"/>
        <pt x="1243" y="624" on="1"/>
        <pt x="1185" y="684" on="0"/>
        <pt x="1137" y="685" on="1"/>
        <pt x="1127" y="647" on="0"/>
        <pt x="1104" y="547" on="1"/>
        <pt x="1053" y="323" on="0"/>
        <pt x="1006" y="221" on="1"/>
        <pt x="903" y="2" on="0"/>
        <pt x="707" y="2" on="1"/>
        <pt x="581" y="3" on="0"/>
        <pt x="523" y="129" on="1"/>
        <pt x="510" y="114" on="0"/>
        <pt x="493" y="98" on="1"/>
        <pt x="392" y="2" on="0"/>
        <pt x="289" y="2" on="1"/>
        <pt x="225" y="2" on="0"/>
        <pt x="179" y="35" on="1"/>
        <pt x="76" y="108" on="0"/>
        <pt x="76" y="321" on="1"/>
        <pt x="76" y="355" on="0"/>
        <pt x="80" y="393" on="1"/>
        <pt x="101" y="564" on="0"/>
        <pt x="188" y="697" on="1"/>
        <pt x="295" y="860" on="0"/>
        <pt x="444" y="860" on="1"/>
        <pt x="509" y="860" on="0"/>
        <pt x="557" y="835" on="1"/>
        <pt x="577" y="859" on="0"/>
        <pt x="610" y="860" on="1"/>
        <pt x="623" y="860" on="0"/>
        <pt x="635" y="857" on="1"/>
        <pt x="678" y="845" on="0"/>
        <pt x="678" y="772" on="1"/>
        <pt x="678" y="743" on="0"/>
        <pt x="668" y="647" on="1"/>
        <pt x="637" y="363" on="0"/>
        <pt x="637" y="294" on="1"/>
        <pt x="637" y="256" on="0"/>
        <pt x="650" y="221" on="1"/>
        <pt x="675" y="150" on="0"/>
        <pt x="729" y="150" on="1"/>
        <pt x="794" y="151" on="0"/>
        <pt x="844" y="228" on="1"/>
        <pt x="886" y="296" on="0"/>
      </contour>
      <contour>
        <pt x="432" y="253" on="1"/>
        <pt x="439" y="264" on="0"/>
        <pt x="449" y="296" on="1"/>
        <pt x="490" y="432" on="0"/>
        <pt x="524" y="717" on="1"/>
        <pt x="499" y="729" on="0"/>
        <pt x="478" y="729" on="1"/>
        <pt x="459" y="729" on="0"/>
        <pt x="440" y="724" on="1"/>
        <pt x="348" y="696" on="0"/>
        <pt x="284" y="550" on="1"/>
        <pt x="226" y="419" on="0"/>
        <pt x="226" y="289" on="1"/>
        <pt x="226" y="270" on="0"/>
        <pt x="228" y="253" on="1"/>
        <pt x="237" y="156" on="0"/>
        <pt x="289" y="156" on="1"/>
        <pt x="317" y="156" on="0"/>
        <pt x="357" y="184" on="1"/>
        <pt x="404" y="217" on="0"/>
      </contour>
    </TTGlyph>
    <TTGlyph name="asciicircum" xMin="290" yMin="845" xMax="1136" yMax="1544">
      <contour>
        <pt x="715" y="1544" on="1"/>
        <pt x="764" y="1543" on="0"/>
        <pt x="793" y="1501" on="1"/>
        <pt x="1123" y="984" on="1"/>
        <pt x="1135" y="963" on="0"/>
        <pt x="1136" y="937" on="1"/>
        <pt x="1136" y="911" on="0"/>
        <pt x="1122" y="889" on="1"/>
        <pt x="1096" y="845" on="0"/>
        <pt x="1044" y="845" on="1"/>
        <pt x="994" y="850" on="0"/>
        <pt x="963" y="896" on="1"/>
        <pt x="715" y="1287" on="1"/>
        <pt x="521" y="992" on="0"/>
        <pt x="461" y="894" on="1"/>
        <pt x="459" y="891" on="0"/>
        <pt x="457" y="887" on="1"/>
        <pt x="430" y="845" on="0"/>
        <pt x="380" y="845" on="1"/>
        <pt x="356" y="845" on="0"/>
        <pt x="334" y="858" on="1"/>
        <pt x="290" y="884" on="0"/>
        <pt x="290" y="937" on="1"/>
        <pt x="290" y="968" on="0"/>
        <pt x="308" y="993" on="1"/>
        <pt x="638" y="1501" on="1"/>
        <pt x="638" y="1502" on="0"/>
        <pt x="639" y="1503" on="1"/>
        <pt x="664" y="1544" on="0"/>
      </contour>
    </TTGlyph>
    <TTGlyph name="asciitilde" xMin="261" yMin="325" xMax="805" yMax="560">
      <contour>
        <pt x="742" y="560" on="1"/>
        <pt x="757" y="560" on="0"/>
        <pt x="771" y="553" on="1"/>
        <pt x="805" y="535" on="0"/>
        <pt x="805" y="497" on="1"/>
        <pt x="805" y="464" on="0"/>
        <pt x="776" y="412" on="1"/>
        <pt x="727" y="328" on="0"/>
        <pt x="633" y="327" on="1"/>
        <pt x="619" y="327" on="0"/>
        <pt x="604" y="330" on="1"/>
        <pt x="548" y="339" on="0"/>
        <pt x="489" y="398" on="1"/>
        <pt x="486" y="401" on="0"/>
        <pt x="483" y="404" on="1"/>
        <pt x="452" y="434" on="0"/>
        <pt x="431" y="434" on="1"/>
        <pt x="400" y="430" on="0"/>
        <pt x="385" y="381" on="1"/>
        <pt x="384" y="369" on="0"/>
        <pt x="377" y="357" on="1"/>
        <pt x="359" y="325" on="0"/>
        <pt x="324" y="325" on="1"/>
        <pt x="309" y="325" on="0"/>
        <pt x="295" y="332" on="1"/>
        <pt x="261" y="350" on="0"/>
        <pt x="261" y="388" on="1"/>
        <pt x="261" y="426" on="0"/>
        <pt x="289" y="475" on="1"/>
        <pt x="290" y="477" on="0"/>
        <pt x="292" y="481" on="1"/>
        <pt x="341" y="560" on="0"/>
        <pt x="431" y="560" on="1"/>
        <pt x="451" y="560" on="0"/>
        <pt x="472" y="554" on="1"/>
        <pt x="512" y="541" on="0"/>
        <pt x="572" y="489" on="1"/>
        <pt x="614" y="451" on="0"/>
        <pt x="633" y="451" on="1"/>
        <pt x="637" y="451" on="0"/>
        <pt x="641" y="452" on="1"/>
        <pt x="664" y="457" on="0"/>
        <pt x="679" y="503" on="1"/>
        <pt x="681" y="514" on="0"/>
        <pt x="686" y="525" on="1"/>
        <pt x="705" y="560" on="0"/>
      </contour>
    </TTGlyph>
    <TTGlyph name="asterisk" xMin="289" yMin="690" xMax="894" yMax="1368">
      <contour>
        <pt x="289" y="1161" on="1"/>
        <pt x="289" y="1179" on="0"/>
        <pt x="299" y="1195" on="1"/>
        <pt x="320" y="1232" on="0"/>
        <pt x="364" y="1232" on="1"/>
        <pt x="383" y="1232" on="0"/>
        <pt x="401" y="1222" on="1"/>
        <pt x="517" y="1152" on="1"/>
        <pt x="517" y="1293" on="1"/>
        <pt x="517" y="1312" on="0"/>
        <pt x="527" y="1331" on="1"/>
        <pt x="549" y="1368" on="0"/>
        <pt x="590" y="1368" on="1"/>
        <pt x="609" y="1368" on="0"/>
        <pt x="626" y="1358" on="1"/>
        <pt x="663" y="1337" on="0"/>
        <pt x="663" y="1293" on="1"/>
        <pt x="663" y="1152" on="1"/>
        <pt x="780" y="1222" on="1"/>
        <pt x="800" y="1233" on="0"/>
        <pt x="821" y="1234" on="1"/>
        <pt x="840" y="1234" on="0"/>
        <pt x="856" y="1224" on="1"/>
        <pt x="894" y="1203" on="0"/>
        <pt x="894" y="1161" on="1"/>
        <pt x="893" y="1117" on="0"/>
        <pt x="859" y="1096" on="1"/>
        <pt x="736" y="1025" on="1"/>
        <pt x="859" y="955" on="1"/>
        <pt x="893" y="935" on="0"/>
        <pt x="894" y="890" on="1"/>
        <pt x="894" y="872" on="0"/>
        <pt x="884" y="855" on="1"/>
        <pt x="863" y="817" on="0"/>
        <pt x="821" y="817" on="1"/>
        <pt x="801" y="817" on="0"/>
        <pt x="780" y="829" on="1"/>
        <pt x="665" y="897" on="1"/>
        <pt x="665" y="763" on="1"/>
        <pt x="665" y="744" on="0"/>
        <pt x="655" y="727" on="1"/>
        <pt x="632" y="690" on="0"/>
        <pt x="590" y="690" on="1"/>
        <pt x="573" y="690" on="0"/>
        <pt x="557" y="699" on="1"/>
        <pt x="519" y="721" on="0"/>
        <pt x="519" y="768" on="1"/>
        <pt x="519" y="897" on="1"/>
        <pt x="401" y="829" on="1"/>
        <pt x="384" y="820" on="0"/>
        <pt x="364" y="819" on="1"/>
        <pt x="347" y="819" on="0"/>
        <pt x="329" y="827" on="1"/>
        <pt x="289" y="848" on="0"/>
        <pt x="289" y="890" on="1"/>
        <pt x="291" y="933" on="0"/>
        <pt x="327" y="957" on="1"/>
        <pt x="446" y="1025" on="1"/>
        <pt x="327" y="1094" on="1"/>
        <pt x="326" y="1095" on="0"/>
        <pt x="324" y="1096" on="1"/>
        <pt x="289" y="1119" on="0"/>
      </contour>
    </TTGlyph>
    <TTGlyph name="at" xMin="287" yMin="-488" xMax="1560" yMax="1363">
      <contour>
        <pt x="1086" y="1363" on="1"/>
        <pt x="1295" y="1363" on="0"/>
        <pt x="1418" y="1223" on="1"/>
        <pt x="1560" y="1061" on="0"/>
        <pt x="1560" y="753" on="1"/>
        <pt x="1560" y="521" on="0"/>
        <pt x="1524" y="350" on="1"/>
        <pt x="1449" y="-3" on="0"/>
        <pt x="1239" y="-3" on="1"/>
        <pt x="1106" y="-2" on="0"/>
        <pt x="1047" y="121" on="1"/>
        <pt x="1035" y="107" on="0"/>
        <pt x="1021" y="93" on="1"/>
        <pt x="920" y="-5" on="0"/>
        <pt x="815" y="-5" on="1"/>
        <pt x="751" y="-5" on="0"/>
        <pt x="704" y="28" on="1"/>
        <pt x="603" y="102" on="0"/>
        <pt x="603" y="314" on="1"/>
        <pt x="603" y="348" on="0"/>
        <pt x="607" y="386" on="1"/>
        <pt x="628" y="558" on="0"/>
        <pt x="715" y="691" on="1"/>
        <pt x="821" y="853" on="0"/>
        <pt x="970" y="853" on="1"/>
        <pt x="1033" y="853" on="0"/>
        <pt x="1081" y="830" on="1"/>
        <pt x="1106" y="854" on="0"/>
        <pt x="1145" y="855" on="1"/>
        <pt x="1159" y="855" on="0"/>
        <pt x="1170" y="851" on="1"/>
        <pt x="1208" y="839" on="0"/>
        <pt x="1208" y="765" on="1"/>
        <pt x="1208" y="741" on="0"/>
        <pt x="1197" y="650" on="1"/>
        <pt x="1161" y="367" on="0"/>
        <pt x="1161" y="287" on="1"/>
        <pt x="1161" y="242" on="0"/>
        <pt x="1181" y="199" on="1"/>
        <pt x="1209" y="139" on="0"/>
        <pt x="1249" y="139" on="1"/>
        <pt x="1348" y="140" on="0"/>
        <pt x="1396" y="427" on="1"/>
        <pt x="1421" y="584" on="0"/>
        <pt x="1421" y="711" on="1"/>
        <pt x="1421" y="916" on="0"/>
        <pt x="1354" y="1051" on="1"/>
        <pt x="1268" y="1221" on="0"/>
        <pt x="1103" y="1221" on="1"/>
        <pt x="948" y="1221" on="0"/>
        <pt x="815" y="1114" on="1"/>
        <pt x="637" y="971" on="0"/>
        <pt x="531" y="673" on="1"/>
        <pt x="443" y="426" on="0"/>
        <pt x="443" y="197" on="1"/>
        <pt x="443" y="191" on="0"/>
        <pt x="443" y="183" on="1"/>
        <pt x="447" y="-16" on="0"/>
        <pt x="541" y="-158" on="1"/>
        <pt x="657" y="-332" on="0"/>
        <pt x="863" y="-332" on="1"/>
        <pt x="890" y="-332" on="0"/>
        <pt x="918" y="-327" on="1"/>
        <pt x="1055" y="-301" on="0"/>
        <pt x="1149" y="-175" on="1"/>
        <pt x="1169" y="-146" on="0"/>
        <pt x="1208" y="-145" on="1"/>
        <pt x="1225" y="-145" on="0"/>
        <pt x="1242" y="-152" on="1"/>
        <pt x="1286" y="-171" on="0"/>
        <pt x="1286" y="-218" on="1"/>
        <pt x="1286" y="-225" on="0"/>
        <pt x="1284" y="-233" on="1"/>
        <pt x="1273" y="-277" on="0"/>
        <pt x="1225" y="-325" on="1"/>
        <pt x="1220" y="-331" on="0"/>
        <pt x="1214" y="-337" on="1"/>
        <pt x="1072" y="-488" on="0"/>
        <pt x="841" y="-488" on="1"/>
        <pt x="569" y="-487" on="0"/>
        <pt x="419" y="-279" on="1"/>
        <pt x="287" y="-94" on="0"/>
        <pt x="287" y="197" on="1"/>
        <pt x="287" y="405" on="0"/>
        <pt x="350" y="620" on="1"/>
        <pt x="442" y="931" on="0"/>
        <pt x="623" y="1132" on="1"/>
        <pt x="831" y="1363" on="0"/>
      </contour>
      <contour>
        <pt x="958" y="246" on="1"/>
        <pt x="971" y="265" on="0"/>
        <pt x="990" y="345" on="1"/>
        <pt x="1031" y="518" on="0"/>
        <pt x="1052" y="709" on="1"/>
        <pt x="1029" y="720" on="0"/>
        <pt x="1014" y="722" on="1"/>
        <pt x="994" y="722" on="0"/>
        <pt x="974" y="717" on="1"/>
        <pt x="876" y="690" on="0"/>
        <pt x="811" y="544" on="1"/>
        <pt x="753" y="414" on="0"/>
        <pt x="753" y="282" on="1"/>
        <pt x="753" y="277" on="0"/>
        <pt x="753" y="272" on="1"/>
        <pt x="756" y="150" on="0"/>
        <pt x="815" y="150" on="1"/>
        <pt x="846" y="151" on="0"/>
        <pt x="891" y="184" on="1"/>
        <pt x="937" y="217" on="0"/>
      </contour>
    </TTGlyph>
    <TTGlyph name="atilde" xMin="34" yMin="-5" xMax="937" yMax="1272">
      <component glyphName="tilde" x="-233" y="0" flags="0x1004"/>
      <component glyphName="a" x="0" y="0" flags="0x1004"/>
    </TTGlyph>
    <TTGlyph name="b" xMin="44" yMin="0" xMax="1134" yMax="1530">
      <contour>
        <pt x="420" y="1530" on="1"/>
        <pt x="430" y="1530" on="0"/>
        <pt x="441" y="1529" on="1"/>
        <pt x="614" y="1518" on="0"/>
        <pt x="614" y="1328" on="1"/>
        <pt x="614" y="1124" on="0"/>
        <pt x="440" y="874" on="1"/>
        <pt x="326" y="711" on="0"/>
        <pt x="199" y="607" on="1"/>
        <pt x="207" y="543" on="0"/>
        <pt x="219" y="488" on="1"/>
        <pt x="290" y="148" on="0"/>
        <pt x="474" y="148" on="1"/>
        <pt x="545" y="148" on="0"/>
        <pt x="609" y="189" on="1"/>
        <pt x="725" y="264" on="0"/>
        <pt x="794" y="449" on="1"/>
        <pt x="745" y="456" on="0"/>
        <pt x="704" y="478" on="1"/>
        <pt x="598" y="536" on="0"/>
        <pt x="598" y="666" on="1"/>
        <pt x="598" y="732" on="0"/>
        <pt x="646" y="781" on="1"/>
        <pt x="700" y="836" on="0"/>
        <pt x="773" y="836" on="1"/>
        <pt x="845" y="836" on="0"/>
        <pt x="897" y="796" on="1"/>
        <pt x="967" y="741" on="0"/>
        <pt x="967" y="644" on="1"/>
        <pt x="966" y="604" on="0"/>
        <pt x="966" y="603" on="1"/>
        <pt x="983" y="611" on="0"/>
        <pt x="1008" y="626" on="1"/>
        <pt x="1047" y="651" on="0"/>
        <pt x="1073" y="651" on="1"/>
        <pt x="1087" y="651" on="0"/>
        <pt x="1101" y="643" on="1"/>
        <pt x="1134" y="625" on="0"/>
        <pt x="1134" y="586" on="1"/>
        <pt x="1134" y="563" on="0"/>
        <pt x="1117" y="542" on="1"/>
        <pt x="1071" y="485" on="0"/>
        <pt x="938" y="457" on="1"/>
        <pt x="893" y="294" on="0"/>
        <pt x="796" y="172" on="1"/>
        <pt x="659" y="0" on="0"/>
        <pt x="486" y="0" on="1"/>
        <pt x="238" y="1" on="0"/>
        <pt x="123" y="309" on="1"/>
        <pt x="44" y="523" on="0"/>
        <pt x="44" y="818" on="1"/>
        <pt x="44" y="835" on="0"/>
        <pt x="46" y="861" on="1"/>
        <pt x="60" y="1071" on="0"/>
        <pt x="125" y="1247" on="1"/>
        <pt x="230" y="1530" on="0"/>
      </contour>
      <contour>
        <pt x="206" y="945" on="1"/>
        <pt x="195" y="864" on="0"/>
        <pt x="192" y="789" on="1"/>
        <pt x="255" y="852" on="0"/>
        <pt x="319" y="941" on="1"/>
        <pt x="478" y="1162" on="0"/>
        <pt x="478" y="1316" on="1"/>
        <pt x="478" y="1324" on="0"/>
        <pt x="474" y="1335" on="1"/>
        <pt x="458" y="1379" on="0"/>
        <pt x="422" y="1379" on="1"/>
        <pt x="341" y="1378" on="0"/>
        <pt x="286" y="1271" on="1"/>
        <pt x="236" y="1171" on="0"/>
      </contour>
      <contour>
        <pt x="787" y="697" on="1"/>
        <pt x="777" y="697" on="0"/>
        <pt x="766" y="693" on="1"/>
        <pt x="734" y="681" on="0"/>
        <pt x="734" y="649" on="1"/>
        <pt x="735" y="592" on="0"/>
        <pt x="830" y="583" on="1"/>
        <pt x="830" y="590" on="0"/>
        <pt x="831" y="604" on="1"/>
        <pt x="833" y="625" on="0"/>
        <pt x="833" y="634" on="1"/>
        <pt x="833" y="639" on="0"/>
        <pt x="832" y="645" on="1"/>
        <pt x="827" y="697" on="0"/>
      </contour>
    </TTGlyph>
    <TTGlyph name="b.alt" xMin="83" yMin="0" xMax="1133" yMax="1528">
      <contour>
        <pt x="493" y="1528" on="1"/>
        <pt x="560" y="1528" on="0"/>
        <pt x="607" y="1490" on="1"/>
        <pt x="683" y="1426" on="0"/>
        <pt x="683" y="1280" on="1"/>
        <pt x="683" y="1095" on="0"/>
        <pt x="588" y="839" on="1"/>
        <pt x="476" y="534" on="0"/>
        <pt x="298" y="300" on="1"/>
        <pt x="329" y="230" on="0"/>
        <pt x="362" y="194" on="1"/>
        <pt x="405" y="148" on="0"/>
        <pt x="474" y="148" on="1"/>
        <pt x="547" y="148" on="0"/>
        <pt x="612" y="192" on="1"/>
        <pt x="726" y="268" on="0"/>
        <pt x="794" y="449" on="1"/>
        <pt x="747" y="456" on="0"/>
        <pt x="708" y="477" on="1"/>
        <pt x="598" y="534" on="0"/>
        <pt x="598" y="666" on="1"/>
        <pt x="598" y="732" on="0"/>
        <pt x="646" y="781" on="1"/>
        <pt x="700" y="836" on="0"/>
        <pt x="773" y="836" on="1"/>
        <pt x="841" y="836" on="0"/>
        <pt x="889" y="802" on="1"/>
        <pt x="966" y="746" on="0"/>
        <pt x="966" y="630" on="1"/>
        <pt x="966" y="613" on="0"/>
        <pt x="965" y="603" on="1"/>
        <pt x="984" y="611" on="0"/>
        <pt x="1011" y="627" on="1"/>
        <pt x="1049" y="651" on="0"/>
        <pt x="1073" y="651" on="1"/>
        <pt x="1086" y="651" on="0"/>
        <pt x="1098" y="644" on="1"/>
        <pt x="1133" y="627" on="0"/>
        <pt x="1133" y="587" on="1"/>
        <pt x="1133" y="567" on="0"/>
        <pt x="1119" y="546" on="1"/>
        <pt x="1077" y="488" on="0"/>
        <pt x="939" y="457" on="1"/>
        <pt x="895" y="297" on="0"/>
        <pt x="802" y="177" on="1"/>
        <pt x="666" y="0" on="0"/>
        <pt x="490" y="0" on="1"/>
        <pt x="302" y="1" on="0"/>
        <pt x="196" y="177" on="1"/>
        <pt x="83" y="369" on="0"/>
        <pt x="83" y="726" on="1"/>
        <pt x="83" y="748" on="0"/>
        <pt x="85" y="778" on="1"/>
        <pt x="98" y="1026" on="0"/>
        <pt x="170" y="1222" on="1"/>
        <pt x="282" y="1528" on="0"/>
      </contour>
      <contour>
        <pt x="252" y="940" on="1"/>
        <pt x="228" y="811" on="0"/>
        <pt x="228" y="681" on="1"/>
        <pt x="228" y="569" on="0"/>
        <pt x="247" y="468" on="1"/>
        <pt x="314" y="567" on="0"/>
        <pt x="370" y="680" on="1"/>
        <pt x="533" y="1010" on="0"/>
        <pt x="541" y="1316" on="1"/>
        <pt x="541" y="1323" on="0"/>
        <pt x="538" y="1333" on="1"/>
        <pt x="526" y="1377" on="0"/>
        <pt x="490" y="1377" on="1"/>
        <pt x="414" y="1376" on="0"/>
        <pt x="357" y="1285" on="1"/>
        <pt x="294" y="1182" on="0"/>
      </contour>
      <contour>
        <pt x="787" y="697" on="1"/>
        <pt x="777" y="697" on="0"/>
        <pt x="766" y="693" on="1"/>
        <pt x="734" y="681" on="0"/>
        <pt x="734" y="649" on="1"/>
        <pt x="734" y="642" on="0"/>
        <pt x="736" y="634" on="1"/>
        <pt x="749" y="589" on="0"/>
        <pt x="830" y="583" on="1"/>
        <pt x="834" y="606" on="0"/>
        <pt x="834" y="631" on="1"/>
        <pt x="834" y="696" on="0"/>
      </contour>
    </TTGlyph>
    <TTGlyph name="backslash" xMin="166" yMin="-49" xMax="876" yMax="1504">
      <contour>
        <pt x="863" y="66" on="1"/>
        <pt x="876" y="39" on="0"/>
        <pt x="876" y="19" on="1"/>
        <pt x="876" y="0" on="0"/>
        <pt x="864" y="-18" on="1"/>
        <pt x="841" y="-49" on="0"/>
        <pt x="803" y="-49" on="1"/>
        <pt x="762" y="-48" on="0"/>
        <pt x="735" y="0" on="1"/>
        <pt x="731" y="9" on="0"/>
        <pt x="675" y="146" on="1"/>
        <pt x="236" y="1232" on="0"/>
        <pt x="178" y="1389" on="1"/>
        <pt x="166" y="1420" on="0"/>
        <pt x="166" y="1433" on="1"/>
        <pt x="166" y="1451" on="0"/>
        <pt x="175" y="1468" on="1"/>
        <pt x="197" y="1504" on="0"/>
        <pt x="239" y="1504" on="1"/>
        <pt x="280" y="1503" on="0"/>
        <pt x="305" y="1459" on="1"/>
        <pt x="334" y="1402" on="0"/>
        <pt x="830" y="150" on="1"/>
        <pt x="862" y="68" on="0"/>
      </contour>
    </TTGlyph>
    <TTGlyph name="backslash.001" xMin="184" yMin="-109" xMax="926" yMax="1161">
      <contour>
        <pt x="913" y="8" on="1"/>
        <pt x="925" y="-16" on="0"/>
        <pt x="926" y="-39" on="1"/>
        <pt x="926" y="-59" on="0"/>
        <pt x="914" y="-77" on="1"/>
        <pt x="892" y="-109" on="0"/>
        <pt x="852" y="-109" on="1"/>
        <pt x="812" y="-108" on="0"/>
        <pt x="784" y="-60" on="1"/>
        <pt x="781" y="-53" on="0"/>
        <pt x="747" y="10" on="1"/>
        <pt x="300" y="855" on="0"/>
        <pt x="195" y="1044" on="1"/>
        <pt x="185" y="1067" on="0"/>
        <pt x="184" y="1088" on="1"/>
        <pt x="184" y="1107" on="0"/>
        <pt x="194" y="1125" on="1"/>
        <pt x="216" y="1161" on="0"/>
        <pt x="258" y="1161" on="1"/>
        <pt x="300" y="1160" on="0"/>
        <pt x="325" y="1115" on="1"/>
        <pt x="333" y="1099" on="0"/>
        <pt x="417" y="942" on="1"/>
        <pt x="909" y="17" on="0"/>
      </contour>
    </TTGlyph>
    <TTGlyph name="bar" xMin="263" yMin="-82" xMax="409" yMax="1552">
      <contour>
        <pt x="409" y="1469" on="1"/>
        <pt x="409" y="1469" on="0"/>
        <pt x="409" y="0" on="1"/>
        <pt x="409" y="-24" on="0"/>
        <pt x="400" y="-43" on="1"/>
        <pt x="380" y="-82" on="0"/>
        <pt x="332" y="-82" on="1"/>
        <pt x="326" y="-81" on="0"/>
        <pt x="319" y="-80" on="1"/>
        <pt x="263" y="-65" on="0"/>
        <pt x="263" y="2" on="1"/>
        <pt x="263" y="1469" on="1"/>
        <pt x="263" y="1481" on="0"/>
        <pt x="265" y="1493" on="1"/>
        <pt x="277" y="1552" on="0"/>
        <pt x="341" y="1552" on="1"/>
        <pt x="359" y="1552" on="0"/>
        <pt x="374" y="1542" on="1"/>
        <pt x="409" y="1520" on="0"/>
      </contour>
    </TTGlyph>
    <TTGlyph name="br" xMin="56" yMin="10" xMax="1909" yMax="1540">
      <contour>
        <pt x="432" y="1540" on="1"/>
        <pt x="442" y="1540" on="0"/>
        <pt x="453" y="1539" on="1"/>
        <pt x="626" y="1528" on="0"/>
        <pt x="626" y="1338" on="1"/>
        <pt x="626" y="1134" on="0"/>
        <pt x="450" y="881" on="1"/>
        <pt x="337" y="719" on="0"/>
        <pt x="212" y="617" on="1"/>
        <pt x="220" y="553" on="0"/>
        <pt x="232" y="497" on="1"/>
        <pt x="303" y="158" on="0"/>
        <pt x="486" y="158" on="1"/>
        <pt x="543" y="158" on="0"/>
        <pt x="597" y="185" on="1"/>
        <pt x="718" y="247" on="0"/>
        <pt x="794" y="429" on="1"/>
        <pt x="749" y="447" on="0"/>
        <pt x="712" y="476" on="1"/>
        <pt x="610" y="556" on="0"/>
        <pt x="610" y="677" on="1"/>
        <pt x="610" y="743" on="0"/>
        <pt x="658" y="792" on="1"/>
        <pt x="712" y="847" on="0"/>
        <pt x="785" y="847" on="1"/>
        <pt x="857" y="847" on="0"/>
        <pt x="909" y="806" on="1"/>
        <pt x="979" y="751" on="0"/>
        <pt x="979" y="654" on="1"/>
        <pt x="979" y="597" on="0"/>
        <pt x="965" y="528" on="1"/>
        <pt x="1090" y="534" on="0"/>
        <pt x="1175" y="595" on="1"/>
        <pt x="1170" y="597" on="0"/>
        <pt x="1165" y="600" on="1"/>
        <pt x="1059" y="659" on="0"/>
        <pt x="1059" y="787" on="1"/>
        <pt x="1059" y="830" on="0"/>
        <pt x="1081" y="868" on="1"/>
        <pt x="1125" y="943" on="0"/>
        <pt x="1221" y="943" on="1"/>
        <pt x="1280" y="943" on="0"/>
        <pt x="1321" y="910" on="1"/>
        <pt x="1386" y="857" on="0"/>
        <pt x="1386" y="750" on="1"/>
        <pt x="1386" y="738" on="0"/>
        <pt x="1384" y="714" on="1"/>
        <pt x="1407" y="726" on="0"/>
        <pt x="1450" y="756" on="1"/>
        <pt x="1506" y="794" on="0"/>
        <pt x="1531" y="794" on="1"/>
        <pt x="1561" y="794" on="0"/>
        <pt x="1587" y="778" on="1"/>
        <pt x="1616" y="759" on="0"/>
        <pt x="1616" y="741" on="1"/>
        <pt x="1616" y="732" on="0"/>
        <pt x="1610" y="709" on="1"/>
        <pt x="1557" y="531" on="0"/>
        <pt x="1557" y="403" on="1"/>
        <pt x="1557" y="297" on="0"/>
        <pt x="1582" y="233" on="1"/>
        <pt x="1610" y="161" on="0"/>
        <pt x="1661" y="161" on="1"/>
        <pt x="1691" y="164" on="0"/>
        <pt x="1761" y="205" on="1"/>
        <pt x="1823" y="246" on="0"/>
        <pt x="1853" y="246" on="1"/>
        <pt x="1867" y="246" on="0"/>
        <pt x="1882" y="237" on="1"/>
        <pt x="1909" y="218" on="0"/>
        <pt x="1909" y="190" on="1"/>
        <pt x="1906" y="135" on="0"/>
        <pt x="1831" y="77" on="1"/>
        <pt x="1741" y="12" on="0"/>
        <pt x="1640" y="12" on="1"/>
        <pt x="1608" y="12" on="0"/>
        <pt x="1579" y="20" on="1"/>
        <pt x="1415" y="67" on="0"/>
        <pt x="1415" y="374" on="1"/>
        <pt x="1415" y="481" on="0"/>
        <pt x="1435" y="597" on="1"/>
        <pt x="1389" y="575" on="0"/>
        <pt x="1330" y="568" on="1"/>
        <pt x="1308" y="537" on="0"/>
        <pt x="1274" y="509" on="1"/>
        <pt x="1142" y="401" on="0"/>
        <pt x="929" y="401" on="1"/>
        <pt x="884" y="280" on="0"/>
        <pt x="813" y="187" on="1"/>
        <pt x="676" y="10" on="0"/>
        <pt x="498" y="10" on="1"/>
        <pt x="250" y="11" on="0"/>
        <pt x="135" y="319" on="1"/>
        <pt x="56" y="533" on="0"/>
        <pt x="56" y="828" on="1"/>
        <pt x="56" y="845" on="0"/>
        <pt x="58" y="871" on="1"/>
        <pt x="72" y="1081" on="0"/>
        <pt x="137" y="1257" on="1"/>
        <pt x="242" y="1540" on="0"/>
      </contour>
      <contour>
        <pt x="218" y="955" on="1"/>
        <pt x="206" y="872" on="0"/>
        <pt x="205" y="801" on="1"/>
        <pt x="267" y="864" on="0"/>
        <pt x="331" y="952" on="1"/>
        <pt x="490" y="1173" on="0"/>
        <pt x="490" y="1326" on="1"/>
        <pt x="490" y="1334" on="0"/>
        <pt x="486" y="1345" on="1"/>
        <pt x="470" y="1389" on="0"/>
        <pt x="433" y="1389" on="1"/>
        <pt x="353" y="1388" on="0"/>
        <pt x="299" y="1283" on="1"/>
        <pt x="248" y="1182" on="0"/>
      </contour>
      <contour>
        <pt x="799" y="707" on="1"/>
        <pt x="788" y="707" on="0"/>
        <pt x="778" y="703" on="1"/>
        <pt x="747" y="691" on="0"/>
        <pt x="747" y="660" on="1"/>
        <pt x="747" y="653" on="0"/>
        <pt x="749" y="644" on="1"/>
        <pt x="761" y="587" on="0"/>
        <pt x="832" y="546" on="1"/>
        <pt x="846" y="604" on="0"/>
        <pt x="846" y="644" on="1"/>
        <pt x="846" y="706" on="0"/>
      </contour>
      <contour>
        <pt x="1180" y="780" on="1"/>
        <pt x="1181" y="723" on="0"/>
        <pt x="1254" y="698" on="1"/>
        <pt x="1263" y="724" on="0"/>
        <pt x="1263" y="751" on="1"/>
        <pt x="1263" y="765" on="0"/>
        <pt x="1260" y="778" on="1"/>
        <pt x="1251" y="820" on="0"/>
        <pt x="1217" y="820" on="1"/>
        <pt x="1212" y="820" on="0"/>
        <pt x="1207" y="819" on="1"/>
        <pt x="1180" y="811" on="0"/>
      </contour>
    </TTGlyph>
    <TTGlyph name="braceleft" xMin="222" yMin="-180" xMax="799" yMax="1573">
      <contour>
        <pt x="658" y="138" on="1"/>
        <pt x="729" y="134" on="0"/>
        <pt x="731" y="31" on="1"/>
        <pt x="725" y="-61" on="0"/>
        <pt x="668" y="-119" on="1"/>
        <pt x="606" y="-179" on="0"/>
        <pt x="515" y="-180" on="1"/>
        <pt x="509" y="-180" on="0"/>
        <pt x="504" y="-180" on="1"/>
        <pt x="392" y="-175" on="0"/>
        <pt x="328" y="-95" on="1"/>
        <pt x="281" y="-34" on="0"/>
        <pt x="280" y="73" on="1"/>
        <pt x="280" y="108" on="0"/>
        <pt x="286" y="146" on="1"/>
        <pt x="296" y="202" on="0"/>
        <pt x="343" y="334" on="1"/>
        <pt x="392" y="469" on="0"/>
        <pt x="392" y="551" on="1"/>
        <pt x="392" y="561" on="0"/>
        <pt x="391" y="571" on="1"/>
        <pt x="381" y="637" on="0"/>
        <pt x="292" y="641" on="1"/>
        <pt x="277" y="642" on="0"/>
        <pt x="262" y="649" on="1"/>
        <pt x="222" y="669" on="0"/>
        <pt x="222" y="712" on="1"/>
        <pt x="222" y="727" on="0"/>
        <pt x="230" y="741" on="1"/>
        <pt x="251" y="775" on="0"/>
        <pt x="299" y="775" on="1"/>
        <pt x="407" y="776" on="0"/>
        <pt x="409" y="865" on="1"/>
        <pt x="409" y="949" on="0"/>
        <pt x="377" y="1093" on="1"/>
        <pt x="345" y="1240" on="0"/>
        <pt x="345" y="1313" on="1"/>
        <pt x="345" y="1434" on="0"/>
        <pt x="413" y="1505" on="1"/>
        <pt x="476" y="1572" on="0"/>
        <pt x="593" y="1573" on="1"/>
        <pt x="691" y="1566" on="0"/>
        <pt x="751" y="1494" on="1"/>
        <pt x="798" y="1436" on="0"/>
        <pt x="799" y="1338" on="1"/>
        <pt x="790" y="1239" on="0"/>
        <pt x="720" y="1238" on="1"/>
        <pt x="693" y="1240" on="0"/>
        <pt x="678" y="1253" on="1"/>
        <pt x="656" y="1274" on="0"/>
        <pt x="656" y="1353" on="1"/>
        <pt x="656" y="1366" on="0"/>
        <pt x="653" y="1378" on="1"/>
        <pt x="641" y="1431" on="0"/>
        <pt x="586" y="1435" on="1"/>
        <pt x="581" y="1435" on="0"/>
        <pt x="574" y="1435" on="1"/>
        <pt x="491" y="1428" on="0"/>
        <pt x="484" y="1324" on="1"/>
        <pt x="484" y="1242" on="0"/>
        <pt x="514" y="1122" on="1"/>
        <pt x="550" y="973" on="0"/>
        <pt x="550" y="855" on="1"/>
        <pt x="550" y="773" on="0"/>
        <pt x="498" y="714" on="1"/>
        <pt x="497" y="713" on="0"/>
        <pt x="496" y="712" on="1"/>
        <pt x="496" y="712" on="0"/>
        <pt x="484" y="699" on="1"/>
        <pt x="498" y="684" on="1"/>
        <pt x="532" y="627" on="0"/>
        <pt x="533" y="554" on="1"/>
        <pt x="533" y="529" on="0"/>
        <pt x="530" y="503" on="1"/>
        <pt x="522" y="422" on="0"/>
        <pt x="472" y="289" on="1"/>
        <pt x="469" y="279" on="0"/>
        <pt x="462" y="257" on="1"/>
        <pt x="420" y="133" on="0"/>
        <pt x="420" y="65" on="1"/>
        <pt x="421" y="-40" on="0"/>
        <pt x="508" y="-42" on="1"/>
        <pt x="518" y="-42" on="0"/>
        <pt x="528" y="-40" on="1"/>
        <pt x="582" y="-29" on="0"/>
        <pt x="587" y="34" on="1"/>
        <pt x="588" y="57" on="0"/>
        <pt x="591" y="72" on="1"/>
        <pt x="602" y="138" on="0"/>
      </contour>
    </TTGlyph>
    <TTGlyph name="braceright" xMin="249" yMin="-180" xMax="826" yMax="1573">
      <contour>
        <pt x="390" y="1255" on="1"/>
        <pt x="319" y="1257" on="0"/>
        <pt x="317" y="1362" on="1"/>
        <pt x="323" y="1453" on="0"/>
        <pt x="380" y="1511" on="1"/>
        <pt x="442" y="1572" on="0"/>
        <pt x="533" y="1573" on="1"/>
        <pt x="538" y="1573" on="0"/>
        <pt x="544" y="1573" on="1"/>
        <pt x="656" y="1568" on="0"/>
        <pt x="720" y="1488" on="1"/>
        <pt x="767" y="1426" on="0"/>
        <pt x="768" y="1319" on="1"/>
        <pt x="768" y="1284" on="0"/>
        <pt x="762" y="1246" on="1"/>
        <pt x="752" y="1190" on="0"/>
        <pt x="704" y="1058" on="1"/>
        <pt x="656" y="923" on="0"/>
        <pt x="656" y="842" on="1"/>
        <pt x="656" y="828" on="0"/>
        <pt x="659" y="815" on="1"/>
        <pt x="671" y="756" on="0"/>
        <pt x="756" y="752" on="1"/>
        <pt x="771" y="751" on="0"/>
        <pt x="785" y="744" on="1"/>
        <pt x="826" y="725" on="0"/>
        <pt x="826" y="680" on="1"/>
        <pt x="826" y="665" on="0"/>
        <pt x="818" y="651" on="1"/>
        <pt x="797" y="617" on="0"/>
        <pt x="749" y="617" on="1"/>
        <pt x="641" y="616" on="0"/>
        <pt x="639" y="527" on="1"/>
        <pt x="639" y="443" on="0"/>
        <pt x="671" y="299" on="1"/>
        <pt x="703" y="153" on="0"/>
        <pt x="703" y="80" on="1"/>
        <pt x="703" y="-41" on="0"/>
        <pt x="636" y="-113" on="1"/>
        <pt x="571" y="-179" on="0"/>
        <pt x="455" y="-180" on="1"/>
        <pt x="367" y="-176" on="0"/>
        <pt x="297" y="-102" on="1"/>
        <pt x="250" y="-44" on="0"/>
        <pt x="249" y="55" on="1"/>
        <pt x="258" y="154" on="0"/>
        <pt x="328" y="155" on="1"/>
        <pt x="355" y="153" on="0"/>
        <pt x="370" y="139" on="1"/>
        <pt x="392" y="118" on="0"/>
        <pt x="392" y="39" on="1"/>
        <pt x="392" y="26" on="0"/>
        <pt x="395" y="14" on="1"/>
        <pt x="407" y="-38" on="0"/>
        <pt x="462" y="-42" on="1"/>
        <pt x="471" y="-42" on="0"/>
        <pt x="479" y="-41" on="1"/>
        <pt x="558" y="-32" on="0"/>
        <pt x="564" y="68" on="1"/>
        <pt x="560" y="157" on="0"/>
        <pt x="530" y="294" on="1"/>
        <pt x="498" y="436" on="0"/>
        <pt x="498" y="537" on="1"/>
        <pt x="498" y="620" on="0"/>
        <pt x="550" y="678" on="1"/>
        <pt x="551" y="679" on="0"/>
        <pt x="552" y="680" on="1"/>
        <pt x="552" y="680" on="0"/>
        <pt x="564" y="694" on="1"/>
        <pt x="550" y="709" on="1"/>
        <pt x="516" y="766" on="0"/>
        <pt x="515" y="838" on="1"/>
        <pt x="515" y="861" on="0"/>
        <pt x="517" y="885" on="1"/>
        <pt x="525" y="969" on="0"/>
        <pt x="576" y="1103" on="1"/>
        <pt x="579" y="1113" on="0"/>
        <pt x="586" y="1135" on="1"/>
        <pt x="628" y="1259" on="0"/>
        <pt x="628" y="1328" on="1"/>
        <pt x="627" y="1433" on="0"/>
        <pt x="540" y="1435" on="1"/>
        <pt x="529" y="1435" on="0"/>
        <pt x="518" y="1433" on="1"/>
        <pt x="466" y="1420" on="0"/>
        <pt x="461" y="1358" on="1"/>
        <pt x="460" y="1334" on="0"/>
        <pt x="457" y="1320" on="1"/>
        <pt x="446" y="1255" on="0"/>
      </contour>
    </TTGlyph>
    <TTGlyph name="bracketleft" xMin="382" yMin="-146" xMax="1108" yMax="1527">
      <contour>
        <pt x="1040" y="1391" on="1"/>
        <pt x="1040" y="1391" on="0"/>
        <pt x="695" y="1391" on="1"/>
        <pt x="527" y="-10" on="1"/>
        <pt x="855" y="-10" on="1"/>
        <pt x="871" y="-10" on="0"/>
        <pt x="887" y="-18" on="1"/>
        <pt x="923" y="-37" on="0"/>
        <pt x="923" y="-78" on="1"/>
        <pt x="923" y="-94" on="0"/>
        <pt x="915" y="-110" on="1"/>
        <pt x="895" y="-146" on="0"/>
        <pt x="855" y="-146" on="1"/>
        <pt x="450" y="-146" on="1"/>
        <pt x="433" y="-146" on="0"/>
        <pt x="416" y="-137" on="1"/>
        <pt x="382" y="-118" on="0"/>
        <pt x="382" y="-85" on="1"/>
        <pt x="382" y="-80" on="0"/>
        <pt x="568" y="1467" on="1"/>
        <pt x="570" y="1478" on="0"/>
        <pt x="574" y="1488" on="1"/>
        <pt x="593" y="1527" on="0"/>
        <pt x="643" y="1527" on="1"/>
        <pt x="1040" y="1527" on="1"/>
        <pt x="1057" y="1527" on="0"/>
        <pt x="1072" y="1519" on="1"/>
        <pt x="1108" y="1500" on="0"/>
        <pt x="1108" y="1459" on="1"/>
        <pt x="1108" y="1443" on="0"/>
        <pt x="1100" y="1427" on="1"/>
        <pt x="1081" y="1391" on="0"/>
      </contour>
    </TTGlyph>
    <TTGlyph name="bracketright" xMin="372" yMin="-146" xMax="1098" yMax="1527">
      <contour>
        <pt x="440" y="-10" on="1"/>
        <pt x="440" y="-10" on="0"/>
        <pt x="786" y="-10" on="1"/>
        <pt x="954" y="1391" on="1"/>
        <pt x="626" y="1391" on="1"/>
        <pt x="609" y="1391" on="0"/>
        <pt x="594" y="1399" on="1"/>
        <pt x="558" y="1418" on="0"/>
        <pt x="558" y="1459" on="1"/>
        <pt x="558" y="1475" on="0"/>
        <pt x="566" y="1491" on="1"/>
        <pt x="585" y="1527" on="0"/>
        <pt x="626" y="1527" on="1"/>
        <pt x="1030" y="1527" on="1"/>
        <pt x="1047" y="1527" on="0"/>
        <pt x="1064" y="1518" on="1"/>
        <pt x="1098" y="1499" on="0"/>
        <pt x="1098" y="1466" on="1"/>
        <pt x="1098" y="1461" on="0"/>
        <pt x="913" y="-86" on="1"/>
        <pt x="911" y="-97" on="0"/>
        <pt x="907" y="-107" on="1"/>
        <pt x="888" y="-146" on="0"/>
        <pt x="838" y="-146" on="1"/>
        <pt x="440" y="-146" on="1"/>
        <pt x="424" y="-146" on="0"/>
        <pt x="408" y="-138" on="1"/>
        <pt x="372" y="-118" on="0"/>
        <pt x="372" y="-78" on="1"/>
        <pt x="372" y="-61" on="0"/>
        <pt x="380" y="-46" on="1"/>
        <pt x="399" y="-10" on="0"/>
      </contour>
    </TTGlyph>
    <TTGlyph name="breve" xMin="105" yMin="1006" xMax="425" yMax="1214">
      <contour>
        <pt x="265" y="1006" on="1"/>
        <pt x="210" y="1006" on="0"/>
        <pt x="166" y="1041" on="1"/>
        <pt x="105" y="1089" on="0"/>
        <pt x="105" y="1166" on="1"/>
        <pt x="105" y="1175" on="0"/>
        <pt x="109" y="1185" on="1"/>
        <pt x="121" y="1214" on="0"/>
        <pt x="153" y="1214" on="1"/>
        <pt x="162" y="1214" on="0"/>
        <pt x="172" y="1210" on="1"/>
        <pt x="202" y="1198" on="0"/>
        <pt x="202" y="1166" on="1"/>
        <pt x="202" y="1151" on="0"/>
        <pt x="209" y="1136" on="1"/>
        <pt x="227" y="1103" on="0"/>
        <pt x="265" y="1103" on="1"/>
        <pt x="279" y="1103" on="0"/>
        <pt x="292" y="1109" on="1"/>
        <pt x="328" y="1126" on="0"/>
        <pt x="328" y="1166" on="1"/>
        <pt x="328" y="1175" on="0"/>
        <pt x="332" y="1185" on="1"/>
        <pt x="344" y="1214" on="0"/>
        <pt x="376" y="1214" on="1"/>
        <pt x="385" y="1214" on="0"/>
        <pt x="395" y="1210" on="1"/>
        <pt x="425" y="1198" on="0"/>
        <pt x="425" y="1166" on="1"/>
        <pt x="425" y="1111" on="0"/>
        <pt x="390" y="1067" on="1"/>
        <pt x="341" y="1006" on="0"/>
      </contour>
    </TTGlyph>
    <TTGlyph name="brokenbar" xMin="263" yMin="-82" xMax="409" yMax="1549">
      <contour>
        <pt x="409" y="478" on="1"/>
        <pt x="409" y="478" on="0"/>
        <pt x="409" y="0" on="1"/>
        <pt x="409" y="-24" on="0"/>
        <pt x="400" y="-43" on="1"/>
        <pt x="380" y="-82" on="0"/>
        <pt x="332" y="-82" on="1"/>
        <pt x="326" y="-81" on="0"/>
        <pt x="319" y="-80" on="1"/>
        <pt x="263" y="-65" on="0"/>
        <pt x="263" y="2" on="1"/>
        <pt x="263" y="478" on="1"/>
        <pt x="263" y="490" on="0"/>
        <pt x="265" y="502" on="1"/>
        <pt x="277" y="561" on="0"/>
        <pt x="341" y="561" on="1"/>
        <pt x="359" y="561" on="0"/>
        <pt x="374" y="552" on="1"/>
        <pt x="409" y="529" on="0"/>
      </contour>
      <contour>
        <pt x="409" y="1466" on="1"/>
        <pt x="409" y="988" on="1"/>
        <pt x="409" y="964" on="0"/>
        <pt x="400" y="945" on="1"/>
        <pt x="380" y="906" on="0"/>
        <pt x="332" y="906" on="1"/>
        <pt x="326" y="907" on="0"/>
        <pt x="319" y="908" on="1"/>
        <pt x="263" y="923" on="0"/>
        <pt x="263" y="990" on="1"/>
        <pt x="263" y="1466" on="1"/>
        <pt x="263" y="1478" on="0"/>
        <pt x="265" y="1490" on="1"/>
        <pt x="277" y="1549" on="0"/>
        <pt x="341" y="1549" on="1"/>
        <pt x="359" y="1549" on="0"/>
        <pt x="374" y="1540" on="1"/>
        <pt x="409" y="1517" on="0"/>
      </contour>
    </TTGlyph>
    <TTGlyph name="bs" xMin="109" yMin="14" xMax="1693" yMax="1544">
      <contour>
        <pt x="1209" y="814" on="1"/>
        <pt x="1227" y="866" on="0"/>
        <pt x="1283" y="867" on="1"/>
        <pt x="1289" y="867" on="1"/>
        <pt x="1311" y="866" on="0"/>
        <pt x="1333" y="862" on="1"/>
        <pt x="1495" y="835" on="0"/>
        <pt x="1597" y="691" on="1"/>
        <pt x="1693" y="556" on="0"/>
        <pt x="1693" y="385" on="1"/>
        <pt x="1693" y="222" on="0"/>
        <pt x="1601" y="99" on="1"/>
        <pt x="1563" y="47" on="0"/>
        <pt x="1522" y="46" on="1"/>
        <pt x="1503" y="46" on="0"/>
        <pt x="1485" y="58" on="1"/>
        <pt x="1451" y="81" on="0"/>
        <pt x="1451" y="118" on="1"/>
        <pt x="1451" y="131" on="0"/>
        <pt x="1456" y="145" on="1"/>
        <pt x="1456" y="145" on="0"/>
        <pt x="1467" y="167" on="1"/>
        <pt x="1537" y="281" on="0"/>
        <pt x="1538" y="394" on="1"/>
        <pt x="1538" y="412" on="0"/>
        <pt x="1536" y="431" on="1"/>
        <pt x="1522" y="558" on="0"/>
        <pt x="1429" y="647" on="1"/>
        <pt x="1368" y="706" on="0"/>
        <pt x="1321" y="707" on="1"/>
        <pt x="1303" y="674" on="0"/>
        <pt x="1283" y="645" on="1"/>
        <pt x="1175" y="491" on="0"/>
        <pt x="1002" y="464" on="1"/>
        <pt x="956" y="307" on="0"/>
        <pt x="865" y="190" on="1"/>
        <pt x="728" y="14" on="0"/>
        <pt x="551" y="14" on="1"/>
        <pt x="303" y="15" on="0"/>
        <pt x="188" y="322" on="1"/>
        <pt x="109" y="536" on="0"/>
        <pt x="109" y="831" on="1"/>
        <pt x="109" y="848" on="0"/>
        <pt x="111" y="874" on="1"/>
        <pt x="125" y="1084" on="0"/>
        <pt x="190" y="1260" on="1"/>
        <pt x="295" y="1544" on="0"/>
        <pt x="484" y="1544" on="1"/>
        <pt x="676" y="1543" on="0"/>
        <pt x="678" y="1341" on="1"/>
        <pt x="678" y="1137" on="0"/>
        <pt x="503" y="886" on="1"/>
        <pt x="389" y="724" on="0"/>
        <pt x="264" y="622" on="1"/>
        <pt x="279" y="507" on="0"/>
        <pt x="308" y="413" on="1"/>
        <pt x="386" y="161" on="0"/>
        <pt x="539" y="161" on="1"/>
        <pt x="613" y="161" on="0"/>
        <pt x="678" y="205" on="1"/>
        <pt x="791" y="282" on="0"/>
        <pt x="858" y="461" on="1"/>
        <pt x="843" y="464" on="0"/>
        <pt x="834" y="468" on="1"/>
        <pt x="807" y="475" on="0"/>
        <pt x="783" y="486" on="1"/>
        <pt x="663" y="541" on="0"/>
        <pt x="663" y="680" on="1"/>
        <pt x="663" y="746" on="0"/>
        <pt x="711" y="795" on="1"/>
        <pt x="765" y="850" on="0"/>
        <pt x="838" y="850" on="1"/>
        <pt x="911" y="850" on="0"/>
        <pt x="963" y="809" on="1"/>
        <pt x="1032" y="753" on="0"/>
        <pt x="1032" y="658" on="1"/>
        <pt x="1032" y="645" on="0"/>
        <pt x="1030" y="617" on="1"/>
        <pt x="1044" y="623" on="0"/>
        <pt x="1084" y="647" on="1"/>
        <pt x="1172" y="708" on="0"/>
      </contour>
      <contour>
        <pt x="272" y="970" on="1"/>
        <pt x="272" y="970" on="0"/>
        <pt x="270" y="959" on="1"/>
        <pt x="260" y="889" on="0"/>
        <pt x="257" y="803" on="1"/>
        <pt x="319" y="866" on="0"/>
        <pt x="381" y="952" on="1"/>
        <pt x="542" y="1175" on="0"/>
        <pt x="542" y="1329" on="1"/>
        <pt x="542" y="1336" on="0"/>
        <pt x="539" y="1347" on="1"/>
        <pt x="524" y="1392" on="0"/>
        <pt x="486" y="1392" on="1"/>
        <pt x="412" y="1391" on="0"/>
        <pt x="360" y="1301" on="1"/>
        <pt x="304" y="1203" on="0"/>
      </contour>
      <contour>
        <pt x="800" y="663" on="1"/>
        <pt x="801" y="606" on="0"/>
        <pt x="894" y="597" on="1"/>
        <pt x="895" y="602" on="0"/>
        <pt x="898" y="645" on="1"/>
        <pt x="898" y="649" on="1"/>
        <pt x="898" y="654" on="0"/>
        <pt x="897" y="660" on="1"/>
        <pt x="892" y="711" on="0"/>
        <pt x="852" y="711" on="1"/>
        <pt x="841" y="711" on="0"/>
        <pt x="831" y="707" on="1"/>
        <pt x="800" y="694" on="0"/>
      </contour>
    </TTGlyph>
    <TTGlyph name="bullet" xMin="233" yMin="323" xMax="650" yMax="739">
      <contour>
        <pt x="233" y="530" on="1"/>
        <pt x="233" y="608" on="0"/>
        <pt x="284" y="667" on="1"/>
        <pt x="346" y="739" on="0"/>
        <pt x="440" y="739" on="1"/>
        <pt x="518" y="739" on="0"/>
        <pt x="577" y="688" on="1"/>
        <pt x="650" y="626" on="0"/>
        <pt x="650" y="530" on="1"/>
        <pt x="650" y="454" on="0"/>
        <pt x="599" y="395" on="1"/>
        <pt x="536" y="323" on="0"/>
        <pt x="440" y="323" on="1"/>
        <pt x="364" y="323" on="0"/>
        <pt x="305" y="374" on="1"/>
        <pt x="233" y="436" on="0"/>
      </contour>
    </TTGlyph>
    <TTGlyph name="c" xMin="25" yMin="3" xMax="666" yMax="862">
      <contour>
        <pt x="25" y="323" on="1"/>
        <pt x="25" y="357" on="0"/>
        <pt x="29" y="395" on="1"/>
        <pt x="50" y="566" on="0"/>
        <pt x="137" y="699" on="1"/>
        <pt x="244" y="862" on="0"/>
        <pt x="393" y="862" on="1"/>
        <pt x="413" y="862" on="0"/>
        <pt x="436" y="859" on="1"/>
        <pt x="542" y="844" on="0"/>
        <pt x="546" y="782" on="1"/>
        <pt x="545" y="734" on="0"/>
        <pt x="461" y="731" on="1"/>
        <pt x="427" y="731" on="1"/>
        <pt x="408" y="731" on="0"/>
        <pt x="390" y="726" on="1"/>
        <pt x="298" y="699" on="0"/>
        <pt x="234" y="559" on="1"/>
        <pt x="175" y="430" on="0"/>
        <pt x="175" y="299" on="1"/>
        <pt x="175" y="232" on="0"/>
        <pt x="198" y="198" on="1"/>
        <pt x="225" y="160" on="0"/>
        <pt x="306" y="153" on="1"/>
        <pt x="341" y="153" on="0"/>
        <pt x="376" y="161" on="1"/>
        <pt x="440" y="175" on="0"/>
        <pt x="527" y="232" on="1"/>
        <pt x="584" y="269" on="0"/>
        <pt x="607" y="269" on="1"/>
        <pt x="621" y="269" on="0"/>
        <pt x="635" y="260" on="1"/>
        <pt x="666" y="240" on="0"/>
        <pt x="666" y="204" on="1"/>
        <pt x="666" y="193" on="0"/>
        <pt x="661" y="180" on="1"/>
        <pt x="635" y="121" on="0"/>
        <pt x="515" y="64" on="1"/>
        <pt x="385" y="3" on="0"/>
        <pt x="275" y="3" on="1"/>
        <pt x="27" y="4" on="0"/>
      </contour>
    </TTGlyph>
    <TTGlyph name="caron" xMin="425" yMin="962" xMax="877" yMax="1255">
      <contour>
        <pt x="877" y="1176" on="1"/>
        <pt x="876" y="1144" on="0"/>
        <pt x="850" y="1117" on="1"/>
        <pt x="840" y="1109" on="0"/>
        <pt x="717" y="988" on="1"/>
        <pt x="691" y="963" on="0"/>
        <pt x="660" y="962" on="1"/>
        <pt x="625" y="962" on="0"/>
        <pt x="598" y="988" on="1"/>
        <pt x="575" y="1010" on="0"/>
        <pt x="520" y="1064" on="1"/>
        <pt x="458" y="1125" on="0"/>
        <pt x="452" y="1130" on="1"/>
        <pt x="426" y="1157" on="0"/>
        <pt x="425" y="1190" on="1"/>
        <pt x="425" y="1206" on="0"/>
        <pt x="435" y="1222" on="1"/>
        <pt x="456" y="1255" on="0"/>
        <pt x="493" y="1255" on="1"/>
        <pt x="520" y="1255" on="0"/>
        <pt x="549" y="1227" on="1"/>
        <pt x="656" y="1119" on="1"/>
        <pt x="753" y="1214" on="1"/>
        <pt x="781" y="1240" on="0"/>
        <pt x="809" y="1241" on="1"/>
        <pt x="824" y="1241" on="0"/>
        <pt x="840" y="1233" on="1"/>
        <pt x="877" y="1214" on="0"/>
      </contour>
    </TTGlyph>
    <TTGlyph name="ccaron" xMin="25" yMin="3" xMax="666" yMax="1255">
      <component glyphName="caron" x="-315" y="0" flags="0x1004"/>
      <component glyphName="c" x="0" y="0" flags="0x1004"/>
    </TTGlyph>
    <TTGlyph name="ccedilla" xMin="25" yMin="-328" xMax="666" yMax="862">
      <contour>
        <pt x="25" y="323" on="1"/>
        <pt x="25" y="357" on="0"/>
        <pt x="29" y="395" on="1"/>
        <pt x="50" y="566" on="0"/>
        <pt x="137" y="699" on="1"/>
        <pt x="244" y="862" on="0"/>
        <pt x="393" y="862" on="1"/>
        <pt x="413" y="862" on="0"/>
        <pt x="436" y="859" on="1"/>
        <pt x="542" y="844" on="0"/>
        <pt x="546" y="782" on="1"/>
        <pt x="545" y="734" on="0"/>
        <pt x="461" y="731" on="1"/>
        <pt x="427" y="731" on="1"/>
        <pt x="408" y="731" on="0"/>
        <pt x="390" y="726" on="1"/>
        <pt x="298" y="699" on="0"/>
        <pt x="234" y="559" on="1"/>
        <pt x="175" y="430" on="0"/>
        <pt x="175" y="299" on="1"/>
        <pt x="175" y="232" on="0"/>
        <pt x="198" y="198" on="1"/>
        <pt x="225" y="160" on="0"/>
        <pt x="306" y="153" on="1"/>
        <pt x="341" y="153" on="0"/>
        <pt x="376" y="161" on="1"/>
        <pt x="440" y="175" on="0"/>
        <pt x="527" y="232" on="1"/>
        <pt x="584" y="269" on="0"/>
        <pt x="607" y="269" on="1"/>
        <pt x="621" y="269" on="0"/>
        <pt x="635" y="260" on="1"/>
        <pt x="666" y="240" on="0"/>
        <pt x="666" y="204" on="1"/>
        <pt x="666" y="193" on="0"/>
        <pt x="661" y="180" on="1"/>
        <pt x="635" y="121" on="0"/>
        <pt x="515" y="64" on="1"/>
        <pt x="424" y="22" on="0"/>
        <pt x="344" y="9" on="1"/>
        <pt x="319" y="-29" on="1"/>
        <pt x="325" y="-30" on="0"/>
        <pt x="333" y="-32" on="1"/>
        <pt x="452" y="-61" on="0"/>
        <pt x="452" y="-173" on="1"/>
        <pt x="452" y="-210" on="0"/>
        <pt x="440" y="-241" on="1"/>
        <pt x="404" y="-328" on="0"/>
        <pt x="285" y="-328" on="1"/>
        <pt x="251" y="-328" on="0"/>
        <pt x="214" y="-306" on="1"/>
        <pt x="153" y="-270" on="0"/>
        <pt x="153" y="-219" on="1"/>
        <pt x="153" y="-214" on="0"/>
        <pt x="154" y="-209" on="1"/>
        <pt x="161" y="-184" on="0"/>
        <pt x="190" y="-184" on="1"/>
        <pt x="208" y="-185" on="0"/>
        <pt x="233" y="-209" on="1"/>
        <pt x="258" y="-235" on="0"/>
        <pt x="280" y="-235" on="1"/>
        <pt x="297" y="-235" on="0"/>
        <pt x="312" y="-227" on="1"/>
        <pt x="348" y="-208" on="0"/>
        <pt x="348" y="-167" on="1"/>
        <pt x="348" y="-151" on="0"/>
        <pt x="341" y="-136" on="1"/>
        <pt x="322" y="-100" on="0"/>
        <pt x="280" y="-100" on="1"/>
        <pt x="268" y="-100" on="0"/>
        <pt x="252" y="-113" on="1"/>
        <pt x="227" y="-133" on="0"/>
        <pt x="212" y="-133" on="1"/>
        <pt x="208" y="-133" on="0"/>
        <pt x="202" y="-131" on="1"/>
        <pt x="178" y="-122" on="0"/>
        <pt x="178" y="-99" on="1"/>
        <pt x="178" y="-81" on="0"/>
        <pt x="189" y="-65" on="1"/>
        <pt x="234" y="6" on="1"/>
        <pt x="27" y="31" on="0"/>
      </contour>
    </TTGlyph>
    <TTGlyph name="cedilla" xMin="437" yMin="-328" xMax="736" yMax="126">
      <contour>
        <pt x="627" y="126" on="1"/>
        <pt x="630" y="126" on="0"/>
        <pt x="634" y="125" on="1"/>
        <pt x="663" y="120" on="0"/>
        <pt x="663" y="83" on="1"/>
        <pt x="662" y="57" on="0"/>
        <pt x="603" y="-29" on="1"/>
        <pt x="609" y="-30" on="0"/>
        <pt x="617" y="-32" on="1"/>
        <pt x="736" y="-61" on="0"/>
        <pt x="736" y="-173" on="1"/>
        <pt x="736" y="-210" on="0"/>
        <pt x="724" y="-241" on="1"/>
        <pt x="688" y="-328" on="0"/>
        <pt x="569" y="-328" on="1"/>
        <pt x="535" y="-328" on="0"/>
        <pt x="498" y="-306" on="1"/>
        <pt x="437" y="-270" on="0"/>
        <pt x="437" y="-219" on="1"/>
        <pt x="437" y="-214" on="0"/>
        <pt x="438" y="-209" on="1"/>
        <pt x="445" y="-184" on="0"/>
        <pt x="474" y="-184" on="1"/>
        <pt x="492" y="-185" on="0"/>
        <pt x="517" y="-209" on="1"/>
        <pt x="542" y="-235" on="0"/>
        <pt x="564" y="-235" on="1"/>
        <pt x="581" y="-235" on="0"/>
        <pt x="596" y="-227" on="1"/>
        <pt x="632" y="-208" on="0"/>
        <pt x="632" y="-167" on="1"/>
        <pt x="632" y="-151" on="0"/>
        <pt x="625" y="-136" on="1"/>
        <pt x="606" y="-100" on="0"/>
        <pt x="564" y="-100" on="1"/>
        <pt x="552" y="-100" on="0"/>
        <pt x="536" y="-113" on="1"/>
        <pt x="511" y="-133" on="0"/>
        <pt x="496" y="-133" on="1"/>
        <pt x="492" y="-133" on="0"/>
        <pt x="486" y="-131" on="1"/>
        <pt x="462" y="-122" on="0"/>
        <pt x="462" y="-99" on="1"/>
        <pt x="462" y="-81" on="0"/>
        <pt x="473" y="-65" on="1"/>
        <pt x="576" y="95" on="1"/>
        <pt x="598" y="124" on="0"/>
      </contour>
    </TTGlyph>
    <TTGlyph name="cent" xMin="49" yMin="78" xMax="657" yMax="1469">
      <contour>
        <pt x="49" y="666" on="1"/>
        <pt x="49" y="785" on="0"/>
        <pt x="97" y="908" on="1"/>
        <pt x="163" y="1081" on="0"/>
        <pt x="280" y="1146" on="1"/>
        <pt x="314" y="1391" on="1"/>
        <pt x="315" y="1410" on="0"/>
        <pt x="324" y="1426" on="1"/>
        <pt x="347" y="1469" on="0"/>
        <pt x="396" y="1469" on="1"/>
        <pt x="417" y="1469" on="0"/>
        <pt x="437" y="1457" on="1"/>
        <pt x="476" y="1433" on="0"/>
        <pt x="476" y="1387" on="1"/>
        <pt x="468" y="1317" on="0"/>
        <pt x="448" y="1173" on="1"/>
        <pt x="541" y="1152" on="0"/>
        <pt x="542" y="1103" on="1"/>
        <pt x="540" y="1058" on="0"/>
        <pt x="462" y="1054" on="1"/>
        <pt x="430" y="1054" on="1"/>
        <pt x="415" y="1054" on="0"/>
        <pt x="400" y="1050" on="1"/>
        <pt x="308" y="1028" on="0"/>
        <pt x="246" y="888" on="1"/>
        <pt x="190" y="763" on="0"/>
        <pt x="190" y="636" on="1"/>
        <pt x="190" y="618" on="0"/>
        <pt x="192" y="602" on="1"/>
        <pt x="205" y="507" on="0"/>
        <pt x="309" y="507" on="1"/>
        <pt x="339" y="507" on="0"/>
        <pt x="369" y="512" on="1"/>
        <pt x="435" y="525" on="0"/>
        <pt x="522" y="580" on="1"/>
        <pt x="579" y="615" on="0"/>
        <pt x="601" y="615" on="1"/>
        <pt x="613" y="615" on="0"/>
        <pt x="627" y="607" on="1"/>
        <pt x="657" y="587" on="0"/>
        <pt x="657" y="554" on="1"/>
        <pt x="657" y="541" on="0"/>
        <pt x="652" y="532" on="1"/>
        <pt x="631" y="490" on="0"/>
        <pt x="570" y="450" on="1"/>
        <pt x="472" y="387" on="0"/>
        <pt x="345" y="369" on="1"/>
        <pt x="337" y="311" on="0"/>
        <pt x="326" y="224" on="1"/>
        <pt x="319" y="169" on="0"/>
        <pt x="317" y="160" on="1"/>
        <pt x="316" y="155" on="0"/>
        <pt x="315" y="148" on="1"/>
        <pt x="299" y="78" on="0"/>
        <pt x="234" y="78" on="1"/>
        <pt x="212" y="78" on="0"/>
        <pt x="193" y="90" on="1"/>
        <pt x="153" y="116" on="0"/>
        <pt x="153" y="175" on="1"/>
        <pt x="153" y="192" on="0"/>
        <pt x="178" y="384" on="1"/>
        <pt x="50" y="442" on="0"/>
      </contour>
    </TTGlyph>
    <TTGlyph name="circumflex" xMin="476" yMin="962" xMax="928" yMax="1255">
      <contour>
        <pt x="476" y="1040" on="1"/>
        <pt x="477" y="1072" on="0"/>
        <pt x="503" y="1100" on="1"/>
        <pt x="513" y="1108" on="0"/>
        <pt x="636" y="1229" on="1"/>
        <pt x="662" y="1254" on="0"/>
        <pt x="694" y="1255" on="1"/>
        <pt x="728" y="1255" on="0"/>
        <pt x="755" y="1229" on="1"/>
        <pt x="898" y="1086" on="0"/>
        <pt x="901" y="1086" on="1"/>
        <pt x="901" y="1086" on="0"/>
        <pt x="901" y="1086" on="0"/>
        <pt x="901" y="1086" on="1"/>
        <pt x="927" y="1066" on="0"/>
        <pt x="928" y="1027" on="1"/>
        <pt x="928" y="1012" on="0"/>
        <pt x="919" y="996" on="1"/>
        <pt x="898" y="962" on="0"/>
        <pt x="860" y="962" on="1"/>
        <pt x="830" y="962" on="0"/>
        <pt x="804" y="989" on="1"/>
        <pt x="697" y="1098" on="1"/>
        <pt x="600" y="1003" on="1"/>
        <pt x="574" y="977" on="0"/>
        <pt x="544" y="976" on="1"/>
        <pt x="529" y="976" on="0"/>
        <pt x="513" y="984" on="1"/>
        <pt x="476" y="1003" on="0"/>
      </contour>
    </TTGlyph>
    <TTGlyph name="colon" xMin="298" yMin="207" xMax="480" yMax="712">
      <contour>
        <pt x="298" y="620" on="1"/>
        <pt x="298" y="646" on="0"/>
        <pt x="311" y="668" on="1"/>
        <pt x="338" y="712" on="0"/>
        <pt x="388" y="712" on="1"/>
        <pt x="414" y="712" on="0"/>
        <pt x="436" y="698" on="1"/>
        <pt x="480" y="672" on="0"/>
        <pt x="480" y="620" on="1"/>
        <pt x="480" y="595" on="0"/>
        <pt x="466" y="573" on="1"/>
        <pt x="439" y="530" on="0"/>
        <pt x="388" y="530" on="1"/>
        <pt x="363" y="530" on="0"/>
        <pt x="340" y="544" on="1"/>
        <pt x="298" y="571" on="0"/>
      </contour>
      <contour>
        <pt x="298" y="297" on="1"/>
        <pt x="298" y="323" on="0"/>
        <pt x="311" y="345" on="1"/>
        <pt x="338" y="389" on="0"/>
        <pt x="388" y="389" on="1"/>
        <pt x="414" y="389" on="0"/>
        <pt x="436" y="375" on="1"/>
        <pt x="480" y="349" on="0"/>
        <pt x="480" y="297" on="1"/>
        <pt x="480" y="272" on="0"/>
        <pt x="466" y="250" on="1"/>
        <pt x="439" y="207" on="0"/>
        <pt x="388" y="207" on="1"/>
        <pt x="363" y="207" on="0"/>
        <pt x="340" y="221" on="1"/>
        <pt x="298" y="248" on="0"/>
      </contour>
    </TTGlyph>
    <TTGlyph name="comma" xMin="284" yMin="-119" xMax="486" yMax="182">
      <contour>
        <pt x="303" y="90" on="1"/>
        <pt x="303" y="116" on="0"/>
        <pt x="316" y="138" on="1"/>
        <pt x="343" y="182" on="0"/>
        <pt x="393" y="182" on="1"/>
        <pt x="419" y="182" on="0"/>
        <pt x="441" y="168" on="1"/>
        <pt x="486" y="138" on="0"/>
        <pt x="486" y="76" on="1"/>
        <pt x="486" y="19" on="0"/>
        <pt x="463" y="-29" on="1"/>
        <pt x="419" y="-119" on="0"/>
        <pt x="320" y="-119" on="1"/>
        <pt x="286" y="-118" on="0"/>
        <pt x="284" y="-85" on="1"/>
        <pt x="285" y="-57" on="0"/>
        <pt x="321" y="-46" on="1"/>
        <pt x="331" y="-43" on="0"/>
        <pt x="340" y="-40" on="1"/>
        <pt x="377" y="-27" on="0"/>
        <pt x="379" y="0" on="1"/>
        <pt x="363" y="3" on="0"/>
        <pt x="348" y="11" on="1"/>
        <pt x="303" y="37" on="0"/>
      </contour>
    </TTGlyph>
    <TTGlyph name="copyright" xMin="163" yMin="239" xMax="1159" yMax="1237">
      <contour>
        <pt x="802" y="635" on="1"/>
        <pt x="792" y="612" on="0"/>
        <pt x="780" y="592" on="1"/>
        <pt x="721" y="493" on="0"/>
        <pt x="639" y="493" on="1"/>
        <pt x="593" y="493" on="0"/>
        <pt x="556" y="529" on="1"/>
        <pt x="496" y="587" on="0"/>
        <pt x="496" y="693" on="1"/>
        <pt x="496" y="698" on="0"/>
        <pt x="496" y="703" on="1"/>
        <pt x="501" y="784" on="0"/>
        <pt x="556" y="869" on="1"/>
        <pt x="617" y="965" on="0"/>
        <pt x="686" y="965" on="1"/>
        <pt x="730" y="965" on="0"/>
        <pt x="767" y="932" on="1"/>
        <pt x="815" y="888" on="0"/>
        <pt x="817" y="826" on="1"/>
        <pt x="816" y="818" on="0"/>
        <pt x="812" y="810" on="1"/>
        <pt x="796" y="780" on="0"/>
        <pt x="759" y="780" on="1"/>
        <pt x="734" y="780" on="0"/>
        <pt x="720" y="797" on="1"/>
        <pt x="720" y="798" on="0"/>
        <pt x="718" y="799" on="1"/>
        <pt x="687" y="845" on="0"/>
        <pt x="681" y="845" on="1"/>
        <pt x="660" y="844" on="0"/>
        <pt x="639" y="791" on="1"/>
        <pt x="616" y="730" on="0"/>
        <pt x="616" y="693" on="1"/>
        <pt x="616" y="681" on="0"/>
        <pt x="617" y="669" on="1"/>
        <pt x="623" y="613" on="0"/>
        <pt x="645" y="613" on="1"/>
        <pt x="658" y="614" on="0"/>
        <pt x="690" y="663" on="1"/>
        <pt x="691" y="665" on="0"/>
        <pt x="692" y="667" on="1"/>
        <pt x="711" y="698" on="0"/>
        <pt x="744" y="698" on="1"/>
        <pt x="754" y="698" on="0"/>
        <pt x="767" y="691" on="1"/>
        <pt x="803" y="674" on="0"/>
        <pt x="803" y="647" on="1"/>
        <pt x="803" y="640" on="0"/>
      </contour>
      <contour>
        <pt x="163" y="737" on="1"/>
        <pt x="163" y="783" on="0"/>
        <pt x="171" y="828" on="1"/>
        <pt x="203" y="1001" on="0"/>
        <pt x="337" y="1117" on="1"/>
        <pt x="478" y="1237" on="0"/>
        <pt x="662" y="1237" on="1"/>
        <pt x="708" y="1237" on="0"/>
        <pt x="754" y="1228" on="1"/>
        <pt x="924" y="1196" on="0"/>
        <pt x="1039" y="1062" on="1"/>
        <pt x="1159" y="922" on="0"/>
        <pt x="1159" y="737" on="1"/>
        <pt x="1159" y="690" on="0"/>
        <pt x="1150" y="643" on="1"/>
        <pt x="1117" y="473" on="0"/>
        <pt x="983" y="358" on="1"/>
        <pt x="843" y="239" on="0"/>
        <pt x="662" y="239" on="1"/>
        <pt x="615" y="239" on="0"/>
        <pt x="568" y="248" on="1"/>
        <pt x="397" y="281" on="0"/>
        <pt x="283" y="414" on="1"/>
        <pt x="163" y="554" on="0"/>
      </contour>
      <contour>
        <pt x="307" y="736" on="1"/>
        <pt x="307" y="728" on="0"/>
        <pt x="307" y="720" on="1"/>
        <pt x="314" y="577" on="0"/>
        <pt x="416" y="478" on="1"/>
        <pt x="521" y="377" on="0"/>
        <pt x="667" y="377" on="1"/>
        <pt x="675" y="377" on="0"/>
        <pt x="683" y="377" on="1"/>
        <pt x="828" y="384" on="0"/>
        <pt x="928" y="487" on="1"/>
        <pt x="1028" y="591" on="0"/>
        <pt x="1028" y="736" on="1"/>
        <pt x="1028" y="742" on="0"/>
        <pt x="1028" y="749" on="1"/>
        <pt x="1023" y="895" on="0"/>
        <pt x="919" y="995" on="1"/>
        <pt x="815" y="1096" on="0"/>
        <pt x="667" y="1096" on="1"/>
        <pt x="661" y="1096" on="0"/>
        <pt x="654" y="1096" on="1"/>
        <pt x="509" y="1091" on="0"/>
        <pt x="409" y="988" on="1"/>
        <pt x="307" y="884" on="0"/>
      </contour>
    </TTGlyph>
    <TTGlyph name="cr" xMin="7" yMin="-24" xMax="1511" yMax="908">
      <contour>
        <pt x="782" y="745" on="1"/>
        <pt x="783" y="695" on="0"/>
        <pt x="839" y="669" on="1"/>
        <pt x="861" y="725" on="0"/>
        <pt x="862" y="745" on="1"/>
        <pt x="862" y="751" on="0"/>
        <pt x="860" y="758" on="1"/>
        <pt x="853" y="785" on="0"/>
        <pt x="823" y="785" on="1"/>
        <pt x="818" y="785" on="0"/>
        <pt x="811" y="783" on="1"/>
        <pt x="782" y="775" on="0"/>
      </contour>
      <contour>
        <pt x="1132" y="758" on="1"/>
        <pt x="1172" y="757" on="0"/>
        <pt x="1202" y="733" on="1"/>
        <pt x="1217" y="719" on="0"/>
        <pt x="1218" y="704" on="1"/>
        <pt x="1218" y="696" on="0"/>
        <pt x="1211" y="673" on="1"/>
        <pt x="1159" y="496" on="0"/>
        <pt x="1159" y="368" on="1"/>
        <pt x="1159" y="318" on="0"/>
        <pt x="1167" y="269" on="1"/>
        <pt x="1191" y="126" on="0"/>
        <pt x="1263" y="126" on="1"/>
        <pt x="1294" y="128" on="0"/>
        <pt x="1364" y="170" on="1"/>
        <pt x="1425" y="211" on="0"/>
        <pt x="1455" y="211" on="1"/>
        <pt x="1470" y="211" on="0"/>
        <pt x="1485" y="200" on="1"/>
        <pt x="1511" y="181" on="0"/>
        <pt x="1511" y="155" on="1"/>
        <pt x="1508" y="99" on="0"/>
        <pt x="1433" y="41" on="1"/>
        <pt x="1344" y="-24" on="0"/>
        <pt x="1243" y="-24" on="1"/>
        <pt x="1177" y="-24" on="0"/>
        <pt x="1129" y="10" on="1"/>
        <pt x="1017" y="90" on="0"/>
        <pt x="1017" y="335" on="1"/>
        <pt x="1017" y="368" on="0"/>
        <pt x="1019" y="405" on="1"/>
        <pt x="1025" y="514" on="0"/>
        <pt x="1037" y="561" on="1"/>
        <pt x="988" y="537" on="0"/>
        <pt x="924" y="532" on="1"/>
        <pt x="842" y="360" on="0"/>
        <pt x="719" y="229" on="1"/>
        <pt x="505" y="2" on="0"/>
        <pt x="260" y="2" on="1"/>
        <pt x="11" y="4" on="0"/>
        <pt x="7" y="321" on="1"/>
        <pt x="7" y="355" on="0"/>
        <pt x="11" y="393" on="1"/>
        <pt x="32" y="564" on="0"/>
        <pt x="119" y="697" on="1"/>
        <pt x="225" y="860" on="0"/>
        <pt x="374" y="860" on="1"/>
        <pt x="399" y="860" on="0"/>
        <pt x="429" y="854" on="1"/>
        <pt x="527" y="835" on="0"/>
        <pt x="527" y="781" on="1"/>
        <pt x="525" y="733" on="0"/>
        <pt x="442" y="728" on="1"/>
        <pt x="427" y="728" on="0"/>
        <pt x="408" y="729" on="1"/>
        <pt x="389" y="729" on="0"/>
        <pt x="370" y="724" on="1"/>
        <pt x="278" y="696" on="0"/>
        <pt x="214" y="550" on="1"/>
        <pt x="156" y="419" on="0"/>
        <pt x="156" y="289" on="1"/>
        <pt x="156" y="264" on="0"/>
        <pt x="162" y="241" on="1"/>
        <pt x="185" y="152" on="0"/>
        <pt x="284" y="152" on="1"/>
        <pt x="342" y="152" on="0"/>
        <pt x="400" y="174" on="1"/>
        <pt x="600" y="248" on="0"/>
        <pt x="783" y="557" on="1"/>
        <pt x="775" y="561" on="0"/>
        <pt x="766" y="566" on="1"/>
        <pt x="661" y="624" on="0"/>
        <pt x="661" y="751" on="1"/>
        <pt x="661" y="794" on="0"/>
        <pt x="683" y="832" on="1"/>
        <pt x="727" y="908" on="0"/>
        <pt x="823" y="908" on="1"/>
        <pt x="872" y="908" on="0"/>
        <pt x="916" y="882" on="1"/>
        <pt x="988" y="837" on="0"/>
        <pt x="988" y="758" on="1"/>
        <pt x="988" y="724" on="0"/>
        <pt x="975" y="672" on="1"/>
        <pt x="1007" y="688" on="0"/>
        <pt x="1088" y="745" on="1"/>
        <pt x="1106" y="757" on="0"/>
      </contour>
    </TTGlyph>
    <TTGlyph name="cs" xMin="17" yMin="5" xMax="1360" yMax="866">
      <contour>
        <pt x="875" y="813" on="1"/>
        <pt x="897" y="865" on="0"/>
        <pt x="949" y="866" on="1"/>
        <pt x="955" y="866" on="1"/>
        <pt x="975" y="865" on="0"/>
        <pt x="996" y="861" on="1"/>
        <pt x="1160" y="834" on="0"/>
        <pt x="1263" y="690" on="1"/>
        <pt x="1360" y="555" on="0"/>
        <pt x="1360" y="383" on="1"/>
        <pt x="1360" y="220" on="0"/>
        <pt x="1268" y="97" on="1"/>
        <pt x="1268" y="96" on="0"/>
        <pt x="1266" y="95" on="1"/>
        <pt x="1227" y="44" on="0"/>
        <pt x="1182" y="44" on="1"/>
        <pt x="1165" y="44" on="0"/>
        <pt x="1149" y="56" on="1"/>
        <pt x="1118" y="79" on="0"/>
        <pt x="1118" y="116" on="1"/>
        <pt x="1118" y="129" on="0"/>
        <pt x="1123" y="143" on="1"/>
        <pt x="1123" y="143" on="0"/>
        <pt x="1134" y="165" on="1"/>
        <pt x="1206" y="280" on="0"/>
        <pt x="1207" y="398" on="1"/>
        <pt x="1207" y="412" on="0"/>
        <pt x="1206" y="427" on="1"/>
        <pt x="1195" y="555" on="0"/>
        <pt x="1105" y="645" on="1"/>
        <pt x="1047" y="704" on="0"/>
        <pt x="1000" y="705" on="1"/>
        <pt x="992" y="675" on="0"/>
        <pt x="982" y="644" on="1"/>
        <pt x="901" y="401" on="0"/>
        <pt x="739" y="229" on="1"/>
        <pt x="530" y="5" on="0"/>
        <pt x="270" y="5" on="1"/>
        <pt x="258" y="5" on="0"/>
        <pt x="245" y="6" on="1"/>
        <pt x="17" y="21" on="0"/>
        <pt x="17" y="325" on="1"/>
        <pt x="17" y="359" on="0"/>
        <pt x="21" y="397" on="1"/>
        <pt x="42" y="568" on="0"/>
        <pt x="129" y="701" on="1"/>
        <pt x="235" y="864" on="0"/>
        <pt x="384" y="864" on="1"/>
        <pt x="410" y="864" on="0"/>
        <pt x="441" y="858" on="1"/>
        <pt x="537" y="838" on="0"/>
        <pt x="537" y="785" on="1"/>
        <pt x="535" y="737" on="0"/>
        <pt x="452" y="732" on="1"/>
        <pt x="437" y="732" on="0"/>
        <pt x="418" y="733" on="1"/>
        <pt x="400" y="733" on="0"/>
        <pt x="382" y="728" on="1"/>
        <pt x="289" y="701" on="0"/>
        <pt x="224" y="555" on="1"/>
        <pt x="167" y="423" on="0"/>
        <pt x="167" y="292" on="1"/>
        <pt x="167" y="268" on="0"/>
        <pt x="170" y="247" on="1"/>
        <pt x="187" y="156" on="0"/>
        <pt x="295" y="155" on="1"/>
        <pt x="328" y="155" on="0"/>
        <pt x="361" y="161" on="1"/>
        <pt x="437" y="176" on="0"/>
        <pt x="536" y="244" on="1"/>
        <pt x="596" y="286" on="0"/>
        <pt x="651" y="349" on="1"/>
        <pt x="784" y="507" on="0"/>
      </contour>
    </TTGlyph>
    <TTGlyph name="currency" xMin="343" yMin="413" xMax="1074" yMax="1144">
      <contour>
        <pt x="411" y="413" on="1"/>
        <pt x="394" y="413" on="0"/>
        <pt x="377" y="423" on="1"/>
        <pt x="343" y="444" on="0"/>
        <pt x="343" y="481" on="1"/>
        <pt x="343" y="507" on="0"/>
        <pt x="364" y="529" on="1"/>
        <pt x="471" y="636" on="1"/>
        <pt x="433" y="699" on="0"/>
        <pt x="432" y="779" on="1"/>
        <pt x="432" y="857" on="0"/>
        <pt x="471" y="921" on="1"/>
        <pt x="364" y="1028" on="1"/>
        <pt x="344" y="1049" on="0"/>
        <pt x="343" y="1076" on="1"/>
        <pt x="343" y="1093" on="0"/>
        <pt x="353" y="1110" on="1"/>
        <pt x="374" y="1144" on="0"/>
        <pt x="411" y="1144" on="1"/>
        <pt x="437" y="1144" on="0"/>
        <pt x="459" y="1124" on="1"/>
        <pt x="566" y="1017" on="1"/>
        <pt x="633" y="1055" on="0"/>
        <pt x="709" y="1056" on="1"/>
        <pt x="784" y="1056" on="0"/>
        <pt x="852" y="1017" on="1"/>
        <pt x="959" y="1124" on="1"/>
        <pt x="979" y="1143" on="0"/>
        <pt x="1006" y="1144" on="1"/>
        <pt x="1023" y="1144" on="0"/>
        <pt x="1039" y="1135" on="1"/>
        <pt x="1074" y="1114" on="0"/>
        <pt x="1074" y="1076" on="1"/>
        <pt x="1074" y="1049" on="0"/>
        <pt x="1054" y="1028" on="1"/>
        <pt x="947" y="921" on="1"/>
        <pt x="985" y="856" on="0"/>
        <pt x="986" y="779" on="1"/>
        <pt x="986" y="702" on="0"/>
        <pt x="947" y="636" on="1"/>
        <pt x="1054" y="529" on="1"/>
        <pt x="1073" y="509" on="0"/>
        <pt x="1074" y="481" on="1"/>
        <pt x="1074" y="464" on="0"/>
        <pt x="1065" y="448" on="1"/>
        <pt x="1044" y="413" on="0"/>
        <pt x="1006" y="413" on="1"/>
        <pt x="980" y="413" on="0"/>
        <pt x="959" y="433" on="1"/>
        <pt x="852" y="541" on="1"/>
        <pt x="786" y="502" on="0"/>
        <pt x="709" y="501" on="1"/>
        <pt x="633" y="501" on="0"/>
        <pt x="566" y="541" on="1"/>
        <pt x="459" y="433" on="1"/>
        <pt x="441" y="414" on="0"/>
      </contour>
      <contour>
        <pt x="709" y="921" on="1"/>
        <pt x="662" y="921" on="0"/>
        <pt x="622" y="890" on="1"/>
        <pt x="566" y="846" on="0"/>
        <pt x="566" y="779" on="1"/>
        <pt x="566" y="732" on="0"/>
        <pt x="597" y="692" on="1"/>
        <pt x="641" y="636" on="0"/>
        <pt x="709" y="636" on="1"/>
        <pt x="756" y="636" on="0"/>
        <pt x="795" y="666" on="1"/>
        <pt x="852" y="710" on="0"/>
        <pt x="852" y="779" on="1"/>
        <pt x="852" y="826" on="0"/>
        <pt x="822" y="865" on="1"/>
        <pt x="779" y="921" on="0"/>
      </contour>
    </TTGlyph>
    <TTGlyph name="d" xMin="49" yMin="-5" xMax="949" yMax="1532">
      <contour>
        <pt x="49" y="318" on="1"/>
        <pt x="49" y="352" on="0"/>
        <pt x="53" y="390" on="1"/>
        <pt x="74" y="561" on="0"/>
        <pt x="161" y="694" on="1"/>
        <pt x="267" y="857" on="0"/>
        <pt x="416" y="857" on="1"/>
        <pt x="468" y="857" on="0"/>
        <pt x="517" y="838" on="1"/>
        <pt x="598" y="1414" on="1"/>
        <pt x="614" y="1531" on="0"/>
        <pt x="682" y="1532" on="1"/>
        <pt x="693" y="1532" on="0"/>
        <pt x="704" y="1530" on="1"/>
        <pt x="750" y="1519" on="0"/>
        <pt x="750" y="1443" on="1"/>
        <pt x="750" y="1412" on="0"/>
        <pt x="707" y="1091" on="1"/>
        <pt x="610" y="360" on="0"/>
        <pt x="610" y="287" on="1"/>
        <pt x="610" y="241" on="0"/>
        <pt x="629" y="201" on="1"/>
        <pt x="657" y="141" on="0"/>
        <pt x="704" y="141" on="1"/>
        <pt x="713" y="141" on="0"/>
        <pt x="723" y="143" on="1"/>
        <pt x="753" y="149" on="0"/>
        <pt x="810" y="189" on="1"/>
        <pt x="866" y="229" on="0"/>
        <pt x="899" y="229" on="1"/>
        <pt x="913" y="229" on="0"/>
        <pt x="925" y="219" on="1"/>
        <pt x="949" y="199" on="0"/>
        <pt x="949" y="168" on="1"/>
        <pt x="945" y="116" on="0"/>
        <pt x="871" y="59" on="1"/>
        <pt x="781" y="-5" on="0"/>
        <pt x="680" y="-5" on="1"/>
        <pt x="555" y="-4" on="0"/>
        <pt x="491" y="121" on="1"/>
        <pt x="476" y="103" on="0"/>
        <pt x="457" y="86" on="1"/>
        <pt x="361" y="-2" on="0"/>
        <pt x="262" y="-2" on="1"/>
        <pt x="199" y="-2" on="0"/>
        <pt x="153" y="30" on="1"/>
        <pt x="49" y="102" on="0"/>
      </contour>
      <contour>
        <pt x="405" y="250" on="1"/>
        <pt x="418" y="269" on="0"/>
        <pt x="437" y="349" on="1"/>
        <pt x="477" y="522" on="0"/>
        <pt x="498" y="712" on="1"/>
        <pt x="475" y="723" on="0"/>
        <pt x="450" y="726" on="1"/>
        <pt x="432" y="726" on="0"/>
        <pt x="413" y="721" on="1"/>
        <pt x="320" y="695" on="0"/>
        <pt x="256" y="549" on="1"/>
        <pt x="199" y="418" on="0"/>
        <pt x="199" y="286" on="1"/>
        <pt x="199" y="275" on="0"/>
        <pt x="200" y="264" on="1"/>
        <pt x="205" y="153" on="0"/>
        <pt x="262" y="153" on="1"/>
        <pt x="291" y="154" on="0"/>
        <pt x="335" y="185" on="1"/>
        <pt x="382" y="219" on="0"/>
      </contour>
    </TTGlyph>
    <TTGlyph name="dagger" xMin="129" yMin="-82" xMax="666" yMax="1178">
      <contour>
        <pt x="212" y="512" on="1"/>
        <pt x="212" y="512" on="0"/>
        <pt x="326" y="512" on="1"/>
        <pt x="326" y="1095" on="1"/>
        <pt x="326" y="1109" on="0"/>
        <pt x="329" y="1123" on="1"/>
        <pt x="343" y="1178" on="0"/>
        <pt x="405" y="1178" on="1"/>
        <pt x="423" y="1178" on="0"/>
        <pt x="438" y="1168" on="1"/>
        <pt x="473" y="1146" on="0"/>
        <pt x="473" y="1095" on="1"/>
        <pt x="473" y="512" on="1"/>
        <pt x="585" y="512" on="1"/>
        <pt x="608" y="512" on="0"/>
        <pt x="625" y="504" on="1"/>
        <pt x="666" y="486" on="0"/>
        <pt x="666" y="435" on="1"/>
        <pt x="666" y="426" on="0"/>
        <pt x="662" y="415" on="1"/>
        <pt x="644" y="365" on="0"/>
        <pt x="583" y="365" on="1"/>
        <pt x="473" y="365" on="1"/>
        <pt x="473" y="0" on="1"/>
        <pt x="473" y="-24" on="0"/>
        <pt x="464" y="-43" on="1"/>
        <pt x="444" y="-82" on="0"/>
        <pt x="396" y="-82" on="1"/>
        <pt x="390" y="-81" on="0"/>
        <pt x="383" y="-80" on="1"/>
        <pt x="326" y="-65" on="0"/>
        <pt x="326" y="2" on="1"/>
        <pt x="326" y="365" on="1"/>
        <pt x="212" y="365" on="1"/>
        <pt x="198" y="365" on="0"/>
        <pt x="184" y="368" on="1"/>
        <pt x="129" y="382" on="0"/>
        <pt x="129" y="444" on="1"/>
        <pt x="129" y="462" on="0"/>
        <pt x="139" y="478" on="1"/>
        <pt x="163" y="512" on="0"/>
      </contour>
    </TTGlyph>
    <TTGlyph name="daggerdbl" xMin="129" yMin="-82" xMax="666" yMax="1178">
      <contour>
        <pt x="212" y="654" on="1"/>
        <pt x="212" y="654" on="0"/>
        <pt x="326" y="654" on="1"/>
        <pt x="326" y="1095" on="1"/>
        <pt x="326" y="1109" on="0"/>
        <pt x="329" y="1123" on="1"/>
        <pt x="343" y="1178" on="0"/>
        <pt x="405" y="1178" on="1"/>
        <pt x="423" y="1178" on="0"/>
        <pt x="438" y="1168" on="1"/>
        <pt x="473" y="1146" on="0"/>
        <pt x="473" y="1095" on="1"/>
        <pt x="473" y="654" on="1"/>
        <pt x="585" y="654" on="1"/>
        <pt x="606" y="654" on="0"/>
        <pt x="623" y="647" on="1"/>
        <pt x="666" y="629" on="0"/>
        <pt x="666" y="578" on="1"/>
        <pt x="666" y="569" on="0"/>
        <pt x="662" y="558" on="1"/>
        <pt x="644" y="508" on="0"/>
        <pt x="583" y="508" on="1"/>
        <pt x="473" y="508" on="1"/>
        <pt x="473" y="333" on="1"/>
        <pt x="585" y="333" on="1"/>
        <pt x="606" y="333" on="0"/>
        <pt x="623" y="326" on="1"/>
        <pt x="666" y="308" on="0"/>
        <pt x="666" y="257" on="1"/>
        <pt x="666" y="248" on="0"/>
        <pt x="662" y="237" on="1"/>
        <pt x="644" y="187" on="0"/>
        <pt x="583" y="187" on="1"/>
        <pt x="473" y="187" on="1"/>
        <pt x="473" y="0" on="1"/>
        <pt x="473" y="-24" on="0"/>
        <pt x="464" y="-43" on="1"/>
        <pt x="444" y="-82" on="0"/>
        <pt x="396" y="-82" on="1"/>
        <pt x="390" y="-81" on="0"/>
        <pt x="383" y="-80" on="1"/>
        <pt x="326" y="-65" on="0"/>
        <pt x="326" y="2" on="1"/>
        <pt x="326" y="187" on="1"/>
        <pt x="212" y="187" on="1"/>
        <pt x="200" y="187" on="0"/>
        <pt x="188" y="189" on="1"/>
        <pt x="129" y="201" on="0"/>
        <pt x="129" y="265" on="1"/>
        <pt x="129" y="283" on="0"/>
        <pt x="139" y="299" on="1"/>
        <pt x="163" y="333" on="0"/>
        <pt x="212" y="333" on="1"/>
        <pt x="326" y="333" on="1"/>
        <pt x="326" y="508" on="1"/>
        <pt x="212" y="508" on="1"/>
        <pt x="197" y="508" on="0"/>
        <pt x="183" y="512" on="1"/>
        <pt x="129" y="526" on="0"/>
        <pt x="129" y="586" on="1"/>
        <pt x="129" y="604" on="0"/>
        <pt x="139" y="619" on="1"/>
        <pt x="161" y="654" on="0"/>
      </contour>
    </TTGlyph>
</ttFont>
